<ttFont>
<head>
    <!-- Most of this table will be recalculated by the compiler -->
    <tableVersion value="1.0"/>
    <fontRevision value="4.01999"/>
    <checkSumAdjustment value="0x5179407d"/>
    <magicNumber value="0x5f0f3cf5"/>
    <flags value="00000000 00011111"/>
    <unitsPerEm value="2048"/>
    <created value="Wed Nov 16 00:08:38 2016"/>
    <modified value="Sat Aug 19 05:14:18 2017"/>
    <xMin value="-770"/>
    <yMin value="-458"/>
    <xMax value="2339"/>
    <yMax value="2349"/>
    <macStyle value="00000000 00000000"/>
    <lowestRecPPEM value="8"/>
    <fontDirectionHint value="2"/>
    <indexToLocFormat value="1"/>
    <glyphDataFormat value="0"/>
  </head>
    <TTGlyph name=".notdef" xMin="102" yMin="0" xMax="1143" yMax="1454">
      <contour>
        <pt x="1106" y="1454" on="1"/>
        <pt x="1143" y="1454" on="0"/>
        <pt x="1143" y="1411" on="1"/>
        <pt x="1143" y="59" on="1"/>
        <pt x="1143" y="27" on="0"/>
        <pt x="1111" y="0" on="0"/>
        <pt x="1075" y="0" on="1"/>
        <pt x="158" y="0" on="1"/>
        <pt x="127" y="0" on="0"/>
        <pt x="102" y="24" on="0"/>
        <pt x="102" y="51" on="1"/>
        <pt x="102" y="1407" on="1"/>
        <pt x="102" y="1454" on="0"/>
        <pt x="141" y="1454" on="1"/>
      </contour>
      <contour>
        <pt x="1036" y="1315" on="1"/>
        <pt x="1036" y="1352" on="0"/>
        <pt x="1006" y="1352" on="1"/>
        <pt x="299" y="1352" on="1"/>
        <pt x="1036" y="172" on="1"/>
      </contour>
      <contour>
        <pt x="209" y="145" on="1"/>
        <pt x="209" y="122" on="0"/>
        <pt x="229" y="102" on="0"/>
        <pt x="256" y="102" on="1"/>
        <pt x="950" y="102" on="1"/>
        <pt x="209" y="1270" on="1"/>
      </contour>
    </TTGlyph>
    <TTGlyph name="A" xMin="33" yMin="0" xMax="1346" yMax="1454">
      <contour>
        <pt x="659" y="1454" on="1"/>
        <pt x="721" y="1454" on="1"/>
        <pt x="1346" y="0" on="1"/>
        <pt x="1270" y="0" on="1"/>
        <pt x="1055" y="502" on="1"/>
        <pt x="326" y="502" on="1"/>
        <pt x="111" y="0" on="1"/>
        <pt x="33" y="0" on="1"/>
      </contour>
      <contour>
        <pt x="1032" y="563" on="1"/>
        <pt x="690" y="1364" on="1"/>
        <pt x="346" y="563" on="1"/>
      </contour>
    </TTGlyph>
    <TTGlyph name="AE" xMin="-57" yMin="0" xMax="1870" yMax="1454">
      <contour>
        <pt x="895" y="1454" on="1"/>
        <pt x="1851" y="1454" on="1"/>
        <pt x="1851" y="1389" on="1"/>
        <pt x="983" y="1389" on="1"/>
        <pt x="983" y="776" on="1"/>
        <pt x="1741" y="776" on="1"/>
        <pt x="1741" y="711" on="1"/>
        <pt x="983" y="711" on="1"/>
        <pt x="983" y="66" on="1"/>
        <pt x="1870" y="66" on="1"/>
        <pt x="1870" y="0" on="1"/>
        <pt x="913" y="0" on="1"/>
        <pt x="913" y="502" on="1"/>
        <pt x="350" y="502" on="1"/>
        <pt x="25" y="0" on="1"/>
        <pt x="-57" y="0" on="1"/>
      </contour>
      <contour>
        <pt x="909" y="567" on="1"/>
        <pt x="909" y="1358" on="1"/>
        <pt x="387" y="567" on="1"/>
      </contour>
    </TTGlyph>
    <TTGlyph name="AEacute" xMin="-57" yMin="0" xMax="1870" yMax="1878">
      <contour>
        <pt x="1161" y="1690" on="1"/>
        <pt x="1112" y="1716" on="1"/>
        <pt x="1239" y="1878" on="1"/>
        <pt x="1331" y="1878" on="1"/>
      </contour>
      <contour>
        <pt x="895" y="1454" on="1"/>
        <pt x="1851" y="1454" on="1"/>
        <pt x="1851" y="1389" on="1"/>
        <pt x="983" y="1389" on="1"/>
        <pt x="983" y="776" on="1"/>
        <pt x="1741" y="776" on="1"/>
        <pt x="1741" y="711" on="1"/>
        <pt x="983" y="711" on="1"/>
        <pt x="983" y="66" on="1"/>
        <pt x="1870" y="66" on="1"/>
        <pt x="1870" y="0" on="1"/>
        <pt x="913" y="0" on="1"/>
        <pt x="913" y="502" on="1"/>
        <pt x="350" y="502" on="1"/>
        <pt x="25" y="0" on="1"/>
        <pt x="-57" y="0" on="1"/>
      </contour>
      <contour>
        <pt x="909" y="567" on="1"/>
        <pt x="909" y="1358" on="1"/>
        <pt x="387" y="567" on="1"/>
      </contour>
    </TTGlyph>
    <TTGlyph name="Aacute" xMin="33" yMin="0" xMax="1346" yMax="1878">
      <contour>
        <pt x="713" y="1690" on="1"/>
        <pt x="664" y="1716" on="1"/>
        <pt x="791" y="1878" on="1"/>
        <pt x="883" y="1878" on="1"/>
      </contour>
      <contour>
        <pt x="659" y="1454" on="1"/>
        <pt x="721" y="1454" on="1"/>
        <pt x="1346" y="0" on="1"/>
        <pt x="1270" y="0" on="1"/>
        <pt x="1055" y="502" on="1"/>
        <pt x="326" y="502" on="1"/>
        <pt x="111" y="0" on="1"/>
        <pt x="33" y="0" on="1"/>
      </contour>
      <contour>
        <pt x="1032" y="563" on="1"/>
        <pt x="690" y="1364" on="1"/>
        <pt x="346" y="563" on="1"/>
      </contour>
    </TTGlyph>
    <TTGlyph name="Abreve" xMin="33" yMin="0" xMax="1346" yMax="1878">
      <contour>
        <pt x="805" y="1878" on="1"/>
        <pt x="856" y="1878" on="1"/>
        <pt x="856" y="1808" on="0"/>
        <pt x="756" y="1706" on="0"/>
        <pt x="690" y="1706" on="1"/>
        <pt x="622" y="1706" on="0"/>
        <pt x="524" y="1808" on="0"/>
        <pt x="524" y="1878" on="1"/>
        <pt x="578" y="1878" on="1"/>
        <pt x="578" y="1830" on="0"/>
        <pt x="647" y="1751" on="0"/>
        <pt x="690" y="1751" on="1"/>
        <pt x="731" y="1751" on="0"/>
        <pt x="799" y="1826" on="0"/>
      </contour>
      <contour>
        <pt x="659" y="1454" on="1"/>
        <pt x="721" y="1454" on="1"/>
        <pt x="1346" y="0" on="1"/>
        <pt x="1270" y="0" on="1"/>
        <pt x="1055" y="502" on="1"/>
        <pt x="326" y="502" on="1"/>
        <pt x="111" y="0" on="1"/>
        <pt x="33" y="0" on="1"/>
      </contour>
      <contour>
        <pt x="1032" y="563" on="1"/>
        <pt x="690" y="1364" on="1"/>
        <pt x="346" y="563" on="1"/>
      </contour>
    </TTGlyph>
    <TTGlyph name="Abreveacute" xMin="33" yMin="0" xMax="1346" yMax="1970">
      <contour>
        <pt x="692" y="1782" on="1"/>
        <pt x="643" y="1808" on="1"/>
        <pt x="770" y="1970" on="1"/>
        <pt x="862" y="1970" on="1"/>
      </contour>
      <contour>
        <pt x="788" y="1776" on="1"/>
        <pt x="840" y="1776" on="1"/>
        <pt x="840" y="1706" on="0"/>
        <pt x="740" y="1604" on="0"/>
        <pt x="674" y="1604" on="1"/>
        <pt x="606" y="1604" on="0"/>
        <pt x="508" y="1706" on="0"/>
        <pt x="508" y="1776" on="1"/>
        <pt x="561" y="1776" on="1"/>
        <pt x="561" y="1729" on="0"/>
        <pt x="631" y="1649" on="0"/>
        <pt x="674" y="1649" on="1"/>
        <pt x="715" y="1649" on="0"/>
        <pt x="782" y="1723" on="0"/>
      </contour>
      <contour>
        <pt x="659" y="1454" on="1"/>
        <pt x="721" y="1454" on="1"/>
        <pt x="1346" y="0" on="1"/>
        <pt x="1270" y="0" on="1"/>
        <pt x="1055" y="502" on="1"/>
        <pt x="326" y="502" on="1"/>
        <pt x="111" y="0" on="1"/>
        <pt x="33" y="0" on="1"/>
      </contour>
      <contour>
        <pt x="1032" y="563" on="1"/>
        <pt x="690" y="1364" on="1"/>
        <pt x="346" y="563" on="1"/>
      </contour>
    </TTGlyph>
    <TTGlyph name="Abrevecyrillic" xMin="33" yMin="0" xMax="1346" yMax="1794">
      <contour>
        <pt x="690" y="1653" on="1"/>
        <pt x="574" y="1653" on="0"/>
        <pt x="457" y="1733" on="0"/>
        <pt x="457" y="1794" on="1"/>
        <pt x="506" y="1794" on="1"/>
        <pt x="506" y="1752" on="0"/>
        <pt x="595" y="1696" on="0"/>
        <pt x="690" y="1696" on="1"/>
        <pt x="783" y="1696" on="0"/>
        <pt x="860" y="1746" on="0"/>
        <pt x="874" y="1794" on="1"/>
        <pt x="922" y="1794" on="1"/>
        <pt x="922" y="1733" on="0"/>
        <pt x="805" y="1653" on="0"/>
      </contour>
      <contour>
        <pt x="659" y="1454" on="1"/>
        <pt x="721" y="1454" on="1"/>
        <pt x="1346" y="0" on="1"/>
        <pt x="1270" y="0" on="1"/>
        <pt x="1055" y="502" on="1"/>
        <pt x="326" y="502" on="1"/>
        <pt x="111" y="0" on="1"/>
        <pt x="33" y="0" on="1"/>
      </contour>
      <contour>
        <pt x="1032" y="563" on="1"/>
        <pt x="690" y="1364" on="1"/>
        <pt x="346" y="563" on="1"/>
      </contour>
    </TTGlyph>
    <TTGlyph name="Abrevedotbelow" xMin="33" yMin="-285" xMax="1346" yMax="1878">
      <contour>
        <pt x="805" y="1878" on="1"/>
        <pt x="856" y="1878" on="1"/>
        <pt x="856" y="1808" on="0"/>
        <pt x="756" y="1706" on="0"/>
        <pt x="690" y="1706" on="1"/>
        <pt x="622" y="1706" on="0"/>
        <pt x="524" y="1808" on="0"/>
        <pt x="524" y="1878" on="1"/>
        <pt x="578" y="1878" on="1"/>
        <pt x="578" y="1830" on="0"/>
        <pt x="647" y="1751" on="0"/>
        <pt x="690" y="1751" on="1"/>
        <pt x="731" y="1751" on="0"/>
        <pt x="799" y="1826" on="0"/>
      </contour>
      <contour>
        <pt x="659" y="1454" on="1"/>
        <pt x="721" y="1454" on="1"/>
        <pt x="1346" y="0" on="1"/>
        <pt x="1270" y="0" on="1"/>
        <pt x="1055" y="502" on="1"/>
        <pt x="326" y="502" on="1"/>
        <pt x="111" y="0" on="1"/>
        <pt x="33" y="0" on="1"/>
      </contour>
      <contour>
        <pt x="1032" y="563" on="1"/>
        <pt x="690" y="1364" on="1"/>
        <pt x="346" y="563" on="1"/>
      </contour>
      <contour>
        <pt x="678" y="-285" on="1"/>
        <pt x="678" y="-115" on="1"/>
        <pt x="743" y="-115" on="1"/>
        <pt x="743" y="-285" on="1"/>
      </contour>
    </TTGlyph>
    <TTGlyph name="Abrevegrave" xMin="33" yMin="0" xMax="1346" yMax="1980">
      <contour>
        <pt x="512" y="1980" on="1"/>
        <pt x="602" y="1980" on="1"/>
        <pt x="731" y="1819" on="1"/>
        <pt x="682" y="1792" on="1"/>
      </contour>
      <contour>
        <pt x="801" y="1774" on="1"/>
        <pt x="852" y="1774" on="1"/>
        <pt x="852" y="1704" on="0"/>
        <pt x="752" y="1602" on="0"/>
        <pt x="686" y="1602" on="1"/>
        <pt x="618" y="1602" on="0"/>
        <pt x="520" y="1704" on="0"/>
        <pt x="520" y="1774" on="1"/>
        <pt x="573" y="1774" on="1"/>
        <pt x="573" y="1727" on="0"/>
        <pt x="643" y="1647" on="0"/>
        <pt x="686" y="1647" on="1"/>
        <pt x="727" y="1647" on="0"/>
        <pt x="795" y="1722" on="0"/>
      </contour>
      <contour>
        <pt x="659" y="1454" on="1"/>
        <pt x="721" y="1454" on="1"/>
        <pt x="1346" y="0" on="1"/>
        <pt x="1270" y="0" on="1"/>
        <pt x="1055" y="502" on="1"/>
        <pt x="326" y="502" on="1"/>
        <pt x="111" y="0" on="1"/>
        <pt x="33" y="0" on="1"/>
      </contour>
      <contour>
        <pt x="1032" y="563" on="1"/>
        <pt x="690" y="1364" on="1"/>
        <pt x="346" y="563" on="1"/>
      </contour>
    </TTGlyph>
    <TTGlyph name="Abrevehookabove" xMin="33" yMin="0" xMax="1346" yMax="2044">
      <contour>
        <pt x="559" y="1946" on="1"/>
        <pt x="524" y="1980" on="1"/>
        <pt x="594" y="2044" on="0"/>
        <pt x="662" y="2044" on="1"/>
        <pt x="718" y="2044" on="0"/>
        <pt x="784" y="1978" on="0"/>
        <pt x="784" y="1923" on="1"/>
        <pt x="784" y="1887" on="0"/>
        <pt x="744" y="1828" on="0"/>
        <pt x="696" y="1778" on="1"/>
        <pt x="666" y="1808" on="1"/>
        <pt x="733" y="1878" on="0"/>
        <pt x="733" y="1921" on="1"/>
        <pt x="733" y="1954" on="0"/>
        <pt x="694" y="1995" on="0"/>
        <pt x="655" y="1995" on="1"/>
        <pt x="629" y="1995" on="0"/>
        <pt x="590" y="1974" on="0"/>
      </contour>
      <contour>
        <pt x="791" y="1776" on="1"/>
        <pt x="842" y="1776" on="1"/>
        <pt x="842" y="1706" on="0"/>
        <pt x="742" y="1604" on="0"/>
        <pt x="676" y="1604" on="1"/>
        <pt x="608" y="1604" on="0"/>
        <pt x="510" y="1706" on="0"/>
        <pt x="510" y="1776" on="1"/>
        <pt x="563" y="1776" on="1"/>
        <pt x="563" y="1729" on="0"/>
        <pt x="633" y="1649" on="0"/>
        <pt x="676" y="1649" on="1"/>
        <pt x="717" y="1649" on="0"/>
        <pt x="785" y="1724" on="0"/>
      </contour>
      <contour>
        <pt x="659" y="1454" on="1"/>
        <pt x="721" y="1454" on="1"/>
        <pt x="1346" y="0" on="1"/>
        <pt x="1270" y="0" on="1"/>
        <pt x="1055" y="502" on="1"/>
        <pt x="326" y="502" on="1"/>
        <pt x="111" y="0" on="1"/>
        <pt x="33" y="0" on="1"/>
      </contour>
      <contour>
        <pt x="1032" y="563" on="1"/>
        <pt x="690" y="1364" on="1"/>
        <pt x="346" y="563" on="1"/>
      </contour>
    </TTGlyph>
    <TTGlyph name="Abrevetilde" xMin="33" yMin="0" xMax="1346" yMax="2003">
      <contour>
        <pt x="543" y="1929" on="1"/>
        <pt x="513" y="1929" on="0"/>
        <pt x="467" y="1903" on="0"/>
        <pt x="447" y="1865" on="0"/>
        <pt x="438" y="1838" on="0"/>
        <pt x="438" y="1831" on="1"/>
        <pt x="385" y="1831" on="1"/>
        <pt x="385" y="1839" on="0"/>
        <pt x="391" y="1869" on="0"/>
        <pt x="411" y="1916" on="0"/>
        <pt x="444" y="1956" on="0"/>
        <pt x="505" y="1985" on="0"/>
        <pt x="545" y="1985" on="1"/>
        <pt x="600" y="1985" on="0"/>
        <pt x="752" y="1905" on="0"/>
        <pt x="803" y="1905" on="1"/>
        <pt x="834" y="1905" on="0"/>
        <pt x="881" y="1924" on="0"/>
        <pt x="905" y="1950" on="0"/>
        <pt x="919" y="1981" on="0"/>
        <pt x="922" y="1998" on="0"/>
        <pt x="922" y="2003" on="1"/>
        <pt x="977" y="2003" on="1"/>
        <pt x="977" y="1994" on="0"/>
        <pt x="971" y="1964" on="0"/>
        <pt x="948" y="1918" on="0"/>
        <pt x="912" y="1879" on="0"/>
        <pt x="844" y="1851" on="0"/>
        <pt x="801" y="1851" on="1"/>
        <pt x="749" y="1851" on="0"/>
        <pt x="655" y="1890" on="0"/>
        <pt x="577" y="1929" on="0"/>
      </contour>
      <contour>
        <pt x="780" y="1776" on="1"/>
        <pt x="831" y="1776" on="1"/>
        <pt x="831" y="1706" on="0"/>
        <pt x="732" y="1604" on="0"/>
        <pt x="666" y="1604" on="1"/>
        <pt x="598" y="1604" on="0"/>
        <pt x="500" y="1706" on="0"/>
        <pt x="500" y="1776" on="1"/>
        <pt x="553" y="1776" on="1"/>
        <pt x="553" y="1729" on="0"/>
        <pt x="623" y="1649" on="0"/>
        <pt x="666" y="1649" on="1"/>
        <pt x="707" y="1649" on="0"/>
        <pt x="774" y="1723" on="0"/>
      </contour>
      <contour>
        <pt x="659" y="1454" on="1"/>
        <pt x="721" y="1454" on="1"/>
        <pt x="1346" y="0" on="1"/>
        <pt x="1270" y="0" on="1"/>
        <pt x="1055" y="502" on="1"/>
        <pt x="326" y="502" on="1"/>
        <pt x="111" y="0" on="1"/>
        <pt x="33" y="0" on="1"/>
      </contour>
      <contour>
        <pt x="1032" y="563" on="1"/>
        <pt x="690" y="1364" on="1"/>
        <pt x="346" y="563" on="1"/>
      </contour>
    </TTGlyph>
    <TTGlyph name="Acircumflex" xMin="33" yMin="0" xMax="1346" yMax="1878">
      <contour>
        <pt x="471" y="1720" on="1"/>
        <pt x="664" y="1878" on="1"/>
        <pt x="717" y="1878" on="1"/>
        <pt x="911" y="1720" on="1"/>
        <pt x="864" y="1690" on="1"/>
        <pt x="690" y="1819" on="1"/>
        <pt x="516" y="1690" on="1"/>
      </contour>
      <contour>
        <pt x="659" y="1454" on="1"/>
        <pt x="721" y="1454" on="1"/>
        <pt x="1346" y="0" on="1"/>
        <pt x="1270" y="0" on="1"/>
        <pt x="1055" y="502" on="1"/>
        <pt x="326" y="502" on="1"/>
        <pt x="111" y="0" on="1"/>
        <pt x="33" y="0" on="1"/>
      </contour>
      <contour>
        <pt x="1032" y="563" on="1"/>
        <pt x="690" y="1364" on="1"/>
        <pt x="346" y="563" on="1"/>
      </contour>
    </TTGlyph>
    <TTGlyph name="Acircumflexacute" xMin="33" yMin="0" xMax="1346" yMax="1905">
      <contour>
        <pt x="903" y="1716" on="1"/>
        <pt x="854" y="1743" on="1"/>
        <pt x="981" y="1905" on="1"/>
        <pt x="1073" y="1905" on="1"/>
      </contour>
      <contour>
        <pt x="461" y="1634" on="1"/>
        <pt x="653" y="1792" on="1"/>
        <pt x="707" y="1792" on="1"/>
        <pt x="901" y="1634" on="1"/>
        <pt x="854" y="1604" on="1"/>
        <pt x="680" y="1733" on="1"/>
        <pt x="506" y="1604" on="1"/>
      </contour>
      <contour>
        <pt x="659" y="1454" on="1"/>
        <pt x="721" y="1454" on="1"/>
        <pt x="1346" y="0" on="1"/>
        <pt x="1270" y="0" on="1"/>
        <pt x="1055" y="502" on="1"/>
        <pt x="326" y="502" on="1"/>
        <pt x="111" y="0" on="1"/>
        <pt x="33" y="0" on="1"/>
      </contour>
      <contour>
        <pt x="1032" y="563" on="1"/>
        <pt x="690" y="1364" on="1"/>
        <pt x="346" y="563" on="1"/>
      </contour>
    </TTGlyph>
    <TTGlyph name="Acircumflexdotbelow" xMin="33" yMin="-285" xMax="1346" yMax="1878">
      <contour>
        <pt x="471" y="1720" on="1"/>
        <pt x="664" y="1878" on="1"/>
        <pt x="717" y="1878" on="1"/>
        <pt x="911" y="1720" on="1"/>
        <pt x="864" y="1690" on="1"/>
        <pt x="690" y="1819" on="1"/>
        <pt x="516" y="1690" on="1"/>
      </contour>
      <contour>
        <pt x="659" y="1454" on="1"/>
        <pt x="721" y="1454" on="1"/>
        <pt x="1346" y="0" on="1"/>
        <pt x="1270" y="0" on="1"/>
        <pt x="1055" y="502" on="1"/>
        <pt x="326" y="502" on="1"/>
        <pt x="111" y="0" on="1"/>
        <pt x="33" y="0" on="1"/>
      </contour>
      <contour>
        <pt x="1032" y="563" on="1"/>
        <pt x="690" y="1364" on="1"/>
        <pt x="346" y="563" on="1"/>
      </contour>
      <contour>
        <pt x="678" y="-285" on="1"/>
        <pt x="678" y="-115" on="1"/>
        <pt x="743" y="-115" on="1"/>
        <pt x="743" y="-285" on="1"/>
      </contour>
    </TTGlyph>
    <TTGlyph name="Acircumflexgrave" xMin="33" yMin="0" xMax="1346" yMax="1923">
      <contour>
        <pt x="295" y="1923" on="1"/>
        <pt x="385" y="1923" on="1"/>
        <pt x="514" y="1761" on="1"/>
        <pt x="465" y="1735" on="1"/>
      </contour>
      <contour>
        <pt x="467" y="1634" on="1"/>
        <pt x="659" y="1792" on="1"/>
        <pt x="713" y="1792" on="1"/>
        <pt x="907" y="1634" on="1"/>
        <pt x="860" y="1604" on="1"/>
        <pt x="686" y="1733" on="1"/>
        <pt x="512" y="1604" on="1"/>
      </contour>
      <contour>
        <pt x="659" y="1454" on="1"/>
        <pt x="721" y="1454" on="1"/>
        <pt x="1346" y="0" on="1"/>
        <pt x="1270" y="0" on="1"/>
        <pt x="1055" y="502" on="1"/>
        <pt x="326" y="502" on="1"/>
        <pt x="111" y="0" on="1"/>
        <pt x="33" y="0" on="1"/>
      </contour>
      <contour>
        <pt x="1032" y="563" on="1"/>
        <pt x="690" y="1364" on="1"/>
        <pt x="346" y="563" on="1"/>
      </contour>
    </TTGlyph>
    <TTGlyph name="Acircumflexhookabove" xMin="33" yMin="0" xMax="1346" yMax="1997">
      <contour>
        <pt x="760" y="1898" on="1"/>
        <pt x="725" y="1933" on="1"/>
        <pt x="761" y="1966" on="0"/>
        <pt x="823" y="1997" on="0"/>
        <pt x="862" y="1997" on="1"/>
        <pt x="918" y="1997" on="0"/>
        <pt x="985" y="1931" on="0"/>
        <pt x="985" y="1876" on="1"/>
        <pt x="985" y="1840" on="0"/>
        <pt x="945" y="1781" on="0"/>
        <pt x="897" y="1731" on="1"/>
        <pt x="866" y="1761" on="1"/>
        <pt x="934" y="1832" on="0"/>
        <pt x="934" y="1874" on="1"/>
        <pt x="934" y="1907" on="0"/>
        <pt x="895" y="1948" on="0"/>
        <pt x="856" y="1948" on="1"/>
        <pt x="830" y="1948" on="0"/>
        <pt x="792" y="1927" on="0"/>
      </contour>
      <contour>
        <pt x="459" y="1634" on="1"/>
        <pt x="651" y="1792" on="1"/>
        <pt x="705" y="1792" on="1"/>
        <pt x="899" y="1634" on="1"/>
        <pt x="852" y="1604" on="1"/>
        <pt x="678" y="1733" on="1"/>
        <pt x="504" y="1604" on="1"/>
      </contour>
      <contour>
        <pt x="659" y="1454" on="1"/>
        <pt x="721" y="1454" on="1"/>
        <pt x="1346" y="0" on="1"/>
        <pt x="1270" y="0" on="1"/>
        <pt x="1055" y="502" on="1"/>
        <pt x="326" y="502" on="1"/>
        <pt x="111" y="0" on="1"/>
        <pt x="33" y="0" on="1"/>
      </contour>
      <contour>
        <pt x="1032" y="563" on="1"/>
        <pt x="690" y="1364" on="1"/>
        <pt x="346" y="563" on="1"/>
      </contour>
    </TTGlyph>
    <TTGlyph name="Acircumflextilde" xMin="33" yMin="0" xMax="1346" yMax="1993">
      <contour>
        <pt x="561" y="1919" on="1"/>
        <pt x="531" y="1919" on="0"/>
        <pt x="486" y="1893" on="0"/>
        <pt x="466" y="1855" on="0"/>
        <pt x="457" y="1828" on="0"/>
        <pt x="457" y="1821" on="1"/>
        <pt x="403" y="1821" on="1"/>
        <pt x="403" y="1829" on="0"/>
        <pt x="409" y="1859" on="0"/>
        <pt x="429" y="1906" on="0"/>
        <pt x="462" y="1945" on="0"/>
        <pt x="523" y="1974" on="0"/>
        <pt x="563" y="1974" on="1"/>
        <pt x="618" y="1974" on="0"/>
        <pt x="770" y="1894" on="0"/>
        <pt x="821" y="1894" on="1"/>
        <pt x="852" y="1894" on="0"/>
        <pt x="899" y="1914" on="0"/>
        <pt x="923" y="1939" on="0"/>
        <pt x="937" y="1971" on="0"/>
        <pt x="940" y="1988" on="0"/>
        <pt x="940" y="1993" on="1"/>
        <pt x="995" y="1993" on="1"/>
        <pt x="995" y="1984" on="0"/>
        <pt x="989" y="1954" on="0"/>
        <pt x="966" y="1908" on="0"/>
        <pt x="930" y="1869" on="0"/>
        <pt x="862" y="1841" on="0"/>
        <pt x="819" y="1841" on="1"/>
        <pt x="767" y="1841" on="0"/>
        <pt x="673" y="1880" on="0"/>
        <pt x="595" y="1919" on="0"/>
      </contour>
      <contour>
        <pt x="459" y="1634" on="1"/>
        <pt x="651" y="1792" on="1"/>
        <pt x="705" y="1792" on="1"/>
        <pt x="899" y="1634" on="1"/>
        <pt x="852" y="1604" on="1"/>
        <pt x="678" y="1733" on="1"/>
        <pt x="504" y="1604" on="1"/>
      </contour>
      <contour>
        <pt x="659" y="1454" on="1"/>
        <pt x="721" y="1454" on="1"/>
        <pt x="1346" y="0" on="1"/>
        <pt x="1270" y="0" on="1"/>
        <pt x="1055" y="502" on="1"/>
        <pt x="326" y="502" on="1"/>
        <pt x="111" y="0" on="1"/>
        <pt x="33" y="0" on="1"/>
      </contour>
      <contour>
        <pt x="1032" y="563" on="1"/>
        <pt x="690" y="1364" on="1"/>
        <pt x="346" y="563" on="1"/>
      </contour>
    </TTGlyph>
    <TTGlyph name="Acyrillic" xMin="33" yMin="0" xMax="1346" yMax="1454">
      <contour>
        <pt x="659" y="1454" on="1"/>
        <pt x="721" y="1454" on="1"/>
        <pt x="1346" y="0" on="1"/>
        <pt x="1270" y="0" on="1"/>
        <pt x="1055" y="502" on="1"/>
        <pt x="326" y="502" on="1"/>
        <pt x="111" y="0" on="1"/>
        <pt x="33" y="0" on="1"/>
      </contour>
      <contour>
        <pt x="1032" y="563" on="1"/>
        <pt x="690" y="1364" on="1"/>
        <pt x="346" y="563" on="1"/>
      </contour>
    </TTGlyph>
    <TTGlyph name="Adblgrave" xMin="33" yMin="0" xMax="1346" yMax="1880">
      <contour>
        <pt x="410" y="1880" on="1"/>
        <pt x="498" y="1880" on="1"/>
        <pt x="625" y="1718" on="1"/>
        <pt x="580" y="1692" on="1"/>
      </contour>
      <contour>
        <pt x="631" y="1880" on="1"/>
        <pt x="717" y="1880" on="1"/>
        <pt x="844" y="1718" on="1"/>
        <pt x="799" y="1692" on="1"/>
      </contour>
      <contour>
        <pt x="659" y="1454" on="1"/>
        <pt x="721" y="1454" on="1"/>
        <pt x="1346" y="0" on="1"/>
        <pt x="1270" y="0" on="1"/>
        <pt x="1055" y="502" on="1"/>
        <pt x="326" y="502" on="1"/>
        <pt x="111" y="0" on="1"/>
        <pt x="33" y="0" on="1"/>
      </contour>
      <contour>
        <pt x="1032" y="563" on="1"/>
        <pt x="690" y="1364" on="1"/>
        <pt x="346" y="563" on="1"/>
      </contour>
    </TTGlyph>
    <TTGlyph name="Adieresis" xMin="33" yMin="0" xMax="1346" yMax="1878">
      <contour>
        <pt x="528" y="1710" on="1"/>
        <pt x="528" y="1878" on="1"/>
        <pt x="592" y="1878" on="1"/>
        <pt x="592" y="1710" on="1"/>
      </contour>
      <contour>
        <pt x="786" y="1710" on="1"/>
        <pt x="786" y="1878" on="1"/>
        <pt x="850" y="1878" on="1"/>
        <pt x="850" y="1710" on="1"/>
      </contour>
      <contour>
        <pt x="659" y="1454" on="1"/>
        <pt x="721" y="1454" on="1"/>
        <pt x="1346" y="0" on="1"/>
        <pt x="1270" y="0" on="1"/>
        <pt x="1055" y="502" on="1"/>
        <pt x="326" y="502" on="1"/>
        <pt x="111" y="0" on="1"/>
        <pt x="33" y="0" on="1"/>
      </contour>
      <contour>
        <pt x="1032" y="563" on="1"/>
        <pt x="690" y="1364" on="1"/>
        <pt x="346" y="563" on="1"/>
      </contour>
    </TTGlyph>
    <TTGlyph name="Adieresiscyrillic" xMin="33" yMin="0" xMax="1346" yMax="1884">
      <contour>
        <pt x="528" y="1716" on="1"/>
        <pt x="528" y="1884" on="1"/>
        <pt x="592" y="1884" on="1"/>
        <pt x="592" y="1716" on="1"/>
      </contour>
      <contour>
        <pt x="786" y="1716" on="1"/>
        <pt x="786" y="1884" on="1"/>
        <pt x="850" y="1884" on="1"/>
        <pt x="850" y="1716" on="1"/>
      </contour>
      <contour>
        <pt x="659" y="1454" on="1"/>
        <pt x="721" y="1454" on="1"/>
        <pt x="1346" y="0" on="1"/>
        <pt x="1270" y="0" on="1"/>
        <pt x="1055" y="502" on="1"/>
        <pt x="326" y="502" on="1"/>
        <pt x="111" y="0" on="1"/>
        <pt x="33" y="0" on="1"/>
      </contour>
      <contour>
        <pt x="1032" y="563" on="1"/>
        <pt x="690" y="1364" on="1"/>
        <pt x="346" y="563" on="1"/>
      </contour>
    </TTGlyph>
    <TTGlyph name="Adotbelow" xMin="33" yMin="-285" xMax="1346" yMax="1454">
      <contour>
        <pt x="659" y="1454" on="1"/>
        <pt x="721" y="1454" on="1"/>
        <pt x="1346" y="0" on="1"/>
        <pt x="1270" y="0" on="1"/>
        <pt x="1055" y="502" on="1"/>
        <pt x="326" y="502" on="1"/>
        <pt x="111" y="0" on="1"/>
        <pt x="33" y="0" on="1"/>
      </contour>
      <contour>
        <pt x="1032" y="563" on="1"/>
        <pt x="690" y="1364" on="1"/>
        <pt x="346" y="563" on="1"/>
      </contour>
      <contour>
        <pt x="678" y="-285" on="1"/>
        <pt x="678" y="-115" on="1"/>
        <pt x="743" y="-115" on="1"/>
        <pt x="743" y="-285" on="1"/>
      </contour>
    </TTGlyph>
    <TTGlyph name="Agrave" xMin="33" yMin="0" xMax="1346" yMax="1880">
      <contour>
        <pt x="537" y="1880" on="1"/>
        <pt x="627" y="1880" on="1"/>
        <pt x="756" y="1718" on="1"/>
        <pt x="707" y="1692" on="1"/>
      </contour>
      <contour>
        <pt x="659" y="1454" on="1"/>
        <pt x="721" y="1454" on="1"/>
        <pt x="1346" y="0" on="1"/>
        <pt x="1270" y="0" on="1"/>
        <pt x="1055" y="502" on="1"/>
        <pt x="326" y="502" on="1"/>
        <pt x="111" y="0" on="1"/>
        <pt x="33" y="0" on="1"/>
      </contour>
      <contour>
        <pt x="1032" y="563" on="1"/>
        <pt x="690" y="1364" on="1"/>
        <pt x="346" y="563" on="1"/>
      </contour>
    </TTGlyph>
    <TTGlyph name="Ahookabove" xMin="33" yMin="0" xMax="1346" yMax="1884">
      <contour>
        <pt x="594" y="1786" on="1"/>
        <pt x="559" y="1821" on="1"/>
        <pt x="595" y="1854" on="0"/>
        <pt x="657" y="1884" on="0"/>
        <pt x="696" y="1884" on="1"/>
        <pt x="752" y="1884" on="0"/>
        <pt x="819" y="1818" on="0"/>
        <pt x="819" y="1763" on="1"/>
        <pt x="819" y="1727" on="0"/>
        <pt x="779" y="1668" on="0"/>
        <pt x="731" y="1618" on="1"/>
        <pt x="700" y="1649" on="1"/>
        <pt x="768" y="1720" on="0"/>
        <pt x="768" y="1761" on="1"/>
        <pt x="768" y="1794" on="0"/>
        <pt x="729" y="1835" on="0"/>
        <pt x="690" y="1835" on="1"/>
        <pt x="664" y="1835" on="0"/>
        <pt x="625" y="1814" on="0"/>
      </contour>
      <contour>
        <pt x="659" y="1454" on="1"/>
        <pt x="721" y="1454" on="1"/>
        <pt x="1346" y="0" on="1"/>
        <pt x="1270" y="0" on="1"/>
        <pt x="1055" y="502" on="1"/>
        <pt x="326" y="502" on="1"/>
        <pt x="111" y="0" on="1"/>
        <pt x="33" y="0" on="1"/>
      </contour>
      <contour>
        <pt x="1032" y="563" on="1"/>
        <pt x="690" y="1364" on="1"/>
        <pt x="346" y="563" on="1"/>
      </contour>
    </TTGlyph>
    <TTGlyph name="Aiecyrillic" xMin="-57" yMin="0" xMax="1870" yMax="1454">
      <contour>
        <pt x="895" y="1454" on="1"/>
        <pt x="1851" y="1454" on="1"/>
        <pt x="1851" y="1389" on="1"/>
        <pt x="983" y="1389" on="1"/>
        <pt x="983" y="776" on="1"/>
        <pt x="1741" y="776" on="1"/>
        <pt x="1741" y="711" on="1"/>
        <pt x="983" y="711" on="1"/>
        <pt x="983" y="66" on="1"/>
        <pt x="1870" y="66" on="1"/>
        <pt x="1870" y="0" on="1"/>
        <pt x="913" y="0" on="1"/>
        <pt x="913" y="502" on="1"/>
        <pt x="350" y="502" on="1"/>
        <pt x="25" y="0" on="1"/>
        <pt x="-57" y="0" on="1"/>
      </contour>
      <contour>
        <pt x="909" y="567" on="1"/>
        <pt x="909" y="1358" on="1"/>
        <pt x="387" y="567" on="1"/>
      </contour>
    </TTGlyph>
    <TTGlyph name="Ainvertedbreve" xMin="33" yMin="0" xMax="1346" yMax="1878">
      <contour>
        <pt x="578" y="1706" on="1"/>
        <pt x="524" y="1706" on="1"/>
        <pt x="524" y="1776" on="0"/>
        <pt x="622" y="1878" on="0"/>
        <pt x="690" y="1878" on="1"/>
        <pt x="756" y="1878" on="0"/>
        <pt x="856" y="1776" on="0"/>
        <pt x="856" y="1706" on="1"/>
        <pt x="805" y="1706" on="1"/>
        <pt x="799" y="1758" on="0"/>
        <pt x="731" y="1833" on="0"/>
        <pt x="690" y="1833" on="1"/>
        <pt x="647" y="1833" on="0"/>
        <pt x="578" y="1754" on="0"/>
      </contour>
      <contour>
        <pt x="659" y="1454" on="1"/>
        <pt x="721" y="1454" on="1"/>
        <pt x="1346" y="0" on="1"/>
        <pt x="1270" y="0" on="1"/>
        <pt x="1055" y="502" on="1"/>
        <pt x="326" y="502" on="1"/>
        <pt x="111" y="0" on="1"/>
        <pt x="33" y="0" on="1"/>
      </contour>
      <contour>
        <pt x="1032" y="563" on="1"/>
        <pt x="690" y="1364" on="1"/>
        <pt x="346" y="563" on="1"/>
      </contour>
    </TTGlyph>
    <TTGlyph name="Amacron" xMin="33" yMin="0" xMax="1346" yMax="1831">
      <contour>
        <pt x="401" y="1774" on="1"/>
        <pt x="401" y="1831" on="1"/>
        <pt x="981" y="1831" on="1"/>
        <pt x="981" y="1774" on="1"/>
      </contour>
      <contour>
        <pt x="659" y="1454" on="1"/>
        <pt x="721" y="1454" on="1"/>
        <pt x="1346" y="0" on="1"/>
        <pt x="1270" y="0" on="1"/>
        <pt x="1055" y="502" on="1"/>
        <pt x="326" y="502" on="1"/>
        <pt x="111" y="0" on="1"/>
        <pt x="33" y="0" on="1"/>
      </contour>
      <contour>
        <pt x="1032" y="563" on="1"/>
        <pt x="690" y="1364" on="1"/>
        <pt x="346" y="563" on="1"/>
      </contour>
    </TTGlyph>
    <TTGlyph name="Aogonek" xMin="33" yMin="-346" xMax="1346" yMax="1454">
      <contour>
        <pt x="1188" y="-199" on="1"/>
        <pt x="1188" y="-237" on="0"/>
        <pt x="1256" y="-280" on="0"/>
        <pt x="1337" y="-295" on="1"/>
        <pt x="1311" y="-346" on="1"/>
        <pt x="1128" y="-319" on="0"/>
        <pt x="1128" y="-207" on="1"/>
        <pt x="1128" y="-112" on="0"/>
        <pt x="1270" y="0" on="1"/>
        <pt x="1055" y="502" on="1"/>
        <pt x="326" y="502" on="1"/>
        <pt x="111" y="0" on="1"/>
        <pt x="33" y="0" on="1"/>
        <pt x="659" y="1454" on="1"/>
        <pt x="721" y="1454" on="1"/>
        <pt x="1346" y="0" on="1"/>
        <pt x="1261" y="-65" on="0"/>
        <pt x="1188" y="-156" on="0"/>
      </contour>
      <contour>
        <pt x="346" y="563" on="1"/>
        <pt x="1032" y="563" on="1"/>
        <pt x="690" y="1364" on="1"/>
      </contour>
    </TTGlyph>
    <TTGlyph name="Aring" xMin="33" yMin="0" xMax="1346" yMax="1929">
      <contour>
        <pt x="690" y="1929" on="1"/>
        <pt x="759" y="1929" on="0"/>
        <pt x="854" y="1839" on="0"/>
        <pt x="854" y="1705" on="0"/>
        <pt x="759" y="1612" on="0"/>
        <pt x="690" y="1612" on="1"/>
        <pt x="622" y="1612" on="0"/>
        <pt x="528" y="1705" on="0"/>
        <pt x="528" y="1839" on="0"/>
        <pt x="622" y="1929" on="0"/>
      </contour>
      <contour>
        <pt x="584" y="1772" on="1"/>
        <pt x="584" y="1726" on="0"/>
        <pt x="646" y="1663" on="0"/>
        <pt x="690" y="1663" on="1"/>
        <pt x="732" y="1663" on="0"/>
        <pt x="799" y="1726" on="0"/>
        <pt x="799" y="1772" on="1"/>
        <pt x="799" y="1820" on="0"/>
        <pt x="736" y="1878" on="0"/>
        <pt x="690" y="1878" on="1"/>
        <pt x="646" y="1878" on="0"/>
        <pt x="584" y="1820" on="0"/>
      </contour>
      <contour>
        <pt x="659" y="1454" on="1"/>
        <pt x="721" y="1454" on="1"/>
        <pt x="1346" y="0" on="1"/>
        <pt x="1270" y="0" on="1"/>
        <pt x="1055" y="502" on="1"/>
        <pt x="326" y="502" on="1"/>
        <pt x="111" y="0" on="1"/>
        <pt x="33" y="0" on="1"/>
      </contour>
      <contour>
        <pt x="1032" y="563" on="1"/>
        <pt x="690" y="1364" on="1"/>
        <pt x="346" y="563" on="1"/>
      </contour>
    </TTGlyph>
    <TTGlyph name="Aringacute" xMin="33" yMin="0" xMax="1346" yMax="1905">
      <contour>
        <pt x="725" y="1444" on="1"/>
        <pt x="1346" y="0" on="1"/>
        <pt x="1270" y="0" on="1"/>
        <pt x="1055" y="502" on="1"/>
        <pt x="326" y="502" on="1"/>
        <pt x="111" y="0" on="1"/>
        <pt x="33" y="0" on="1"/>
        <pt x="655" y="1444" on="1"/>
        <pt x="599" y="1455" on="0"/>
        <pt x="528" y="1541" on="0"/>
        <pt x="528" y="1599" on="1"/>
        <pt x="528" y="1666" on="0"/>
        <pt x="622" y="1757" on="0"/>
        <pt x="690" y="1757" on="1"/>
        <pt x="807" y="1905" on="1"/>
        <pt x="899" y="1905" on="1"/>
        <pt x="754" y="1745" on="1"/>
        <pt x="799" y="1727" on="0"/>
        <pt x="854" y="1649" on="0"/>
        <pt x="854" y="1599" on="1"/>
        <pt x="854" y="1541" on="0"/>
        <pt x="782" y="1455" on="0"/>
      </contour>
      <contour>
        <pt x="584" y="1599" on="1"/>
        <pt x="584" y="1553" on="0"/>
        <pt x="646" y="1491" on="0"/>
        <pt x="690" y="1491" on="1"/>
        <pt x="732" y="1491" on="0"/>
        <pt x="799" y="1553" on="0"/>
        <pt x="799" y="1599" on="1"/>
        <pt x="799" y="1647" on="0"/>
        <pt x="736" y="1706" on="0"/>
        <pt x="690" y="1706" on="1"/>
        <pt x="646" y="1706" on="0"/>
        <pt x="584" y="1647" on="0"/>
      </contour>
      <contour>
        <pt x="346" y="563" on="1"/>
        <pt x="1032" y="563" on="1"/>
        <pt x="690" y="1364" on="1"/>
      </contour>
    </TTGlyph>
    <TTGlyph name="Atilde" xMin="33" yMin="0" xMax="1346" yMax="1878">
      <contour>
        <pt x="551" y="1804" on="1"/>
        <pt x="521" y="1804" on="0"/>
        <pt x="475" y="1778" on="0"/>
        <pt x="455" y="1740" on="0"/>
        <pt x="446" y="1713" on="0"/>
        <pt x="446" y="1706" on="1"/>
        <pt x="393" y="1706" on="1"/>
        <pt x="393" y="1714" on="0"/>
        <pt x="399" y="1744" on="0"/>
        <pt x="419" y="1791" on="0"/>
        <pt x="452" y="1831" on="0"/>
        <pt x="513" y="1860" on="0"/>
        <pt x="553" y="1860" on="1"/>
        <pt x="608" y="1860" on="0"/>
        <pt x="760" y="1780" on="0"/>
        <pt x="811" y="1780" on="1"/>
        <pt x="842" y="1780" on="0"/>
        <pt x="889" y="1799" on="0"/>
        <pt x="913" y="1825" on="0"/>
        <pt x="927" y="1856" on="0"/>
        <pt x="930" y="1873" on="0"/>
        <pt x="930" y="1878" on="1"/>
        <pt x="985" y="1878" on="1"/>
        <pt x="985" y="1869" on="0"/>
        <pt x="979" y="1839" on="0"/>
        <pt x="956" y="1793" on="0"/>
        <pt x="920" y="1754" on="0"/>
        <pt x="852" y="1726" on="0"/>
        <pt x="809" y="1726" on="1"/>
        <pt x="757" y="1726" on="0"/>
        <pt x="663" y="1765" on="0"/>
        <pt x="585" y="1804" on="0"/>
      </contour>
      <contour>
        <pt x="659" y="1454" on="1"/>
        <pt x="721" y="1454" on="1"/>
        <pt x="1346" y="0" on="1"/>
        <pt x="1270" y="0" on="1"/>
        <pt x="1055" y="502" on="1"/>
        <pt x="326" y="502" on="1"/>
        <pt x="111" y="0" on="1"/>
        <pt x="33" y="0" on="1"/>
      </contour>
      <contour>
        <pt x="1032" y="563" on="1"/>
        <pt x="690" y="1364" on="1"/>
        <pt x="346" y="563" on="1"/>
      </contour>
    </TTGlyph>
    <TTGlyph name="B" xMin="197" yMin="0" xMax="1249" yMax="1454">
      <contour>
        <pt x="874" y="0" on="1"/>
        <pt x="197" y="0" on="1"/>
        <pt x="197" y="1454" on="1"/>
        <pt x="856" y="1454" on="1"/>
        <pt x="954" y="1454" on="0"/>
        <pt x="1110" y="1343" on="0"/>
        <pt x="1188" y="1176" on="0"/>
        <pt x="1188" y="1083" on="1"/>
        <pt x="1188" y="972" on="0"/>
        <pt x="1075" y="787" on="0"/>
        <pt x="979" y="745" on="1"/>
        <pt x="1102" y="709" on="0"/>
        <pt x="1249" y="505" on="0"/>
        <pt x="1249" y="377" on="1"/>
        <pt x="1249" y="222" on="0"/>
        <pt x="1028" y="0" on="0"/>
      </contour>
      <contour>
        <pt x="268" y="1389" on="1"/>
        <pt x="268" y="766" on="1"/>
        <pt x="831" y="766" on="1"/>
        <pt x="953" y="766" on="0"/>
        <pt x="1118" y="955" on="0"/>
        <pt x="1118" y="1077" on="1"/>
        <pt x="1118" y="1205" on="0"/>
        <pt x="963" y="1389" on="0"/>
        <pt x="844" y="1389" on="1"/>
      </contour>
      <contour>
        <pt x="889" y="702" on="1"/>
        <pt x="268" y="702" on="1"/>
        <pt x="268" y="66" on="1"/>
        <pt x="874" y="66" on="1"/>
        <pt x="999" y="66" on="0"/>
        <pt x="1180" y="260" on="0"/>
        <pt x="1180" y="383" on="1"/>
        <pt x="1180" y="510" on="0"/>
        <pt x="1011" y="702" on="0"/>
      </contour>
    </TTGlyph>
    <TTGlyph name="C" xMin="94" yMin="-12" xMax="1348" yMax="1462">
      <contour>
        <pt x="782" y="1462" on="1"/>
        <pt x="969" y="1462" on="0"/>
        <pt x="1246" y="1289" on="0"/>
        <pt x="1315" y="1145" on="1"/>
        <pt x="1253" y="1116" on="1"/>
        <pt x="1215" y="1191" on="0"/>
        <pt x="1104" y="1302" on="0"/>
        <pt x="976" y="1365" on="0"/>
        <pt x="844" y="1395" on="0"/>
        <pt x="774" y="1395" on="1"/>
        <pt x="661" y="1395" on="0"/>
        <pt x="463" y="1319" on="0"/>
        <pt x="320" y="1190" on="0"/>
        <pt x="217" y="1020" on="0"/>
        <pt x="166" y="829" on="0"/>
        <pt x="166" y="731" on="1"/>
        <pt x="166" y="555" on="0"/>
        <pt x="328" y="244" on="0"/>
        <pt x="612" y="55" on="0"/>
        <pt x="780" y="55" on="1"/>
        <pt x="876" y="55" on="0"/>
        <pt x="1061" y="115" on="0"/>
        <pt x="1233" y="252" on="0"/>
        <pt x="1284" y="350" on="1"/>
        <pt x="1348" y="326" on="1"/>
        <pt x="1301" y="221" on="0"/>
        <pt x="1109" y="64" on="0"/>
        <pt x="885" y="-12" on="0"/>
        <pt x="772" y="-12" on="1"/>
        <pt x="628" y="-12" on="0"/>
        <pt x="371" y="118" on="0"/>
        <pt x="196" y="330" on="0"/>
        <pt x="94" y="599" on="0"/>
        <pt x="94" y="737" on="1"/>
        <pt x="94" y="842" on="0"/>
        <pt x="152" y="1050" on="0"/>
        <pt x="270" y="1236" on="0"/>
        <pt x="432" y="1378" on="0"/>
        <pt x="655" y="1462" on="0"/>
      </contour>
    </TTGlyph>
    <TTGlyph name="Cacute" xMin="94" yMin="-12" xMax="1348" yMax="1878">
      <contour>
        <pt x="801" y="1690" on="1"/>
        <pt x="752" y="1716" on="1"/>
        <pt x="879" y="1878" on="1"/>
        <pt x="971" y="1878" on="1"/>
      </contour>
      <contour>
        <pt x="782" y="1462" on="1"/>
        <pt x="969" y="1462" on="0"/>
        <pt x="1246" y="1289" on="0"/>
        <pt x="1315" y="1145" on="1"/>
        <pt x="1253" y="1116" on="1"/>
        <pt x="1215" y="1191" on="0"/>
        <pt x="1104" y="1302" on="0"/>
        <pt x="976" y="1365" on="0"/>
        <pt x="844" y="1395" on="0"/>
        <pt x="774" y="1395" on="1"/>
        <pt x="661" y="1395" on="0"/>
        <pt x="463" y="1319" on="0"/>
        <pt x="320" y="1190" on="0"/>
        <pt x="217" y="1020" on="0"/>
        <pt x="166" y="829" on="0"/>
        <pt x="166" y="731" on="1"/>
        <pt x="166" y="555" on="0"/>
        <pt x="328" y="244" on="0"/>
        <pt x="612" y="55" on="0"/>
        <pt x="780" y="55" on="1"/>
        <pt x="876" y="55" on="0"/>
        <pt x="1061" y="115" on="0"/>
        <pt x="1233" y="252" on="0"/>
        <pt x="1284" y="350" on="1"/>
        <pt x="1348" y="326" on="1"/>
        <pt x="1301" y="221" on="0"/>
        <pt x="1109" y="64" on="0"/>
        <pt x="885" y="-12" on="0"/>
        <pt x="772" y="-12" on="1"/>
        <pt x="628" y="-12" on="0"/>
        <pt x="371" y="118" on="0"/>
        <pt x="196" y="330" on="0"/>
        <pt x="94" y="599" on="0"/>
        <pt x="94" y="737" on="1"/>
        <pt x="94" y="842" on="0"/>
        <pt x="152" y="1050" on="0"/>
        <pt x="270" y="1236" on="0"/>
        <pt x="432" y="1378" on="0"/>
        <pt x="655" y="1462" on="0"/>
      </contour>
    </TTGlyph>
    <TTGlyph name="Ccaron" xMin="94" yMin="-12" xMax="1348" yMax="1878">
      <contour>
        <pt x="604" y="1878" on="1"/>
        <pt x="778" y="1749" on="1"/>
        <pt x="952" y="1878" on="1"/>
        <pt x="999" y="1849" on="1"/>
        <pt x="805" y="1690" on="1"/>
        <pt x="752" y="1690" on="1"/>
        <pt x="559" y="1849" on="1"/>
      </contour>
      <contour>
        <pt x="782" y="1462" on="1"/>
        <pt x="969" y="1462" on="0"/>
        <pt x="1246" y="1289" on="0"/>
        <pt x="1315" y="1145" on="1"/>
        <pt x="1253" y="1116" on="1"/>
        <pt x="1215" y="1191" on="0"/>
        <pt x="1104" y="1302" on="0"/>
        <pt x="976" y="1365" on="0"/>
        <pt x="844" y="1395" on="0"/>
        <pt x="774" y="1395" on="1"/>
        <pt x="661" y="1395" on="0"/>
        <pt x="463" y="1319" on="0"/>
        <pt x="320" y="1190" on="0"/>
        <pt x="217" y="1020" on="0"/>
        <pt x="166" y="829" on="0"/>
        <pt x="166" y="731" on="1"/>
        <pt x="166" y="555" on="0"/>
        <pt x="328" y="244" on="0"/>
        <pt x="612" y="55" on="0"/>
        <pt x="780" y="55" on="1"/>
        <pt x="876" y="55" on="0"/>
        <pt x="1061" y="115" on="0"/>
        <pt x="1233" y="252" on="0"/>
        <pt x="1284" y="350" on="1"/>
        <pt x="1348" y="326" on="1"/>
        <pt x="1301" y="221" on="0"/>
        <pt x="1109" y="64" on="0"/>
        <pt x="885" y="-12" on="0"/>
        <pt x="772" y="-12" on="1"/>
        <pt x="628" y="-12" on="0"/>
        <pt x="371" y="118" on="0"/>
        <pt x="196" y="330" on="0"/>
        <pt x="94" y="599" on="0"/>
        <pt x="94" y="737" on="1"/>
        <pt x="94" y="842" on="0"/>
        <pt x="152" y="1050" on="0"/>
        <pt x="270" y="1236" on="0"/>
        <pt x="432" y="1378" on="0"/>
        <pt x="655" y="1462" on="0"/>
      </contour>
    </TTGlyph>
    <TTGlyph name="Ccedilla" xMin="94" yMin="-346" xMax="1348" yMax="1462">
      <contour>
        <pt x="1348" y="326" on="1"/>
        <pt x="1285" y="186" on="0"/>
        <pt x="1005" y="10" on="0"/>
        <pt x="844" y="-8" on="1"/>
        <pt x="958" y="-82" on="0"/>
        <pt x="958" y="-186" on="1"/>
        <pt x="958" y="-265" on="0"/>
        <pt x="849" y="-346" on="0"/>
        <pt x="756" y="-346" on="1"/>
        <pt x="634" y="-346" on="0"/>
        <pt x="528" y="-293" on="1"/>
        <pt x="555" y="-244" on="1"/>
        <pt x="661" y="-293" on="0"/>
        <pt x="743" y="-293" on="1"/>
        <pt x="901" y="-293" on="0"/>
        <pt x="901" y="-180" on="1"/>
        <pt x="901" y="-129" on="0"/>
        <pt x="838" y="-52" on="0"/>
        <pt x="770" y="-12" on="1"/>
        <pt x="626" y="-11" on="0"/>
        <pt x="370" y="119" on="0"/>
        <pt x="195" y="330" on="0"/>
        <pt x="94" y="599" on="0"/>
        <pt x="94" y="737" on="1"/>
        <pt x="94" y="842" on="0"/>
        <pt x="152" y="1050" on="0"/>
        <pt x="270" y="1236" on="0"/>
        <pt x="432" y="1378" on="0"/>
        <pt x="655" y="1462" on="0"/>
        <pt x="782" y="1462" on="1"/>
        <pt x="969" y="1462" on="0"/>
        <pt x="1246" y="1289" on="0"/>
        <pt x="1315" y="1145" on="1"/>
        <pt x="1253" y="1116" on="1"/>
        <pt x="1215" y="1191" on="0"/>
        <pt x="1104" y="1302" on="0"/>
        <pt x="976" y="1365" on="0"/>
        <pt x="844" y="1395" on="0"/>
        <pt x="774" y="1395" on="1"/>
        <pt x="661" y="1395" on="0"/>
        <pt x="463" y="1319" on="0"/>
        <pt x="320" y="1190" on="0"/>
        <pt x="217" y="1020" on="0"/>
        <pt x="166" y="829" on="0"/>
        <pt x="166" y="731" on="1"/>
        <pt x="166" y="555" on="0"/>
        <pt x="328" y="244" on="0"/>
        <pt x="612" y="55" on="0"/>
        <pt x="780" y="55" on="1"/>
        <pt x="876" y="55" on="0"/>
        <pt x="1061" y="115" on="0"/>
        <pt x="1233" y="252" on="0"/>
        <pt x="1284" y="350" on="1"/>
      </contour>
    </TTGlyph>
    <TTGlyph name="Ccedillaacute" xMin="94" yMin="-346" xMax="1348" yMax="1878">
      <contour>
        <pt x="971" y="1878" on="1"/>
        <pt x="801" y="1690" on="1"/>
        <pt x="752" y="1716" on="1"/>
        <pt x="879" y="1878" on="1"/>
      </contour>
      <contour>
        <pt x="1348" y="326" on="1"/>
        <pt x="1285" y="186" on="0"/>
        <pt x="1005" y="10" on="0"/>
        <pt x="844" y="-8" on="1"/>
        <pt x="958" y="-82" on="0"/>
        <pt x="958" y="-186" on="1"/>
        <pt x="958" y="-265" on="0"/>
        <pt x="849" y="-346" on="0"/>
        <pt x="756" y="-346" on="1"/>
        <pt x="634" y="-346" on="0"/>
        <pt x="528" y="-293" on="1"/>
        <pt x="555" y="-244" on="1"/>
        <pt x="661" y="-293" on="0"/>
        <pt x="743" y="-293" on="1"/>
        <pt x="901" y="-293" on="0"/>
        <pt x="901" y="-180" on="1"/>
        <pt x="901" y="-129" on="0"/>
        <pt x="838" y="-52" on="0"/>
        <pt x="770" y="-12" on="1"/>
        <pt x="626" y="-11" on="0"/>
        <pt x="370" y="119" on="0"/>
        <pt x="195" y="330" on="0"/>
        <pt x="94" y="599" on="0"/>
        <pt x="94" y="737" on="1"/>
        <pt x="94" y="842" on="0"/>
        <pt x="152" y="1050" on="0"/>
        <pt x="270" y="1236" on="0"/>
        <pt x="432" y="1378" on="0"/>
        <pt x="655" y="1462" on="0"/>
        <pt x="782" y="1462" on="1"/>
        <pt x="969" y="1462" on="0"/>
        <pt x="1246" y="1289" on="0"/>
        <pt x="1315" y="1145" on="1"/>
        <pt x="1253" y="1116" on="1"/>
        <pt x="1215" y="1191" on="0"/>
        <pt x="1104" y="1302" on="0"/>
        <pt x="976" y="1365" on="0"/>
        <pt x="844" y="1395" on="0"/>
        <pt x="774" y="1395" on="1"/>
        <pt x="661" y="1395" on="0"/>
        <pt x="463" y="1319" on="0"/>
        <pt x="320" y="1190" on="0"/>
        <pt x="217" y="1020" on="0"/>
        <pt x="166" y="829" on="0"/>
        <pt x="166" y="731" on="1"/>
        <pt x="166" y="555" on="0"/>
        <pt x="328" y="244" on="0"/>
        <pt x="612" y="55" on="0"/>
        <pt x="780" y="55" on="1"/>
        <pt x="876" y="55" on="0"/>
        <pt x="1061" y="115" on="0"/>
        <pt x="1233" y="252" on="0"/>
        <pt x="1284" y="350" on="1"/>
      </contour>
    </TTGlyph>
    <TTGlyph name="Ccircumflex" xMin="94" yMin="-12" xMax="1348" yMax="1878">
      <contour>
        <pt x="559" y="1720" on="1"/>
        <pt x="752" y="1878" on="1"/>
        <pt x="805" y="1878" on="1"/>
        <pt x="999" y="1720" on="1"/>
        <pt x="952" y="1690" on="1"/>
        <pt x="778" y="1819" on="1"/>
        <pt x="604" y="1690" on="1"/>
      </contour>
      <contour>
        <pt x="782" y="1462" on="1"/>
        <pt x="969" y="1462" on="0"/>
        <pt x="1246" y="1289" on="0"/>
        <pt x="1315" y="1145" on="1"/>
        <pt x="1253" y="1116" on="1"/>
        <pt x="1215" y="1191" on="0"/>
        <pt x="1104" y="1302" on="0"/>
        <pt x="976" y="1365" on="0"/>
        <pt x="844" y="1395" on="0"/>
        <pt x="774" y="1395" on="1"/>
        <pt x="661" y="1395" on="0"/>
        <pt x="463" y="1319" on="0"/>
        <pt x="320" y="1190" on="0"/>
        <pt x="217" y="1020" on="0"/>
        <pt x="166" y="829" on="0"/>
        <pt x="166" y="731" on="1"/>
        <pt x="166" y="555" on="0"/>
        <pt x="328" y="244" on="0"/>
        <pt x="612" y="55" on="0"/>
        <pt x="780" y="55" on="1"/>
        <pt x="876" y="55" on="0"/>
        <pt x="1061" y="115" on="0"/>
        <pt x="1233" y="252" on="0"/>
        <pt x="1284" y="350" on="1"/>
        <pt x="1348" y="326" on="1"/>
        <pt x="1301" y="221" on="0"/>
        <pt x="1109" y="64" on="0"/>
        <pt x="885" y="-12" on="0"/>
        <pt x="772" y="-12" on="1"/>
        <pt x="628" y="-12" on="0"/>
        <pt x="371" y="118" on="0"/>
        <pt x="196" y="330" on="0"/>
        <pt x="94" y="599" on="0"/>
        <pt x="94" y="737" on="1"/>
        <pt x="94" y="842" on="0"/>
        <pt x="152" y="1050" on="0"/>
        <pt x="270" y="1236" on="0"/>
        <pt x="432" y="1378" on="0"/>
        <pt x="655" y="1462" on="0"/>
      </contour>
    </TTGlyph>
    <TTGlyph name="Cdot" xMin="94" yMin="-12" xMax="1348" yMax="1878">
      <contour>
        <pt x="745" y="1708" on="1"/>
        <pt x="745" y="1878" on="1"/>
        <pt x="811" y="1878" on="1"/>
        <pt x="811" y="1708" on="1"/>
      </contour>
      <contour>
        <pt x="782" y="1462" on="1"/>
        <pt x="969" y="1462" on="0"/>
        <pt x="1246" y="1289" on="0"/>
        <pt x="1315" y="1145" on="1"/>
        <pt x="1253" y="1116" on="1"/>
        <pt x="1215" y="1191" on="0"/>
        <pt x="1104" y="1302" on="0"/>
        <pt x="976" y="1365" on="0"/>
        <pt x="844" y="1395" on="0"/>
        <pt x="774" y="1395" on="1"/>
        <pt x="661" y="1395" on="0"/>
        <pt x="463" y="1319" on="0"/>
        <pt x="320" y="1190" on="0"/>
        <pt x="217" y="1020" on="0"/>
        <pt x="166" y="829" on="0"/>
        <pt x="166" y="731" on="1"/>
        <pt x="166" y="555" on="0"/>
        <pt x="328" y="244" on="0"/>
        <pt x="612" y="55" on="0"/>
        <pt x="780" y="55" on="1"/>
        <pt x="876" y="55" on="0"/>
        <pt x="1061" y="115" on="0"/>
        <pt x="1233" y="252" on="0"/>
        <pt x="1284" y="350" on="1"/>
        <pt x="1348" y="326" on="1"/>
        <pt x="1301" y="221" on="0"/>
        <pt x="1109" y="64" on="0"/>
        <pt x="885" y="-12" on="0"/>
        <pt x="772" y="-12" on="1"/>
        <pt x="628" y="-12" on="0"/>
        <pt x="371" y="118" on="0"/>
        <pt x="196" y="330" on="0"/>
        <pt x="94" y="599" on="0"/>
        <pt x="94" y="737" on="1"/>
        <pt x="94" y="842" on="0"/>
        <pt x="152" y="1050" on="0"/>
        <pt x="270" y="1236" on="0"/>
        <pt x="432" y="1378" on="0"/>
        <pt x="655" y="1462" on="0"/>
      </contour>
    </TTGlyph>
    <TTGlyph name="Chedescendercyrillic" xMin="158" yMin="-276" xMax="1282" yMax="1454">
      <contour>
        <pt x="1106" y="66" on="1"/>
        <pt x="1282" y="66" on="1"/>
        <pt x="1282" y="-276" on="1"/>
        <pt x="1217" y="-276" on="1"/>
        <pt x="1217" y="0" on="1"/>
        <pt x="1036" y="0" on="1"/>
        <pt x="1036" y="657" on="1"/>
        <pt x="840" y="571" on="0"/>
        <pt x="618" y="571" on="1"/>
        <pt x="377" y="571" on="0"/>
        <pt x="158" y="773" on="0"/>
        <pt x="158" y="995" on="1"/>
        <pt x="158" y="1454" on="1"/>
        <pt x="227" y="1454" on="1"/>
        <pt x="227" y="1004" on="1"/>
        <pt x="227" y="812" on="0"/>
        <pt x="412" y="639" on="0"/>
        <pt x="621" y="639" on="1"/>
        <pt x="744" y="639" on="0"/>
        <pt x="966" y="689" on="0"/>
        <pt x="1036" y="729" on="1"/>
        <pt x="1036" y="1454" on="1"/>
        <pt x="1106" y="1454" on="1"/>
      </contour>
    </TTGlyph>
    <TTGlyph name="Chedieresiscyrillic" xMin="158" yMin="0" xMax="1106" yMax="1884">
      <contour>
        <pt x="498" y="1716" on="1"/>
        <pt x="498" y="1884" on="1"/>
        <pt x="561" y="1884" on="1"/>
        <pt x="561" y="1716" on="1"/>
      </contour>
      <contour>
        <pt x="756" y="1716" on="1"/>
        <pt x="756" y="1884" on="1"/>
        <pt x="819" y="1884" on="1"/>
        <pt x="819" y="1716" on="1"/>
      </contour>
      <contour>
        <pt x="1036" y="0" on="1"/>
        <pt x="1036" y="657" on="1"/>
        <pt x="840" y="571" on="0"/>
        <pt x="618" y="571" on="1"/>
        <pt x="377" y="571" on="0"/>
        <pt x="158" y="773" on="0"/>
        <pt x="158" y="995" on="1"/>
        <pt x="158" y="1454" on="1"/>
        <pt x="227" y="1454" on="1"/>
        <pt x="227" y="1004" on="1"/>
        <pt x="227" y="812" on="0"/>
        <pt x="412" y="639" on="0"/>
        <pt x="621" y="639" on="1"/>
        <pt x="744" y="639" on="0"/>
        <pt x="966" y="689" on="0"/>
        <pt x="1036" y="729" on="1"/>
        <pt x="1036" y="1454" on="1"/>
        <pt x="1106" y="1454" on="1"/>
        <pt x="1106" y="0" on="1"/>
      </contour>
    </TTGlyph>
    <TTGlyph name="Chekhakassiancyrillic" xMin="158" yMin="-276" xMax="1106" yMax="1454">
      <contour>
        <pt x="1036" y="1454" on="1"/>
        <pt x="1106" y="1454" on="1"/>
        <pt x="1106" y="0" on="1"/>
        <pt x="915" y="0" on="1"/>
        <pt x="915" y="-276" on="1"/>
        <pt x="850" y="-276" on="1"/>
        <pt x="850" y="66" on="1"/>
        <pt x="1036" y="66" on="1"/>
        <pt x="1036" y="657" on="1"/>
        <pt x="840" y="571" on="0"/>
        <pt x="618" y="571" on="1"/>
        <pt x="377" y="571" on="0"/>
        <pt x="158" y="773" on="0"/>
        <pt x="158" y="995" on="1"/>
        <pt x="158" y="1454" on="1"/>
        <pt x="227" y="1454" on="1"/>
        <pt x="227" y="1004" on="1"/>
        <pt x="227" y="812" on="0"/>
        <pt x="412" y="639" on="0"/>
        <pt x="621" y="639" on="1"/>
        <pt x="744" y="639" on="0"/>
        <pt x="966" y="689" on="0"/>
        <pt x="1036" y="729" on="1"/>
      </contour>
    </TTGlyph>
    <TTGlyph name="Cheverticalstrokecyrillic" xMin="158" yMin="0" xMax="1106" yMax="1454">
      <contour>
        <pt x="1036" y="1454" on="1"/>
        <pt x="1106" y="1454" on="1"/>
        <pt x="1106" y="0" on="1"/>
        <pt x="1036" y="0" on="1"/>
        <pt x="1036" y="657" on="1"/>
        <pt x="845" y="574" on="0"/>
        <pt x="633" y="571" on="1"/>
        <pt x="633" y="293" on="1"/>
        <pt x="582" y="293" on="1"/>
        <pt x="582" y="571" on="1"/>
        <pt x="361" y="578" on="0"/>
        <pt x="158" y="782" on="0"/>
        <pt x="158" y="995" on="1"/>
        <pt x="158" y="1454" on="1"/>
        <pt x="227" y="1454" on="1"/>
        <pt x="227" y="1004" on="1"/>
        <pt x="227" y="820" on="0"/>
        <pt x="395" y="646" on="0"/>
        <pt x="582" y="639" on="1"/>
        <pt x="582" y="944" on="1"/>
        <pt x="633" y="944" on="1"/>
        <pt x="633" y="639" on="1"/>
        <pt x="753" y="640" on="0"/>
        <pt x="967" y="690" on="0"/>
        <pt x="1036" y="729" on="1"/>
      </contour>
    </TTGlyph>
    <TTGlyph name="D" xMin="197" yMin="0" xMax="1358" yMax="1454">
      <contour>
        <pt x="197" y="0" on="1"/>
        <pt x="197" y="1454" on="1"/>
        <pt x="672" y="1454" on="1"/>
        <pt x="807" y="1454" on="0"/>
        <pt x="1032" y="1380" on="0"/>
        <pt x="1192" y="1248" on="0"/>
        <pt x="1304" y="1066" on="0"/>
        <pt x="1358" y="850" on="0"/>
        <pt x="1358" y="729" on="1"/>
        <pt x="1358" y="398" on="0"/>
        <pt x="986" y="0" on="0"/>
        <pt x="672" y="0" on="1"/>
      </contour>
      <contour>
        <pt x="672" y="1389" on="1"/>
        <pt x="268" y="1389" on="1"/>
        <pt x="268" y="66" on="1"/>
        <pt x="672" y="66" on="1"/>
        <pt x="820" y="66" on="0"/>
        <pt x="1055" y="167" on="0"/>
        <pt x="1206" y="346" on="0"/>
        <pt x="1286" y="587" on="0"/>
        <pt x="1286" y="729" on="1"/>
        <pt x="1286" y="873" on="0"/>
        <pt x="1204" y="1115" on="0"/>
        <pt x="1051" y="1291" on="0"/>
        <pt x="817" y="1389" on="0"/>
      </contour>
    </TTGlyph>
    <TTGlyph name="Dcaron" xMin="197" yMin="0" xMax="1358" yMax="1878">
      <contour>
        <pt x="543" y="1878" on="1"/>
        <pt x="717" y="1749" on="1"/>
        <pt x="891" y="1878" on="1"/>
        <pt x="938" y="1849" on="1"/>
        <pt x="743" y="1690" on="1"/>
        <pt x="690" y="1690" on="1"/>
        <pt x="498" y="1849" on="1"/>
      </contour>
      <contour>
        <pt x="197" y="0" on="1"/>
        <pt x="197" y="1454" on="1"/>
        <pt x="672" y="1454" on="1"/>
        <pt x="807" y="1454" on="0"/>
        <pt x="1032" y="1380" on="0"/>
        <pt x="1192" y="1248" on="0"/>
        <pt x="1304" y="1066" on="0"/>
        <pt x="1358" y="850" on="0"/>
        <pt x="1358" y="729" on="1"/>
        <pt x="1358" y="398" on="0"/>
        <pt x="986" y="0" on="0"/>
        <pt x="672" y="0" on="1"/>
      </contour>
      <contour>
        <pt x="672" y="1389" on="1"/>
        <pt x="268" y="1389" on="1"/>
        <pt x="268" y="66" on="1"/>
        <pt x="672" y="66" on="1"/>
        <pt x="820" y="66" on="0"/>
        <pt x="1055" y="167" on="0"/>
        <pt x="1206" y="346" on="0"/>
        <pt x="1286" y="587" on="0"/>
        <pt x="1286" y="729" on="1"/>
        <pt x="1286" y="873" on="0"/>
        <pt x="1204" y="1115" on="0"/>
        <pt x="1051" y="1291" on="0"/>
        <pt x="817" y="1389" on="0"/>
      </contour>
    </TTGlyph>
    <TTGlyph name="Dcroat" xMin="72" yMin="0" xMax="1372" yMax="1454">
      <contour>
        <pt x="686" y="1454" on="1"/>
        <pt x="821" y="1454" on="0"/>
        <pt x="1046" y="1380" on="0"/>
        <pt x="1206" y="1248" on="0"/>
        <pt x="1318" y="1066" on="0"/>
        <pt x="1372" y="850" on="0"/>
        <pt x="1372" y="729" on="1"/>
        <pt x="1372" y="398" on="0"/>
        <pt x="1000" y="0" on="0"/>
        <pt x="686" y="0" on="1"/>
        <pt x="211" y="0" on="1"/>
        <pt x="211" y="700" on="1"/>
        <pt x="72" y="700" on="1"/>
        <pt x="72" y="762" on="1"/>
        <pt x="211" y="762" on="1"/>
        <pt x="211" y="1454" on="1"/>
      </contour>
      <contour>
        <pt x="686" y="66" on="1"/>
        <pt x="834" y="66" on="0"/>
        <pt x="1069" y="167" on="0"/>
        <pt x="1220" y="346" on="0"/>
        <pt x="1300" y="587" on="0"/>
        <pt x="1300" y="729" on="1"/>
        <pt x="1300" y="873" on="0"/>
        <pt x="1218" y="1115" on="0"/>
        <pt x="1065" y="1291" on="0"/>
        <pt x="831" y="1389" on="0"/>
        <pt x="686" y="1389" on="1"/>
        <pt x="283" y="1389" on="1"/>
        <pt x="283" y="762" on="1"/>
        <pt x="662" y="762" on="1"/>
        <pt x="662" y="700" on="1"/>
        <pt x="283" y="700" on="1"/>
        <pt x="283" y="66" on="1"/>
      </contour>
    </TTGlyph>
    <TTGlyph name="Ddotbelow" xMin="197" yMin="-285" xMax="1358" yMax="1454">
      <contour>
        <pt x="197" y="0" on="1"/>
        <pt x="197" y="1454" on="1"/>
        <pt x="672" y="1454" on="1"/>
        <pt x="807" y="1454" on="0"/>
        <pt x="1032" y="1380" on="0"/>
        <pt x="1192" y="1248" on="0"/>
        <pt x="1304" y="1066" on="0"/>
        <pt x="1358" y="850" on="0"/>
        <pt x="1358" y="729" on="1"/>
        <pt x="1358" y="398" on="0"/>
        <pt x="986" y="0" on="0"/>
        <pt x="672" y="0" on="1"/>
      </contour>
      <contour>
        <pt x="672" y="1389" on="1"/>
        <pt x="268" y="1389" on="1"/>
        <pt x="268" y="66" on="1"/>
        <pt x="672" y="66" on="1"/>
        <pt x="820" y="66" on="0"/>
        <pt x="1055" y="167" on="0"/>
        <pt x="1206" y="346" on="0"/>
        <pt x="1286" y="587" on="0"/>
        <pt x="1286" y="729" on="1"/>
        <pt x="1286" y="873" on="0"/>
        <pt x="1204" y="1115" on="0"/>
        <pt x="1051" y="1291" on="0"/>
        <pt x="817" y="1389" on="0"/>
      </contour>
      <contour>
        <pt x="698" y="-285" on="1"/>
        <pt x="698" y="-115" on="1"/>
        <pt x="764" y="-115" on="1"/>
        <pt x="764" y="-285" on="1"/>
      </contour>
    </TTGlyph>
    <TTGlyph name="Delta" xMin="8" yMin="0" xMax="1237" yMax="1454">
      <contour>
        <pt x="1237" y="61" on="1"/>
        <pt x="1237" y="0" on="1"/>
        <pt x="10" y="0" on="1"/>
        <pt x="8" y="61" on="1"/>
        <pt x="594" y="1454" on="1"/>
        <pt x="653" y="1454" on="1"/>
      </contour>
      <contour>
        <pt x="1159" y="66" on="1"/>
        <pt x="623" y="1364" on="1"/>
        <pt x="86" y="66" on="1"/>
      </contour>
    </TTGlyph>
    <TTGlyph name="Dlinebelow" xMin="197" yMin="-215" xMax="1358" yMax="1454">
      <contour>
        <pt x="197" y="0" on="1"/>
        <pt x="197" y="1454" on="1"/>
        <pt x="672" y="1454" on="1"/>
        <pt x="807" y="1454" on="0"/>
        <pt x="1032" y="1380" on="0"/>
        <pt x="1192" y="1248" on="0"/>
        <pt x="1304" y="1066" on="0"/>
        <pt x="1358" y="850" on="0"/>
        <pt x="1358" y="729" on="1"/>
        <pt x="1358" y="398" on="0"/>
        <pt x="986" y="0" on="0"/>
        <pt x="672" y="0" on="1"/>
      </contour>
      <contour>
        <pt x="672" y="1389" on="1"/>
        <pt x="268" y="1389" on="1"/>
        <pt x="268" y="66" on="1"/>
        <pt x="672" y="66" on="1"/>
        <pt x="820" y="66" on="0"/>
        <pt x="1055" y="167" on="0"/>
        <pt x="1206" y="346" on="0"/>
        <pt x="1286" y="587" on="0"/>
        <pt x="1286" y="729" on="1"/>
        <pt x="1286" y="873" on="0"/>
        <pt x="1204" y="1115" on="0"/>
        <pt x="1051" y="1291" on="0"/>
        <pt x="817" y="1389" on="0"/>
      </contour>
      <contour>
        <pt x="442" y="-215" on="1"/>
        <pt x="442" y="-158" on="1"/>
        <pt x="1022" y="-158" on="1"/>
        <pt x="1022" y="-215" on="1"/>
      </contour>
    </TTGlyph>
    <TTGlyph name="E" xMin="197" yMin="0" xMax="1157" yMax="1454">
      <contour>
        <pt x="1157" y="66" on="1"/>
        <pt x="1157" y="0" on="1"/>
        <pt x="197" y="0" on="1"/>
        <pt x="197" y="1454" on="1"/>
        <pt x="1139" y="1454" on="1"/>
        <pt x="1139" y="1389" on="1"/>
        <pt x="268" y="1389" on="1"/>
        <pt x="268" y="776" on="1"/>
        <pt x="1030" y="776" on="1"/>
        <pt x="1030" y="711" on="1"/>
        <pt x="268" y="711" on="1"/>
        <pt x="268" y="66" on="1"/>
      </contour>
    </TTGlyph>
    <TTGlyph name="Eacute" xMin="197" yMin="0" xMax="1157" yMax="1878">
      <contour>
        <pt x="723" y="1690" on="1"/>
        <pt x="674" y="1716" on="1"/>
        <pt x="801" y="1878" on="1"/>
        <pt x="893" y="1878" on="1"/>
      </contour>
      <contour>
        <pt x="1157" y="66" on="1"/>
        <pt x="1157" y="0" on="1"/>
        <pt x="197" y="0" on="1"/>
        <pt x="197" y="1454" on="1"/>
        <pt x="1139" y="1454" on="1"/>
        <pt x="1139" y="1389" on="1"/>
        <pt x="268" y="1389" on="1"/>
        <pt x="268" y="776" on="1"/>
        <pt x="1030" y="776" on="1"/>
        <pt x="1030" y="711" on="1"/>
        <pt x="268" y="711" on="1"/>
        <pt x="268" y="66" on="1"/>
      </contour>
    </TTGlyph>
    <TTGlyph name="Ebreve" xMin="197" yMin="0" xMax="1157" yMax="1878">
      <contour>
        <pt x="815" y="1878" on="1"/>
        <pt x="866" y="1878" on="1"/>
        <pt x="866" y="1808" on="0"/>
        <pt x="766" y="1706" on="0"/>
        <pt x="700" y="1706" on="1"/>
        <pt x="632" y="1706" on="0"/>
        <pt x="535" y="1808" on="0"/>
        <pt x="535" y="1878" on="1"/>
        <pt x="588" y="1878" on="1"/>
        <pt x="588" y="1830" on="0"/>
        <pt x="657" y="1751" on="0"/>
        <pt x="700" y="1751" on="1"/>
        <pt x="741" y="1751" on="0"/>
        <pt x="809" y="1826" on="0"/>
      </contour>
      <contour>
        <pt x="1157" y="66" on="1"/>
        <pt x="1157" y="0" on="1"/>
        <pt x="197" y="0" on="1"/>
        <pt x="197" y="1454" on="1"/>
        <pt x="1139" y="1454" on="1"/>
        <pt x="1139" y="1389" on="1"/>
        <pt x="268" y="1389" on="1"/>
        <pt x="268" y="776" on="1"/>
        <pt x="1030" y="776" on="1"/>
        <pt x="1030" y="711" on="1"/>
        <pt x="268" y="711" on="1"/>
        <pt x="268" y="66" on="1"/>
      </contour>
    </TTGlyph>
    <TTGlyph name="Ecaron" xMin="197" yMin="0" xMax="1157" yMax="1878">
      <contour>
        <pt x="526" y="1878" on="1"/>
        <pt x="700" y="1749" on="1"/>
        <pt x="874" y="1878" on="1"/>
        <pt x="922" y="1849" on="1"/>
        <pt x="727" y="1690" on="1"/>
        <pt x="674" y="1690" on="1"/>
        <pt x="481" y="1849" on="1"/>
      </contour>
      <contour>
        <pt x="1157" y="66" on="1"/>
        <pt x="1157" y="0" on="1"/>
        <pt x="197" y="0" on="1"/>
        <pt x="197" y="1454" on="1"/>
        <pt x="1139" y="1454" on="1"/>
        <pt x="1139" y="1389" on="1"/>
        <pt x="268" y="1389" on="1"/>
        <pt x="268" y="776" on="1"/>
        <pt x="1030" y="776" on="1"/>
        <pt x="1030" y="711" on="1"/>
        <pt x="268" y="711" on="1"/>
        <pt x="268" y="66" on="1"/>
      </contour>
    </TTGlyph>
    <TTGlyph name="Ecedillabreve" xMin="197" yMin="-346" xMax="1157" yMax="1878">
      <contour>
        <pt x="700" y="1706" on="1"/>
        <pt x="632" y="1706" on="0"/>
        <pt x="535" y="1808" on="0"/>
        <pt x="535" y="1878" on="1"/>
        <pt x="588" y="1878" on="1"/>
        <pt x="588" y="1830" on="0"/>
        <pt x="657" y="1751" on="0"/>
        <pt x="700" y="1751" on="1"/>
        <pt x="741" y="1751" on="0"/>
        <pt x="809" y="1826" on="0"/>
        <pt x="815" y="1878" on="1"/>
        <pt x="866" y="1878" on="1"/>
        <pt x="866" y="1808" on="0"/>
        <pt x="766" y="1706" on="0"/>
      </contour>
      <contour>
        <pt x="1157" y="66" on="1"/>
        <pt x="1157" y="0" on="1"/>
        <pt x="756" y="0" on="1"/>
        <pt x="820" y="-41" on="0"/>
        <pt x="883" y="-127" on="0"/>
        <pt x="883" y="-186" on="1"/>
        <pt x="883" y="-265" on="0"/>
        <pt x="773" y="-346" on="0"/>
        <pt x="680" y="-346" on="1"/>
        <pt x="559" y="-346" on="0"/>
        <pt x="453" y="-293" on="1"/>
        <pt x="479" y="-244" on="1"/>
        <pt x="585" y="-293" on="0"/>
        <pt x="668" y="-293" on="1"/>
        <pt x="825" y="-293" on="0"/>
        <pt x="825" y="-180" on="1"/>
        <pt x="825" y="-125" on="0"/>
        <pt x="751" y="-44" on="0"/>
        <pt x="672" y="0" on="1"/>
        <pt x="197" y="0" on="1"/>
        <pt x="197" y="1454" on="1"/>
        <pt x="1139" y="1454" on="1"/>
        <pt x="1139" y="1389" on="1"/>
        <pt x="268" y="1389" on="1"/>
        <pt x="268" y="776" on="1"/>
        <pt x="1030" y="776" on="1"/>
        <pt x="1030" y="711" on="1"/>
        <pt x="268" y="711" on="1"/>
        <pt x="268" y="66" on="1"/>
      </contour>
    </TTGlyph>
    <TTGlyph name="Ecircumflex" xMin="197" yMin="0" xMax="1157" yMax="1878">
      <contour>
        <pt x="481" y="1720" on="1"/>
        <pt x="674" y="1878" on="1"/>
        <pt x="727" y="1878" on="1"/>
        <pt x="922" y="1720" on="1"/>
        <pt x="874" y="1690" on="1"/>
        <pt x="700" y="1819" on="1"/>
        <pt x="526" y="1690" on="1"/>
      </contour>
      <contour>
        <pt x="1157" y="66" on="1"/>
        <pt x="1157" y="0" on="1"/>
        <pt x="197" y="0" on="1"/>
        <pt x="197" y="1454" on="1"/>
        <pt x="1139" y="1454" on="1"/>
        <pt x="1139" y="1389" on="1"/>
        <pt x="268" y="1389" on="1"/>
        <pt x="268" y="776" on="1"/>
        <pt x="1030" y="776" on="1"/>
        <pt x="1030" y="711" on="1"/>
        <pt x="268" y="711" on="1"/>
        <pt x="268" y="66" on="1"/>
      </contour>
    </TTGlyph>
    <TTGlyph name="Ecircumflexacute" xMin="197" yMin="0" xMax="1157" yMax="1905">
      <contour>
        <pt x="913" y="1716" on="1"/>
        <pt x="864" y="1743" on="1"/>
        <pt x="991" y="1905" on="1"/>
        <pt x="1083" y="1905" on="1"/>
      </contour>
      <contour>
        <pt x="471" y="1634" on="1"/>
        <pt x="664" y="1792" on="1"/>
        <pt x="717" y="1792" on="1"/>
        <pt x="911" y="1634" on="1"/>
        <pt x="864" y="1604" on="1"/>
        <pt x="690" y="1733" on="1"/>
        <pt x="516" y="1604" on="1"/>
      </contour>
      <contour>
        <pt x="1157" y="66" on="1"/>
        <pt x="1157" y="0" on="1"/>
        <pt x="197" y="0" on="1"/>
        <pt x="197" y="1454" on="1"/>
        <pt x="1139" y="1454" on="1"/>
        <pt x="1139" y="1389" on="1"/>
        <pt x="268" y="1389" on="1"/>
        <pt x="268" y="776" on="1"/>
        <pt x="1030" y="776" on="1"/>
        <pt x="1030" y="711" on="1"/>
        <pt x="268" y="711" on="1"/>
        <pt x="268" y="66" on="1"/>
      </contour>
    </TTGlyph>
    <TTGlyph name="Ecircumflexdotbelow" xMin="197" yMin="-285" xMax="1157" yMax="1878">
      <contour>
        <pt x="481" y="1720" on="1"/>
        <pt x="674" y="1878" on="1"/>
        <pt x="727" y="1878" on="1"/>
        <pt x="922" y="1720" on="1"/>
        <pt x="874" y="1690" on="1"/>
        <pt x="700" y="1819" on="1"/>
        <pt x="526" y="1690" on="1"/>
      </contour>
      <contour>
        <pt x="1157" y="66" on="1"/>
        <pt x="1157" y="0" on="1"/>
        <pt x="197" y="0" on="1"/>
        <pt x="197" y="1454" on="1"/>
        <pt x="1139" y="1454" on="1"/>
        <pt x="1139" y="1389" on="1"/>
        <pt x="268" y="1389" on="1"/>
        <pt x="268" y="776" on="1"/>
        <pt x="1030" y="776" on="1"/>
        <pt x="1030" y="711" on="1"/>
        <pt x="268" y="711" on="1"/>
        <pt x="268" y="66" on="1"/>
      </contour>
      <contour>
        <pt x="668" y="-285" on="1"/>
        <pt x="668" y="-115" on="1"/>
        <pt x="733" y="-115" on="1"/>
        <pt x="733" y="-285" on="1"/>
      </contour>
    </TTGlyph>
    <TTGlyph name="Ecircumflexgrave" xMin="197" yMin="0" xMax="1157" yMax="1923">
      <contour>
        <pt x="305" y="1923" on="1"/>
        <pt x="395" y="1923" on="1"/>
        <pt x="524" y="1761" on="1"/>
        <pt x="475" y="1735" on="1"/>
      </contour>
      <contour>
        <pt x="477" y="1634" on="1"/>
        <pt x="670" y="1792" on="1"/>
        <pt x="723" y="1792" on="1"/>
        <pt x="918" y="1634" on="1"/>
        <pt x="870" y="1604" on="1"/>
        <pt x="696" y="1733" on="1"/>
        <pt x="522" y="1604" on="1"/>
      </contour>
      <contour>
        <pt x="1157" y="66" on="1"/>
        <pt x="1157" y="0" on="1"/>
        <pt x="197" y="0" on="1"/>
        <pt x="197" y="1454" on="1"/>
        <pt x="1139" y="1454" on="1"/>
        <pt x="1139" y="1389" on="1"/>
        <pt x="268" y="1389" on="1"/>
        <pt x="268" y="776" on="1"/>
        <pt x="1030" y="776" on="1"/>
        <pt x="1030" y="711" on="1"/>
        <pt x="268" y="711" on="1"/>
        <pt x="268" y="66" on="1"/>
      </contour>
    </TTGlyph>
    <TTGlyph name="Ecircumflexhookabove" xMin="197" yMin="0" xMax="1157" yMax="1997">
      <contour>
        <pt x="770" y="1898" on="1"/>
        <pt x="735" y="1933" on="1"/>
        <pt x="771" y="1966" on="0"/>
        <pt x="833" y="1997" on="0"/>
        <pt x="872" y="1997" on="1"/>
        <pt x="928" y="1997" on="0"/>
        <pt x="995" y="1931" on="0"/>
        <pt x="995" y="1876" on="1"/>
        <pt x="995" y="1840" on="0"/>
        <pt x="955" y="1781" on="0"/>
        <pt x="907" y="1731" on="1"/>
        <pt x="877" y="1761" on="1"/>
        <pt x="944" y="1831" on="0"/>
        <pt x="944" y="1874" on="1"/>
        <pt x="944" y="1907" on="0"/>
        <pt x="905" y="1948" on="0"/>
        <pt x="866" y="1948" on="1"/>
        <pt x="840" y="1948" on="0"/>
        <pt x="802" y="1927" on="0"/>
      </contour>
      <contour>
        <pt x="469" y="1634" on="1"/>
        <pt x="662" y="1792" on="1"/>
        <pt x="715" y="1792" on="1"/>
        <pt x="909" y="1634" on="1"/>
        <pt x="862" y="1604" on="1"/>
        <pt x="688" y="1733" on="1"/>
        <pt x="514" y="1604" on="1"/>
      </contour>
      <contour>
        <pt x="1157" y="66" on="1"/>
        <pt x="1157" y="0" on="1"/>
        <pt x="197" y="0" on="1"/>
        <pt x="197" y="1454" on="1"/>
        <pt x="1139" y="1454" on="1"/>
        <pt x="1139" y="1389" on="1"/>
        <pt x="268" y="1389" on="1"/>
        <pt x="268" y="776" on="1"/>
        <pt x="1030" y="776" on="1"/>
        <pt x="1030" y="711" on="1"/>
        <pt x="268" y="711" on="1"/>
        <pt x="268" y="66" on="1"/>
      </contour>
    </TTGlyph>
    <TTGlyph name="Ecircumflextilde" xMin="197" yMin="0" xMax="1157" yMax="1993">
      <contour>
        <pt x="571" y="1919" on="1"/>
        <pt x="541" y="1919" on="0"/>
        <pt x="496" y="1893" on="0"/>
        <pt x="476" y="1855" on="0"/>
        <pt x="467" y="1828" on="0"/>
        <pt x="467" y="1821" on="1"/>
        <pt x="414" y="1821" on="1"/>
        <pt x="414" y="1829" on="0"/>
        <pt x="419" y="1859" on="0"/>
        <pt x="440" y="1906" on="0"/>
        <pt x="472" y="1945" on="0"/>
        <pt x="533" y="1974" on="0"/>
        <pt x="573" y="1974" on="1"/>
        <pt x="628" y="1974" on="0"/>
        <pt x="780" y="1894" on="0"/>
        <pt x="831" y="1894" on="1"/>
        <pt x="862" y="1894" on="0"/>
        <pt x="909" y="1914" on="0"/>
        <pt x="933" y="1939" on="0"/>
        <pt x="947" y="1971" on="0"/>
        <pt x="950" y="1988" on="0"/>
        <pt x="950" y="1993" on="1"/>
        <pt x="1006" y="1993" on="1"/>
        <pt x="1006" y="1984" on="0"/>
        <pt x="999" y="1954" on="0"/>
        <pt x="976" y="1908" on="0"/>
        <pt x="940" y="1869" on="0"/>
        <pt x="872" y="1841" on="0"/>
        <pt x="829" y="1841" on="1"/>
        <pt x="777" y="1841" on="0"/>
        <pt x="683" y="1880" on="0"/>
        <pt x="605" y="1919" on="0"/>
      </contour>
      <contour>
        <pt x="469" y="1634" on="1"/>
        <pt x="662" y="1792" on="1"/>
        <pt x="715" y="1792" on="1"/>
        <pt x="909" y="1634" on="1"/>
        <pt x="862" y="1604" on="1"/>
        <pt x="688" y="1733" on="1"/>
        <pt x="514" y="1604" on="1"/>
      </contour>
      <contour>
        <pt x="1157" y="66" on="1"/>
        <pt x="1157" y="0" on="1"/>
        <pt x="197" y="0" on="1"/>
        <pt x="197" y="1454" on="1"/>
        <pt x="1139" y="1454" on="1"/>
        <pt x="1139" y="1389" on="1"/>
        <pt x="268" y="1389" on="1"/>
        <pt x="268" y="776" on="1"/>
        <pt x="1030" y="776" on="1"/>
        <pt x="1030" y="711" on="1"/>
        <pt x="268" y="711" on="1"/>
        <pt x="268" y="66" on="1"/>
      </contour>
    </TTGlyph>
    <TTGlyph name="Edblgrave" xMin="197" yMin="0" xMax="1157" yMax="1880">
      <contour>
        <pt x="420" y="1880" on="1"/>
        <pt x="508" y="1880" on="1"/>
        <pt x="635" y="1718" on="1"/>
        <pt x="590" y="1692" on="1"/>
      </contour>
      <contour>
        <pt x="641" y="1880" on="1"/>
        <pt x="727" y="1880" on="1"/>
        <pt x="854" y="1718" on="1"/>
        <pt x="809" y="1692" on="1"/>
      </contour>
      <contour>
        <pt x="1157" y="66" on="1"/>
        <pt x="1157" y="0" on="1"/>
        <pt x="197" y="0" on="1"/>
        <pt x="197" y="1454" on="1"/>
        <pt x="1139" y="1454" on="1"/>
        <pt x="1139" y="1389" on="1"/>
        <pt x="268" y="1389" on="1"/>
        <pt x="268" y="776" on="1"/>
        <pt x="1030" y="776" on="1"/>
        <pt x="1030" y="711" on="1"/>
        <pt x="268" y="711" on="1"/>
        <pt x="268" y="66" on="1"/>
      </contour>
    </TTGlyph>
    <TTGlyph name="Edieresis" xMin="197" yMin="0" xMax="1157" yMax="1878">
      <contour>
        <pt x="539" y="1710" on="1"/>
        <pt x="539" y="1878" on="1"/>
        <pt x="602" y="1878" on="1"/>
        <pt x="602" y="1710" on="1"/>
      </contour>
      <contour>
        <pt x="797" y="1710" on="1"/>
        <pt x="797" y="1878" on="1"/>
        <pt x="860" y="1878" on="1"/>
        <pt x="860" y="1710" on="1"/>
      </contour>
      <contour>
        <pt x="1157" y="66" on="1"/>
        <pt x="1157" y="0" on="1"/>
        <pt x="197" y="0" on="1"/>
        <pt x="197" y="1454" on="1"/>
        <pt x="1139" y="1454" on="1"/>
        <pt x="1139" y="1389" on="1"/>
        <pt x="268" y="1389" on="1"/>
        <pt x="268" y="776" on="1"/>
        <pt x="1030" y="776" on="1"/>
        <pt x="1030" y="711" on="1"/>
        <pt x="268" y="711" on="1"/>
        <pt x="268" y="66" on="1"/>
      </contour>
    </TTGlyph>
    <TTGlyph name="Edot" xMin="197" yMin="0" xMax="1157" yMax="1878">
      <contour>
        <pt x="668" y="1708" on="1"/>
        <pt x="668" y="1878" on="1"/>
        <pt x="733" y="1878" on="1"/>
        <pt x="733" y="1708" on="1"/>
      </contour>
      <contour>
        <pt x="1157" y="66" on="1"/>
        <pt x="1157" y="0" on="1"/>
        <pt x="197" y="0" on="1"/>
        <pt x="197" y="1454" on="1"/>
        <pt x="1139" y="1454" on="1"/>
        <pt x="1139" y="1389" on="1"/>
        <pt x="268" y="1389" on="1"/>
        <pt x="268" y="776" on="1"/>
        <pt x="1030" y="776" on="1"/>
        <pt x="1030" y="711" on="1"/>
        <pt x="268" y="711" on="1"/>
        <pt x="268" y="66" on="1"/>
      </contour>
    </TTGlyph>
    <TTGlyph name="Edotbelow" xMin="197" yMin="-285" xMax="1157" yMax="1454">
      <contour>
        <pt x="1157" y="66" on="1"/>
        <pt x="1157" y="0" on="1"/>
        <pt x="197" y="0" on="1"/>
        <pt x="197" y="1454" on="1"/>
        <pt x="1139" y="1454" on="1"/>
        <pt x="1139" y="1389" on="1"/>
        <pt x="268" y="1389" on="1"/>
        <pt x="268" y="776" on="1"/>
        <pt x="1030" y="776" on="1"/>
        <pt x="1030" y="711" on="1"/>
        <pt x="268" y="711" on="1"/>
        <pt x="268" y="66" on="1"/>
      </contour>
      <contour>
        <pt x="668" y="-285" on="1"/>
        <pt x="668" y="-115" on="1"/>
        <pt x="733" y="-115" on="1"/>
        <pt x="733" y="-285" on="1"/>
      </contour>
    </TTGlyph>
    <TTGlyph name="Egrave" xMin="197" yMin="0" xMax="1157" yMax="1880">
      <contour>
        <pt x="547" y="1880" on="1"/>
        <pt x="637" y="1880" on="1"/>
        <pt x="766" y="1718" on="1"/>
        <pt x="717" y="1692" on="1"/>
      </contour>
      <contour>
        <pt x="1157" y="66" on="1"/>
        <pt x="1157" y="0" on="1"/>
        <pt x="197" y="0" on="1"/>
        <pt x="197" y="1454" on="1"/>
        <pt x="1139" y="1454" on="1"/>
        <pt x="1139" y="1389" on="1"/>
        <pt x="268" y="1389" on="1"/>
        <pt x="268" y="776" on="1"/>
        <pt x="1030" y="776" on="1"/>
        <pt x="1030" y="711" on="1"/>
        <pt x="268" y="711" on="1"/>
        <pt x="268" y="66" on="1"/>
      </contour>
    </TTGlyph>
    <TTGlyph name="Ehookabove" xMin="197" yMin="0" xMax="1157" yMax="1884">
      <contour>
        <pt x="604" y="1786" on="1"/>
        <pt x="569" y="1821" on="1"/>
        <pt x="638" y="1884" on="0"/>
        <pt x="707" y="1884" on="1"/>
        <pt x="763" y="1884" on="0"/>
        <pt x="829" y="1818" on="0"/>
        <pt x="829" y="1763" on="1"/>
        <pt x="829" y="1727" on="0"/>
        <pt x="789" y="1668" on="0"/>
        <pt x="741" y="1618" on="1"/>
        <pt x="711" y="1649" on="1"/>
        <pt x="778" y="1719" on="0"/>
        <pt x="778" y="1761" on="1"/>
        <pt x="778" y="1794" on="0"/>
        <pt x="739" y="1835" on="0"/>
        <pt x="700" y="1835" on="1"/>
        <pt x="674" y="1835" on="0"/>
        <pt x="635" y="1814" on="0"/>
      </contour>
      <contour>
        <pt x="1157" y="66" on="1"/>
        <pt x="1157" y="0" on="1"/>
        <pt x="197" y="0" on="1"/>
        <pt x="197" y="1454" on="1"/>
        <pt x="1139" y="1454" on="1"/>
        <pt x="1139" y="1389" on="1"/>
        <pt x="268" y="1389" on="1"/>
        <pt x="268" y="776" on="1"/>
        <pt x="1030" y="776" on="1"/>
        <pt x="1030" y="711" on="1"/>
        <pt x="268" y="711" on="1"/>
        <pt x="268" y="66" on="1"/>
      </contour>
    </TTGlyph>
    <TTGlyph name="Einvertedbreve" xMin="197" yMin="0" xMax="1157" yMax="1878">
      <contour>
        <pt x="588" y="1706" on="1"/>
        <pt x="535" y="1706" on="1"/>
        <pt x="535" y="1776" on="0"/>
        <pt x="632" y="1878" on="0"/>
        <pt x="700" y="1878" on="1"/>
        <pt x="766" y="1878" on="0"/>
        <pt x="866" y="1776" on="0"/>
        <pt x="866" y="1706" on="1"/>
        <pt x="815" y="1706" on="1"/>
        <pt x="809" y="1758" on="0"/>
        <pt x="741" y="1833" on="0"/>
        <pt x="700" y="1833" on="1"/>
        <pt x="657" y="1833" on="0"/>
        <pt x="588" y="1754" on="0"/>
      </contour>
      <contour>
        <pt x="1157" y="66" on="1"/>
        <pt x="1157" y="0" on="1"/>
        <pt x="197" y="0" on="1"/>
        <pt x="197" y="1454" on="1"/>
        <pt x="1139" y="1454" on="1"/>
        <pt x="1139" y="1389" on="1"/>
        <pt x="268" y="1389" on="1"/>
        <pt x="268" y="776" on="1"/>
        <pt x="1030" y="776" on="1"/>
        <pt x="1030" y="711" on="1"/>
        <pt x="268" y="711" on="1"/>
        <pt x="268" y="66" on="1"/>
      </contour>
    </TTGlyph>
    <TTGlyph name="Emacron" xMin="197" yMin="0" xMax="1157" yMax="1831">
      <contour>
        <pt x="412" y="1774" on="1"/>
        <pt x="412" y="1831" on="1"/>
        <pt x="991" y="1831" on="1"/>
        <pt x="991" y="1774" on="1"/>
      </contour>
      <contour>
        <pt x="1157" y="66" on="1"/>
        <pt x="1157" y="0" on="1"/>
        <pt x="197" y="0" on="1"/>
        <pt x="197" y="1454" on="1"/>
        <pt x="1139" y="1454" on="1"/>
        <pt x="1139" y="1389" on="1"/>
        <pt x="268" y="1389" on="1"/>
        <pt x="268" y="776" on="1"/>
        <pt x="1030" y="776" on="1"/>
        <pt x="1030" y="711" on="1"/>
        <pt x="268" y="711" on="1"/>
        <pt x="268" y="66" on="1"/>
      </contour>
    </TTGlyph>
    <TTGlyph name="Emacronacute" xMin="197" yMin="0" xMax="1157" yMax="2261">
      <contour>
        <pt x="723" y="2073" on="1"/>
        <pt x="674" y="2099" on="1"/>
        <pt x="801" y="2261" on="1"/>
        <pt x="893" y="2261" on="1"/>
      </contour>
      <contour>
        <pt x="412" y="1774" on="1"/>
        <pt x="412" y="1831" on="1"/>
        <pt x="991" y="1831" on="1"/>
        <pt x="991" y="1774" on="1"/>
      </contour>
      <contour>
        <pt x="1157" y="66" on="1"/>
        <pt x="1157" y="0" on="1"/>
        <pt x="197" y="0" on="1"/>
        <pt x="197" y="1454" on="1"/>
        <pt x="1139" y="1454" on="1"/>
        <pt x="1139" y="1389" on="1"/>
        <pt x="268" y="1389" on="1"/>
        <pt x="268" y="776" on="1"/>
        <pt x="1030" y="776" on="1"/>
        <pt x="1030" y="711" on="1"/>
        <pt x="268" y="711" on="1"/>
        <pt x="268" y="66" on="1"/>
      </contour>
    </TTGlyph>
    <TTGlyph name="Emacrongrave" xMin="197" yMin="0" xMax="1157" yMax="2263">
      <contour>
        <pt x="547" y="2263" on="1"/>
        <pt x="637" y="2263" on="1"/>
        <pt x="766" y="2101" on="1"/>
        <pt x="717" y="2075" on="1"/>
      </contour>
      <contour>
        <pt x="412" y="1774" on="1"/>
        <pt x="412" y="1831" on="1"/>
        <pt x="991" y="1831" on="1"/>
        <pt x="991" y="1774" on="1"/>
      </contour>
      <contour>
        <pt x="1157" y="66" on="1"/>
        <pt x="1157" y="0" on="1"/>
        <pt x="197" y="0" on="1"/>
        <pt x="197" y="1454" on="1"/>
        <pt x="1139" y="1454" on="1"/>
        <pt x="1139" y="1389" on="1"/>
        <pt x="268" y="1389" on="1"/>
        <pt x="268" y="776" on="1"/>
        <pt x="1030" y="776" on="1"/>
        <pt x="1030" y="711" on="1"/>
        <pt x="268" y="711" on="1"/>
        <pt x="268" y="66" on="1"/>
      </contour>
    </TTGlyph>
    <TTGlyph name="Endescendercyrillic" xMin="197" yMin="-276" xMax="1475" yMax="1454">
      <contour>
        <pt x="1305" y="66" on="1"/>
        <pt x="1475" y="66" on="1"/>
        <pt x="1475" y="-276" on="1"/>
        <pt x="1409" y="-276" on="1"/>
        <pt x="1409" y="0" on="1"/>
        <pt x="1235" y="0" on="1"/>
        <pt x="1235" y="711" on="1"/>
        <pt x="268" y="711" on="1"/>
        <pt x="268" y="0" on="1"/>
        <pt x="197" y="0" on="1"/>
        <pt x="197" y="1454" on="1"/>
        <pt x="268" y="1454" on="1"/>
        <pt x="268" y="776" on="1"/>
        <pt x="1235" y="776" on="1"/>
        <pt x="1235" y="1454" on="1"/>
        <pt x="1305" y="1454" on="1"/>
      </contour>
    </TTGlyph>
    <TTGlyph name="Eng" xMin="197" yMin="-354" xMax="1386" yMax="1454">
      <contour>
        <pt x="268" y="1319" on="1"/>
        <pt x="268" y="0" on="1"/>
        <pt x="197" y="0" on="1"/>
        <pt x="197" y="1454" on="1"/>
        <pt x="250" y="1454" on="1"/>
        <pt x="1317" y="115" on="1"/>
        <pt x="1317" y="1452" on="1"/>
        <pt x="1386" y="1452" on="1"/>
        <pt x="1386" y="-68" on="1"/>
        <pt x="1386" y="-189" on="0"/>
        <pt x="1209" y="-354" on="0"/>
        <pt x="1102" y="-354" on="1"/>
        <pt x="963" y="-354" on="0"/>
        <pt x="889" y="-283" on="1"/>
        <pt x="932" y="-238" on="1"/>
        <pt x="990" y="-289" on="0"/>
        <pt x="1096" y="-289" on="1"/>
        <pt x="1179" y="-289" on="0"/>
        <pt x="1317" y="-159" on="0"/>
        <pt x="1317" y="-68" on="1"/>
        <pt x="1317" y="0" on="1"/>
      </contour>
    </TTGlyph>
    <TTGlyph name="Enghecyrillic" xMin="197" yMin="0" xMax="2023" yMax="1454">
      <contour>
        <pt x="2023" y="1454" on="1"/>
        <pt x="2023" y="1389" on="1"/>
        <pt x="1305" y="1389" on="1"/>
        <pt x="1305" y="0" on="1"/>
        <pt x="1235" y="0" on="1"/>
        <pt x="1235" y="711" on="1"/>
        <pt x="268" y="711" on="1"/>
        <pt x="268" y="0" on="1"/>
        <pt x="197" y="0" on="1"/>
        <pt x="197" y="1454" on="1"/>
        <pt x="268" y="1454" on="1"/>
        <pt x="268" y="776" on="1"/>
        <pt x="1235" y="776" on="1"/>
        <pt x="1235" y="1452" on="1"/>
        <pt x="1233" y="1454" on="1"/>
      </contour>
    </TTGlyph>
    <TTGlyph name="Eogonek" xMin="197" yMin="-346" xMax="1157" yMax="1454">
      <contour>
        <pt x="1157" y="0" on="1"/>
        <pt x="1072" y="-65" on="0"/>
        <pt x="999" y="-156" on="0"/>
        <pt x="999" y="-199" on="1"/>
        <pt x="999" y="-237" on="0"/>
        <pt x="1068" y="-280" on="0"/>
        <pt x="1149" y="-295" on="1"/>
        <pt x="1122" y="-346" on="1"/>
        <pt x="1024" y="-332" on="0"/>
        <pt x="940" y="-261" on="0"/>
        <pt x="940" y="-207" on="1"/>
        <pt x="940" y="-112" on="0"/>
        <pt x="1079" y="0" on="1"/>
        <pt x="197" y="0" on="1"/>
        <pt x="197" y="1454" on="1"/>
        <pt x="1139" y="1454" on="1"/>
        <pt x="1139" y="1389" on="1"/>
        <pt x="268" y="1389" on="1"/>
        <pt x="268" y="776" on="1"/>
        <pt x="1030" y="776" on="1"/>
        <pt x="1030" y="711" on="1"/>
        <pt x="268" y="711" on="1"/>
        <pt x="268" y="66" on="1"/>
        <pt x="1157" y="66" on="1"/>
      </contour>
    </TTGlyph>
    <TTGlyph name="Esdescendercyrillic" xMin="94" yMin="-287" xMax="1348" yMax="1462">
      <contour>
        <pt x="1348" y="326" on="1"/>
        <pt x="1303" y="225" on="0"/>
        <pt x="1123" y="72" on="0"/>
        <pt x="912" y="-7" on="0"/>
        <pt x="803" y="-12" on="1"/>
        <pt x="803" y="-287" on="1"/>
        <pt x="739" y="-287" on="1"/>
        <pt x="739" y="-12" on="1"/>
        <pt x="628" y="-6" on="0"/>
        <pt x="425" y="84" on="0"/>
        <pt x="270" y="231" on="0"/>
        <pt x="154" y="417" on="0"/>
        <pt x="94" y="630" on="0"/>
        <pt x="94" y="737" on="1"/>
        <pt x="94" y="842" on="0"/>
        <pt x="152" y="1050" on="0"/>
        <pt x="270" y="1236" on="0"/>
        <pt x="432" y="1378" on="0"/>
        <pt x="655" y="1462" on="0"/>
        <pt x="782" y="1462" on="1"/>
        <pt x="969" y="1462" on="0"/>
        <pt x="1246" y="1289" on="0"/>
        <pt x="1315" y="1145" on="1"/>
        <pt x="1253" y="1116" on="1"/>
        <pt x="1215" y="1191" on="0"/>
        <pt x="1104" y="1302" on="0"/>
        <pt x="976" y="1365" on="0"/>
        <pt x="844" y="1395" on="0"/>
        <pt x="774" y="1395" on="1"/>
        <pt x="661" y="1395" on="0"/>
        <pt x="463" y="1319" on="0"/>
        <pt x="320" y="1190" on="0"/>
        <pt x="217" y="1020" on="0"/>
        <pt x="166" y="829" on="0"/>
        <pt x="166" y="731" on="1"/>
        <pt x="166" y="555" on="0"/>
        <pt x="328" y="244" on="0"/>
        <pt x="612" y="55" on="0"/>
        <pt x="780" y="55" on="1"/>
        <pt x="876" y="55" on="0"/>
        <pt x="1061" y="115" on="0"/>
        <pt x="1233" y="252" on="0"/>
        <pt x="1284" y="350" on="1"/>
      </contour>
    </TTGlyph>
    <TTGlyph name="Eth" xMin="72" yMin="0" xMax="1372" yMax="1454">
      <contour>
        <pt x="686" y="1454" on="1"/>
        <pt x="821" y="1454" on="0"/>
        <pt x="1046" y="1380" on="0"/>
        <pt x="1206" y="1248" on="0"/>
        <pt x="1318" y="1066" on="0"/>
        <pt x="1372" y="850" on="0"/>
        <pt x="1372" y="729" on="1"/>
        <pt x="1372" y="398" on="0"/>
        <pt x="1000" y="0" on="0"/>
        <pt x="686" y="0" on="1"/>
        <pt x="211" y="0" on="1"/>
        <pt x="211" y="700" on="1"/>
        <pt x="72" y="700" on="1"/>
        <pt x="72" y="762" on="1"/>
        <pt x="211" y="762" on="1"/>
        <pt x="211" y="1454" on="1"/>
      </contour>
      <contour>
        <pt x="686" y="66" on="1"/>
        <pt x="834" y="66" on="0"/>
        <pt x="1069" y="167" on="0"/>
        <pt x="1220" y="346" on="0"/>
        <pt x="1300" y="587" on="0"/>
        <pt x="1300" y="729" on="1"/>
        <pt x="1300" y="873" on="0"/>
        <pt x="1218" y="1115" on="0"/>
        <pt x="1065" y="1291" on="0"/>
        <pt x="831" y="1389" on="0"/>
        <pt x="686" y="1389" on="1"/>
        <pt x="283" y="1389" on="1"/>
        <pt x="283" y="762" on="1"/>
        <pt x="662" y="762" on="1"/>
        <pt x="662" y="700" on="1"/>
        <pt x="283" y="700" on="1"/>
        <pt x="283" y="66" on="1"/>
      </contour>
    </TTGlyph>
    <TTGlyph name="Etilde" xMin="197" yMin="0" xMax="1157" yMax="1878">
      <contour>
        <pt x="561" y="1804" on="1"/>
        <pt x="531" y="1804" on="0"/>
        <pt x="486" y="1778" on="0"/>
        <pt x="466" y="1740" on="0"/>
        <pt x="457" y="1713" on="0"/>
        <pt x="457" y="1706" on="1"/>
        <pt x="403" y="1706" on="1"/>
        <pt x="403" y="1714" on="0"/>
        <pt x="409" y="1744" on="0"/>
        <pt x="429" y="1791" on="0"/>
        <pt x="462" y="1831" on="0"/>
        <pt x="523" y="1860" on="0"/>
        <pt x="563" y="1860" on="1"/>
        <pt x="618" y="1860" on="0"/>
        <pt x="770" y="1780" on="0"/>
        <pt x="821" y="1780" on="1"/>
        <pt x="852" y="1780" on="0"/>
        <pt x="899" y="1799" on="0"/>
        <pt x="923" y="1825" on="0"/>
        <pt x="937" y="1856" on="0"/>
        <pt x="940" y="1873" on="0"/>
        <pt x="940" y="1878" on="1"/>
        <pt x="995" y="1878" on="1"/>
        <pt x="995" y="1869" on="0"/>
        <pt x="989" y="1839" on="0"/>
        <pt x="966" y="1793" on="0"/>
        <pt x="930" y="1754" on="0"/>
        <pt x="862" y="1726" on="0"/>
        <pt x="819" y="1726" on="1"/>
        <pt x="767" y="1726" on="0"/>
        <pt x="673" y="1765" on="0"/>
        <pt x="595" y="1804" on="0"/>
      </contour>
      <contour>
        <pt x="1157" y="66" on="1"/>
        <pt x="1157" y="0" on="1"/>
        <pt x="197" y="0" on="1"/>
        <pt x="197" y="1454" on="1"/>
        <pt x="1139" y="1454" on="1"/>
        <pt x="1139" y="1389" on="1"/>
        <pt x="268" y="1389" on="1"/>
        <pt x="268" y="776" on="1"/>
        <pt x="1030" y="776" on="1"/>
        <pt x="1030" y="711" on="1"/>
        <pt x="268" y="711" on="1"/>
        <pt x="268" y="66" on="1"/>
      </contour>
    </TTGlyph>
    <TTGlyph name="Euro" xMin="68" yMin="-12" xMax="1550" yMax="1462">
      <contour>
        <pt x="1487" y="350" on="1"/>
        <pt x="1550" y="326" on="1"/>
        <pt x="1503" y="221" on="0"/>
        <pt x="1312" y="64" on="0"/>
        <pt x="1088" y="-12" on="0"/>
        <pt x="975" y="-12" on="1"/>
        <pt x="851" y="-12" on="0"/>
        <pt x="624" y="85" on="0"/>
        <pt x="456" y="250" on="0"/>
        <pt x="338" y="464" on="0"/>
        <pt x="313" y="582" on="1"/>
        <pt x="68" y="582" on="1"/>
        <pt x="92" y="637" on="1"/>
        <pt x="303" y="637" on="1"/>
        <pt x="297" y="687" on="0"/>
        <pt x="297" y="737" on="1"/>
        <pt x="297" y="764" on="0"/>
        <pt x="299" y="776" on="1"/>
        <pt x="143" y="776" on="1"/>
        <pt x="168" y="829" on="1"/>
        <pt x="303" y="829" on="1"/>
        <pt x="315" y="926" on="0"/>
        <pt x="386" y="1109" on="0"/>
        <pt x="506" y="1270" on="0"/>
        <pt x="662" y="1392" on="0"/>
        <pt x="869" y="1462" on="0"/>
        <pt x="985" y="1462" on="1"/>
        <pt x="1172" y="1462" on="0"/>
        <pt x="1449" y="1289" on="0"/>
        <pt x="1518" y="1145" on="1"/>
        <pt x="1456" y="1116" on="1"/>
        <pt x="1418" y="1191" on="0"/>
        <pt x="1307" y="1302" on="0"/>
        <pt x="1179" y="1365" on="0"/>
        <pt x="1047" y="1395" on="0"/>
        <pt x="977" y="1395" on="1"/>
        <pt x="850" y="1395" on="0"/>
        <pt x="633" y="1301" on="0"/>
        <pt x="484" y="1141" on="0"/>
        <pt x="390" y="940" on="0"/>
        <pt x="375" y="829" on="1"/>
        <pt x="1149" y="829" on="1"/>
        <pt x="1124" y="776" on="1"/>
        <pt x="371" y="776" on="1"/>
        <pt x="369" y="762" on="0"/>
        <pt x="369" y="731" on="1"/>
        <pt x="369" y="684" on="0"/>
        <pt x="375" y="637" on="1"/>
        <pt x="1069" y="637" on="1"/>
        <pt x="1044" y="582" on="1"/>
        <pt x="385" y="582" on="1"/>
        <pt x="416" y="436" on="0"/>
        <pt x="585" y="197" on="0"/>
        <pt x="839" y="55" on="0"/>
        <pt x="983" y="55" on="1"/>
        <pt x="1079" y="55" on="0"/>
        <pt x="1264" y="115" on="0"/>
        <pt x="1436" y="252" on="0"/>
      </contour>
    </TTGlyph>
    <TTGlyph name="F" xMin="197" yMin="0" xMax="1139" yMax="1454">
      <contour>
        <pt x="197" y="0" on="1"/>
        <pt x="197" y="1454" on="1"/>
        <pt x="1139" y="1454" on="1"/>
        <pt x="1139" y="1389" on="1"/>
        <pt x="268" y="1389" on="1"/>
        <pt x="268" y="774" on="1"/>
        <pt x="1008" y="774" on="1"/>
        <pt x="1008" y="711" on="1"/>
        <pt x="268" y="711" on="1"/>
        <pt x="268" y="0" on="1"/>
      </contour>
    </TTGlyph>
    <TTGlyph name="G" xMin="94" yMin="-10" xMax="1352" yMax="1464">
      <contour>
        <pt x="950" y="698" on="1"/>
        <pt x="1352" y="698" on="1"/>
        <pt x="1352" y="0" on="1"/>
        <pt x="1286" y="0" on="1"/>
        <pt x="1286" y="238" on="1"/>
        <pt x="1069" y="-10" on="0"/>
        <pt x="778" y="-10" on="1"/>
        <pt x="633" y="-10" on="0"/>
        <pt x="374" y="119" on="0"/>
        <pt x="197" y="328" on="0"/>
        <pt x="94" y="592" on="0"/>
        <pt x="94" y="727" on="1"/>
        <pt x="94" y="870" on="0"/>
        <pt x="195" y="1138" on="0"/>
        <pt x="368" y="1341" on="0"/>
        <pt x="619" y="1464" on="0"/>
        <pt x="760" y="1464" on="1"/>
        <pt x="1156" y="1464" on="0"/>
        <pt x="1315" y="1147" on="1"/>
        <pt x="1253" y="1116" on="1"/>
        <pt x="1106" y="1397" on="0"/>
        <pt x="758" y="1397" on="1"/>
        <pt x="626" y="1397" on="0"/>
        <pt x="399" y="1281" on="0"/>
        <pt x="250" y="1092" on="0"/>
        <pt x="166" y="852" on="0"/>
        <pt x="166" y="727" on="1"/>
        <pt x="166" y="552" on="0"/>
        <pt x="329" y="244" on="0"/>
        <pt x="614" y="57" on="0"/>
        <pt x="782" y="57" on="1"/>
        <pt x="1059" y="57" on="0"/>
        <pt x="1286" y="322" on="1"/>
        <pt x="1286" y="637" on="1"/>
        <pt x="950" y="637" on="1"/>
      </contour>
    </TTGlyph>
    <TTGlyph name="G.ss11" xMin="94" yMin="-10" xMax="1448" yMax="1464">
      <contour>
        <pt x="94" y="729" on="1"/>
        <pt x="94" y="872" on="0"/>
        <pt x="199" y="1140" on="0"/>
        <pt x="378" y="1342" on="0"/>
        <pt x="634" y="1464" on="0"/>
        <pt x="776" y="1464" on="1"/>
        <pt x="950" y="1464" on="0"/>
        <pt x="1238" y="1290" on="0"/>
        <pt x="1329" y="1145" on="1"/>
        <pt x="1276" y="1098" on="1"/>
        <pt x="1196" y="1232" on="0"/>
        <pt x="931" y="1397" on="0"/>
        <pt x="772" y="1397" on="1"/>
        <pt x="641" y="1397" on="0"/>
        <pt x="410" y="1281" on="0"/>
        <pt x="255" y="1091" on="0"/>
        <pt x="166" y="849" on="0"/>
        <pt x="166" y="723" on="1"/>
        <pt x="166" y="553" on="0"/>
        <pt x="319" y="249" on="0"/>
        <pt x="602" y="57" on="0"/>
        <pt x="774" y="57" on="1"/>
        <pt x="892" y="57" on="0"/>
        <pt x="1105" y="151" on="0"/>
        <pt x="1256" y="308" on="0"/>
        <pt x="1357" y="509" on="0"/>
        <pt x="1372" y="618" on="1"/>
        <pt x="891" y="618" on="1"/>
        <pt x="891" y="686" on="1"/>
        <pt x="1448" y="686" on="1"/>
        <pt x="1448" y="663" on="0"/>
        <pt x="1444" y="631" on="1"/>
        <pt x="1429" y="504" on="0"/>
        <pt x="1315" y="272" on="0"/>
        <pt x="1143" y="95" on="0"/>
        <pt x="905" y="-10" on="0"/>
        <pt x="774" y="-10" on="1"/>
        <pt x="630" y="-10" on="0"/>
        <pt x="374" y="115" on="0"/>
        <pt x="197" y="321" on="0"/>
        <pt x="94" y="589" on="0"/>
      </contour>
    </TTGlyph>
    <TTGlyph name="Gbreve" xMin="94" yMin="-10" xMax="1352" yMax="1878">
      <contour>
        <pt x="758" y="1706" on="1"/>
        <pt x="690" y="1706" on="0"/>
        <pt x="592" y="1808" on="0"/>
        <pt x="592" y="1878" on="1"/>
        <pt x="645" y="1878" on="1"/>
        <pt x="645" y="1831" on="0"/>
        <pt x="715" y="1751" on="0"/>
        <pt x="758" y="1751" on="1"/>
        <pt x="799" y="1751" on="0"/>
        <pt x="866" y="1825" on="0"/>
        <pt x="872" y="1878" on="1"/>
        <pt x="924" y="1878" on="1"/>
        <pt x="924" y="1808" on="0"/>
        <pt x="824" y="1706" on="0"/>
      </contour>
      <contour>
        <pt x="950" y="698" on="1"/>
        <pt x="1352" y="698" on="1"/>
        <pt x="1352" y="0" on="1"/>
        <pt x="1286" y="0" on="1"/>
        <pt x="1286" y="238" on="1"/>
        <pt x="1069" y="-10" on="0"/>
        <pt x="778" y="-10" on="1"/>
        <pt x="633" y="-10" on="0"/>
        <pt x="374" y="119" on="0"/>
        <pt x="197" y="328" on="0"/>
        <pt x="94" y="592" on="0"/>
        <pt x="94" y="727" on="1"/>
        <pt x="94" y="870" on="0"/>
        <pt x="195" y="1138" on="0"/>
        <pt x="368" y="1341" on="0"/>
        <pt x="619" y="1464" on="0"/>
        <pt x="760" y="1464" on="1"/>
        <pt x="1156" y="1464" on="0"/>
        <pt x="1315" y="1147" on="1"/>
        <pt x="1253" y="1116" on="1"/>
        <pt x="1106" y="1397" on="0"/>
        <pt x="758" y="1397" on="1"/>
        <pt x="626" y="1397" on="0"/>
        <pt x="399" y="1281" on="0"/>
        <pt x="250" y="1092" on="0"/>
        <pt x="166" y="852" on="0"/>
        <pt x="166" y="727" on="1"/>
        <pt x="166" y="552" on="0"/>
        <pt x="329" y="244" on="0"/>
        <pt x="614" y="57" on="0"/>
        <pt x="782" y="57" on="1"/>
        <pt x="1059" y="57" on="0"/>
        <pt x="1286" y="322" on="1"/>
        <pt x="1286" y="637" on="1"/>
        <pt x="950" y="637" on="1"/>
      </contour>
    </TTGlyph>
    <TTGlyph name="Gcaron" xMin="94" yMin="-10" xMax="1352" yMax="1878">
      <contour>
        <pt x="784" y="1690" on="1"/>
        <pt x="731" y="1690" on="1"/>
        <pt x="539" y="1849" on="1"/>
        <pt x="584" y="1878" on="1"/>
        <pt x="758" y="1749" on="1"/>
        <pt x="932" y="1878" on="1"/>
        <pt x="979" y="1849" on="1"/>
      </contour>
      <contour>
        <pt x="950" y="698" on="1"/>
        <pt x="1352" y="698" on="1"/>
        <pt x="1352" y="0" on="1"/>
        <pt x="1286" y="0" on="1"/>
        <pt x="1286" y="238" on="1"/>
        <pt x="1069" y="-10" on="0"/>
        <pt x="778" y="-10" on="1"/>
        <pt x="633" y="-10" on="0"/>
        <pt x="374" y="119" on="0"/>
        <pt x="197" y="328" on="0"/>
        <pt x="94" y="592" on="0"/>
        <pt x="94" y="727" on="1"/>
        <pt x="94" y="870" on="0"/>
        <pt x="195" y="1138" on="0"/>
        <pt x="368" y="1341" on="0"/>
        <pt x="619" y="1464" on="0"/>
        <pt x="760" y="1464" on="1"/>
        <pt x="1156" y="1464" on="0"/>
        <pt x="1315" y="1147" on="1"/>
        <pt x="1253" y="1116" on="1"/>
        <pt x="1106" y="1397" on="0"/>
        <pt x="758" y="1397" on="1"/>
        <pt x="626" y="1397" on="0"/>
        <pt x="399" y="1281" on="0"/>
        <pt x="250" y="1092" on="0"/>
        <pt x="166" y="852" on="0"/>
        <pt x="166" y="727" on="1"/>
        <pt x="166" y="552" on="0"/>
        <pt x="329" y="244" on="0"/>
        <pt x="614" y="57" on="0"/>
        <pt x="782" y="57" on="1"/>
        <pt x="1059" y="57" on="0"/>
        <pt x="1286" y="322" on="1"/>
        <pt x="1286" y="637" on="1"/>
        <pt x="950" y="637" on="1"/>
      </contour>
    </TTGlyph>
    <TTGlyph name="Gcedilla" xMin="94" yMin="-360" xMax="1352" yMax="1464">
      <contour>
        <pt x="950" y="698" on="1"/>
        <pt x="1352" y="698" on="1"/>
        <pt x="1352" y="0" on="1"/>
        <pt x="1286" y="0" on="1"/>
        <pt x="1286" y="238" on="1"/>
        <pt x="1069" y="-10" on="0"/>
        <pt x="778" y="-10" on="1"/>
        <pt x="633" y="-10" on="0"/>
        <pt x="374" y="119" on="0"/>
        <pt x="197" y="328" on="0"/>
        <pt x="94" y="592" on="0"/>
        <pt x="94" y="727" on="1"/>
        <pt x="94" y="870" on="0"/>
        <pt x="195" y="1138" on="0"/>
        <pt x="368" y="1341" on="0"/>
        <pt x="619" y="1464" on="0"/>
        <pt x="760" y="1464" on="1"/>
        <pt x="1156" y="1464" on="0"/>
        <pt x="1315" y="1147" on="1"/>
        <pt x="1253" y="1116" on="1"/>
        <pt x="1106" y="1397" on="0"/>
        <pt x="758" y="1397" on="1"/>
        <pt x="626" y="1397" on="0"/>
        <pt x="399" y="1281" on="0"/>
        <pt x="250" y="1092" on="0"/>
        <pt x="166" y="852" on="0"/>
        <pt x="166" y="727" on="1"/>
        <pt x="166" y="552" on="0"/>
        <pt x="329" y="244" on="0"/>
        <pt x="614" y="57" on="0"/>
        <pt x="782" y="57" on="1"/>
        <pt x="1059" y="57" on="0"/>
        <pt x="1286" y="322" on="1"/>
        <pt x="1286" y="637" on="1"/>
        <pt x="950" y="637" on="1"/>
      </contour>
      <contour>
        <pt x="737" y="-233" on="1"/>
        <pt x="737" y="-102" on="1"/>
        <pt x="813" y="-102" on="1"/>
        <pt x="813" y="-233" on="1"/>
        <pt x="778" y="-360" on="1"/>
        <pt x="737" y="-360" on="1"/>
        <pt x="762" y="-233" on="1"/>
      </contour>
    </TTGlyph>
    <TTGlyph name="Gcircumflex" xMin="94" yMin="-10" xMax="1352" yMax="1878">
      <contour>
        <pt x="758" y="1819" on="1"/>
        <pt x="584" y="1690" on="1"/>
        <pt x="539" y="1720" on="1"/>
        <pt x="731" y="1878" on="1"/>
        <pt x="784" y="1878" on="1"/>
        <pt x="979" y="1720" on="1"/>
        <pt x="932" y="1690" on="1"/>
      </contour>
      <contour>
        <pt x="950" y="698" on="1"/>
        <pt x="1352" y="698" on="1"/>
        <pt x="1352" y="0" on="1"/>
        <pt x="1286" y="0" on="1"/>
        <pt x="1286" y="238" on="1"/>
        <pt x="1069" y="-10" on="0"/>
        <pt x="778" y="-10" on="1"/>
        <pt x="633" y="-10" on="0"/>
        <pt x="374" y="119" on="0"/>
        <pt x="197" y="328" on="0"/>
        <pt x="94" y="592" on="0"/>
        <pt x="94" y="727" on="1"/>
        <pt x="94" y="870" on="0"/>
        <pt x="195" y="1138" on="0"/>
        <pt x="368" y="1341" on="0"/>
        <pt x="619" y="1464" on="0"/>
        <pt x="760" y="1464" on="1"/>
        <pt x="1156" y="1464" on="0"/>
        <pt x="1315" y="1147" on="1"/>
        <pt x="1253" y="1116" on="1"/>
        <pt x="1106" y="1397" on="0"/>
        <pt x="758" y="1397" on="1"/>
        <pt x="626" y="1397" on="0"/>
        <pt x="399" y="1281" on="0"/>
        <pt x="250" y="1092" on="0"/>
        <pt x="166" y="852" on="0"/>
        <pt x="166" y="727" on="1"/>
        <pt x="166" y="552" on="0"/>
        <pt x="329" y="244" on="0"/>
        <pt x="614" y="57" on="0"/>
        <pt x="782" y="57" on="1"/>
        <pt x="1059" y="57" on="0"/>
        <pt x="1286" y="322" on="1"/>
        <pt x="1286" y="637" on="1"/>
        <pt x="950" y="637" on="1"/>
      </contour>
    </TTGlyph>
    <TTGlyph name="Gdot" xMin="94" yMin="-10" xMax="1352" yMax="1878">
      <contour>
        <pt x="791" y="1878" on="1"/>
        <pt x="791" y="1708" on="1"/>
        <pt x="725" y="1708" on="1"/>
        <pt x="725" y="1878" on="1"/>
      </contour>
      <contour>
        <pt x="950" y="698" on="1"/>
        <pt x="1352" y="698" on="1"/>
        <pt x="1352" y="0" on="1"/>
        <pt x="1286" y="0" on="1"/>
        <pt x="1286" y="238" on="1"/>
        <pt x="1069" y="-10" on="0"/>
        <pt x="778" y="-10" on="1"/>
        <pt x="633" y="-10" on="0"/>
        <pt x="374" y="119" on="0"/>
        <pt x="197" y="328" on="0"/>
        <pt x="94" y="592" on="0"/>
        <pt x="94" y="727" on="1"/>
        <pt x="94" y="870" on="0"/>
        <pt x="195" y="1138" on="0"/>
        <pt x="368" y="1341" on="0"/>
        <pt x="619" y="1464" on="0"/>
        <pt x="760" y="1464" on="1"/>
        <pt x="1156" y="1464" on="0"/>
        <pt x="1315" y="1147" on="1"/>
        <pt x="1253" y="1116" on="1"/>
        <pt x="1106" y="1397" on="0"/>
        <pt x="758" y="1397" on="1"/>
        <pt x="626" y="1397" on="0"/>
        <pt x="399" y="1281" on="0"/>
        <pt x="250" y="1092" on="0"/>
        <pt x="166" y="852" on="0"/>
        <pt x="166" y="727" on="1"/>
        <pt x="166" y="552" on="0"/>
        <pt x="329" y="244" on="0"/>
        <pt x="614" y="57" on="0"/>
        <pt x="782" y="57" on="1"/>
        <pt x="1059" y="57" on="0"/>
        <pt x="1286" y="322" on="1"/>
        <pt x="1286" y="637" on="1"/>
        <pt x="950" y="637" on="1"/>
      </contour>
    </TTGlyph>
    <TTGlyph name="Ghemiddlehookcyrillic" xMin="197" yMin="-225" xMax="1126" yMax="1454">
      <contour>
        <pt x="670" y="803" on="1"/>
        <pt x="891" y="803" on="0"/>
        <pt x="1126" y="530" on="0"/>
        <pt x="1126" y="276" on="1"/>
        <pt x="1126" y="24" on="0"/>
        <pt x="906" y="-225" on="0"/>
        <pt x="709" y="-225" on="1"/>
        <pt x="645" y="-225" on="0"/>
        <pt x="563" y="-209" on="1"/>
        <pt x="571" y="-147" on="1"/>
        <pt x="659" y="-162" on="0"/>
        <pt x="705" y="-162" on="1"/>
        <pt x="876" y="-162" on="0"/>
        <pt x="1057" y="58" on="0"/>
        <pt x="1057" y="276" on="1"/>
        <pt x="1057" y="503" on="0"/>
        <pt x="856" y="737" on="0"/>
        <pt x="664" y="737" on="1"/>
        <pt x="469" y="737" on="0"/>
        <pt x="268" y="631" on="1"/>
        <pt x="268" y="0" on="1"/>
        <pt x="197" y="0" on="1"/>
        <pt x="197" y="1454" on="1"/>
        <pt x="987" y="1454" on="1"/>
        <pt x="987" y="1389" on="1"/>
        <pt x="268" y="1389" on="1"/>
        <pt x="268" y="698" on="1"/>
        <pt x="470" y="803" on="0"/>
      </contour>
    </TTGlyph>
    <TTGlyph name="Ghestrokecyrillic" xMin="0" yMin="0" xMax="1042" yMax="1454">
      <contour>
        <pt x="1042" y="1389" on="1"/>
        <pt x="324" y="1389" on="1"/>
        <pt x="324" y="750" on="1"/>
        <pt x="776" y="750" on="1"/>
        <pt x="776" y="692" on="1"/>
        <pt x="324" y="692" on="1"/>
        <pt x="324" y="0" on="1"/>
        <pt x="252" y="0" on="1"/>
        <pt x="252" y="692" on="1"/>
        <pt x="0" y="692" on="1"/>
        <pt x="0" y="750" on="1"/>
        <pt x="252" y="750" on="1"/>
        <pt x="252" y="1454" on="1"/>
        <pt x="1042" y="1454" on="1"/>
      </contour>
    </TTGlyph>
    <TTGlyph name="Gmacron" xMin="94" yMin="-10" xMax="1352" yMax="1831">
      <contour>
        <pt x="1049" y="1831" on="1"/>
        <pt x="1049" y="1774" on="1"/>
        <pt x="469" y="1774" on="1"/>
        <pt x="469" y="1831" on="1"/>
      </contour>
      <contour>
        <pt x="950" y="698" on="1"/>
        <pt x="1352" y="698" on="1"/>
        <pt x="1352" y="0" on="1"/>
        <pt x="1286" y="0" on="1"/>
        <pt x="1286" y="238" on="1"/>
        <pt x="1069" y="-10" on="0"/>
        <pt x="778" y="-10" on="1"/>
        <pt x="633" y="-10" on="0"/>
        <pt x="374" y="119" on="0"/>
        <pt x="197" y="328" on="0"/>
        <pt x="94" y="592" on="0"/>
        <pt x="94" y="727" on="1"/>
        <pt x="94" y="870" on="0"/>
        <pt x="195" y="1138" on="0"/>
        <pt x="368" y="1341" on="0"/>
        <pt x="619" y="1464" on="0"/>
        <pt x="760" y="1464" on="1"/>
        <pt x="1156" y="1464" on="0"/>
        <pt x="1315" y="1147" on="1"/>
        <pt x="1253" y="1116" on="1"/>
        <pt x="1106" y="1397" on="0"/>
        <pt x="758" y="1397" on="1"/>
        <pt x="626" y="1397" on="0"/>
        <pt x="399" y="1281" on="0"/>
        <pt x="250" y="1092" on="0"/>
        <pt x="166" y="852" on="0"/>
        <pt x="166" y="727" on="1"/>
        <pt x="166" y="552" on="0"/>
        <pt x="329" y="244" on="0"/>
        <pt x="614" y="57" on="0"/>
        <pt x="782" y="57" on="1"/>
        <pt x="1059" y="57" on="0"/>
        <pt x="1286" y="322" on="1"/>
        <pt x="1286" y="637" on="1"/>
        <pt x="950" y="637" on="1"/>
      </contour>
    </TTGlyph>
    <TTGlyph name="H" xMin="197" yMin="0" xMax="1305" yMax="1454">
      <contour>
        <pt x="1305" y="1454" on="1"/>
        <pt x="1305" y="0" on="1"/>
        <pt x="1235" y="0" on="1"/>
        <pt x="1235" y="711" on="1"/>
        <pt x="268" y="711" on="1"/>
        <pt x="268" y="0" on="1"/>
        <pt x="197" y="0" on="1"/>
        <pt x="197" y="1454" on="1"/>
        <pt x="268" y="1454" on="1"/>
        <pt x="268" y="776" on="1"/>
        <pt x="1235" y="776" on="1"/>
        <pt x="1235" y="1454" on="1"/>
      </contour>
    </TTGlyph>
    <TTGlyph name="Hbar" xMin="104" yMin="0" xMax="1417" yMax="1454">
      <contour>
        <pt x="1417" y="1184" on="1"/>
        <pt x="1417" y="1124" on="1"/>
        <pt x="1315" y="1124" on="1"/>
        <pt x="1315" y="0" on="1"/>
        <pt x="1245" y="0" on="1"/>
        <pt x="1245" y="711" on="1"/>
        <pt x="279" y="711" on="1"/>
        <pt x="279" y="0" on="1"/>
        <pt x="207" y="0" on="1"/>
        <pt x="207" y="1124" on="1"/>
        <pt x="104" y="1124" on="1"/>
        <pt x="104" y="1184" on="1"/>
        <pt x="207" y="1184" on="1"/>
        <pt x="207" y="1454" on="1"/>
        <pt x="279" y="1454" on="1"/>
        <pt x="279" y="1184" on="1"/>
        <pt x="1245" y="1184" on="1"/>
        <pt x="1245" y="1454" on="1"/>
        <pt x="1315" y="1454" on="1"/>
        <pt x="1315" y="1184" on="1"/>
      </contour>
      <contour>
        <pt x="1245" y="776" on="1"/>
        <pt x="1245" y="1124" on="1"/>
        <pt x="279" y="1124" on="1"/>
        <pt x="279" y="776" on="1"/>
      </contour>
    </TTGlyph>
    <TTGlyph name="Hbrevebelow" xMin="197" yMin="-264" xMax="1305" yMax="1454">
      <contour>
        <pt x="1305" y="1454" on="1"/>
        <pt x="1305" y="0" on="1"/>
        <pt x="1235" y="0" on="1"/>
        <pt x="1235" y="711" on="1"/>
        <pt x="268" y="711" on="1"/>
        <pt x="268" y="0" on="1"/>
        <pt x="197" y="0" on="1"/>
        <pt x="197" y="1454" on="1"/>
        <pt x="268" y="1454" on="1"/>
        <pt x="268" y="776" on="1"/>
        <pt x="1235" y="776" on="1"/>
        <pt x="1235" y="1454" on="1"/>
      </contour>
      <contour>
        <pt x="866" y="-92" on="1"/>
        <pt x="918" y="-92" on="1"/>
        <pt x="918" y="-161" on="0"/>
        <pt x="818" y="-264" on="0"/>
        <pt x="752" y="-264" on="1"/>
        <pt x="685" y="-264" on="0"/>
        <pt x="586" y="-161" on="0"/>
        <pt x="586" y="-92" on="1"/>
        <pt x="639" y="-92" on="1"/>
        <pt x="639" y="-139" on="0"/>
        <pt x="709" y="-217" on="0"/>
        <pt x="752" y="-217" on="1"/>
        <pt x="793" y="-217" on="0"/>
        <pt x="860" y="-144" on="0"/>
      </contour>
    </TTGlyph>
    <TTGlyph name="Hcircumflex" xMin="197" yMin="0" xMax="1305" yMax="1878">
      <contour>
        <pt x="535" y="1720" on="1"/>
        <pt x="727" y="1878" on="1"/>
        <pt x="780" y="1878" on="1"/>
        <pt x="975" y="1720" on="1"/>
        <pt x="928" y="1690" on="1"/>
        <pt x="754" y="1819" on="1"/>
        <pt x="580" y="1690" on="1"/>
      </contour>
      <contour>
        <pt x="1305" y="1454" on="1"/>
        <pt x="1305" y="0" on="1"/>
        <pt x="1235" y="0" on="1"/>
        <pt x="1235" y="711" on="1"/>
        <pt x="268" y="711" on="1"/>
        <pt x="268" y="0" on="1"/>
        <pt x="197" y="0" on="1"/>
        <pt x="197" y="1454" on="1"/>
        <pt x="268" y="1454" on="1"/>
        <pt x="268" y="776" on="1"/>
        <pt x="1235" y="776" on="1"/>
        <pt x="1235" y="1454" on="1"/>
      </contour>
    </TTGlyph>
    <TTGlyph name="Hdotbelow" xMin="197" yMin="-285" xMax="1305" yMax="1454">
      <contour>
        <pt x="1305" y="1454" on="1"/>
        <pt x="1305" y="0" on="1"/>
        <pt x="1235" y="0" on="1"/>
        <pt x="1235" y="711" on="1"/>
        <pt x="268" y="711" on="1"/>
        <pt x="268" y="0" on="1"/>
        <pt x="197" y="0" on="1"/>
        <pt x="197" y="1454" on="1"/>
        <pt x="268" y="1454" on="1"/>
        <pt x="268" y="776" on="1"/>
        <pt x="1235" y="776" on="1"/>
        <pt x="1235" y="1454" on="1"/>
      </contour>
      <contour>
        <pt x="719" y="-285" on="1"/>
        <pt x="719" y="-115" on="1"/>
        <pt x="784" y="-115" on="1"/>
        <pt x="784" y="-285" on="1"/>
      </contour>
    </TTGlyph>
    <TTGlyph name="I" xMin="197" yMin="0" xMax="268" yMax="1454">
      <contour>
        <pt x="197" y="0" on="1"/>
        <pt x="197" y="1454" on="1"/>
        <pt x="268" y="1454" on="1"/>
        <pt x="268" y="0" on="1"/>
      </contour>
    </TTGlyph>
    <TTGlyph name="Iacute" xMin="197" yMin="0" xMax="424" yMax="1878">
      <contour>
        <pt x="254" y="1690" on="1"/>
        <pt x="205" y="1716" on="1"/>
        <pt x="332" y="1878" on="1"/>
        <pt x="424" y="1878" on="1"/>
      </contour>
      <contour>
        <pt x="197" y="0" on="1"/>
        <pt x="197" y="1454" on="1"/>
        <pt x="268" y="1454" on="1"/>
        <pt x="268" y="0" on="1"/>
      </contour>
    </TTGlyph>
    <TTGlyph name="Ibreve" xMin="66" yMin="0" xMax="397" yMax="1878">
      <contour>
        <pt x="346" y="1878" on="1"/>
        <pt x="397" y="1878" on="1"/>
        <pt x="397" y="1808" on="0"/>
        <pt x="297" y="1706" on="0"/>
        <pt x="231" y="1706" on="1"/>
        <pt x="163" y="1706" on="0"/>
        <pt x="66" y="1808" on="0"/>
        <pt x="66" y="1878" on="1"/>
        <pt x="119" y="1878" on="1"/>
        <pt x="119" y="1830" on="0"/>
        <pt x="188" y="1751" on="0"/>
        <pt x="231" y="1751" on="1"/>
        <pt x="272" y="1751" on="0"/>
        <pt x="340" y="1826" on="0"/>
      </contour>
      <contour>
        <pt x="197" y="0" on="1"/>
        <pt x="197" y="1454" on="1"/>
        <pt x="268" y="1454" on="1"/>
        <pt x="268" y="0" on="1"/>
      </contour>
    </TTGlyph>
    <TTGlyph name="Icircumflex" xMin="12" yMin="0" xMax="453" yMax="1878">
      <contour>
        <pt x="12" y="1720" on="1"/>
        <pt x="205" y="1878" on="1"/>
        <pt x="258" y="1878" on="1"/>
        <pt x="453" y="1720" on="1"/>
        <pt x="406" y="1690" on="1"/>
        <pt x="231" y="1819" on="1"/>
        <pt x="57" y="1690" on="1"/>
      </contour>
      <contour>
        <pt x="197" y="0" on="1"/>
        <pt x="197" y="1454" on="1"/>
        <pt x="268" y="1454" on="1"/>
        <pt x="268" y="0" on="1"/>
      </contour>
    </TTGlyph>
    <TTGlyph name="Idblgrave" xMin="-49" yMin="0" xMax="385" yMax="1880">
      <contour>
        <pt x="-49" y="1880" on="1"/>
        <pt x="39" y="1880" on="1"/>
        <pt x="166" y="1718" on="1"/>
        <pt x="121" y="1692" on="1"/>
      </contour>
      <contour>
        <pt x="172" y="1880" on="1"/>
        <pt x="258" y="1880" on="1"/>
        <pt x="385" y="1718" on="1"/>
        <pt x="340" y="1692" on="1"/>
      </contour>
      <contour>
        <pt x="197" y="0" on="1"/>
        <pt x="197" y="1454" on="1"/>
        <pt x="268" y="1454" on="1"/>
        <pt x="268" y="0" on="1"/>
      </contour>
    </TTGlyph>
    <TTGlyph name="Idieresis" xMin="70" yMin="0" xMax="391" yMax="1878">
      <contour>
        <pt x="70" y="1710" on="1"/>
        <pt x="70" y="1878" on="1"/>
        <pt x="133" y="1878" on="1"/>
        <pt x="133" y="1710" on="1"/>
      </contour>
      <contour>
        <pt x="328" y="1710" on="1"/>
        <pt x="328" y="1878" on="1"/>
        <pt x="391" y="1878" on="1"/>
        <pt x="391" y="1710" on="1"/>
      </contour>
      <contour>
        <pt x="197" y="0" on="1"/>
        <pt x="197" y="1454" on="1"/>
        <pt x="268" y="1454" on="1"/>
        <pt x="268" y="0" on="1"/>
      </contour>
    </TTGlyph>
    <TTGlyph name="Idieresisacute" xMin="70" yMin="0" xMax="424" yMax="2290">
      <contour>
        <pt x="254" y="2101" on="1"/>
        <pt x="205" y="2128" on="1"/>
        <pt x="332" y="2290" on="1"/>
        <pt x="424" y="2290" on="1"/>
      </contour>
      <contour>
        <pt x="70" y="1710" on="1"/>
        <pt x="70" y="1878" on="1"/>
        <pt x="133" y="1878" on="1"/>
        <pt x="133" y="1710" on="1"/>
      </contour>
      <contour>
        <pt x="328" y="1710" on="1"/>
        <pt x="328" y="1878" on="1"/>
        <pt x="391" y="1878" on="1"/>
        <pt x="391" y="1710" on="1"/>
      </contour>
      <contour>
        <pt x="197" y="0" on="1"/>
        <pt x="197" y="1454" on="1"/>
        <pt x="268" y="1454" on="1"/>
        <pt x="268" y="0" on="1"/>
      </contour>
    </TTGlyph>
    <TTGlyph name="Idieresiscyrillic" xMin="199" yMin="0" xMax="1339" yMax="1884">
      <contour>
        <pt x="608" y="1716" on="1"/>
        <pt x="608" y="1884" on="1"/>
        <pt x="672" y="1884" on="1"/>
        <pt x="672" y="1716" on="1"/>
      </contour>
      <contour>
        <pt x="866" y="1716" on="1"/>
        <pt x="866" y="1884" on="1"/>
        <pt x="930" y="1884" on="1"/>
        <pt x="930" y="1716" on="1"/>
      </contour>
      <contour>
        <pt x="199" y="0" on="1"/>
        <pt x="199" y="1454" on="1"/>
        <pt x="270" y="1454" on="1"/>
        <pt x="270" y="94" on="1"/>
        <pt x="1272" y="1454" on="1"/>
        <pt x="1339" y="1454" on="1"/>
        <pt x="1339" y="0" on="1"/>
        <pt x="1268" y="0" on="1"/>
        <pt x="1268" y="1337" on="1"/>
        <pt x="276" y="0" on="1"/>
      </contour>
    </TTGlyph>
    <TTGlyph name="Idotaccent" xMin="197" yMin="0" xMax="268" yMax="1878">
      <contour>
        <pt x="199" y="1708" on="1"/>
        <pt x="199" y="1878" on="1"/>
        <pt x="264" y="1878" on="1"/>
        <pt x="264" y="1708" on="1"/>
      </contour>
      <contour>
        <pt x="197" y="0" on="1"/>
        <pt x="197" y="1454" on="1"/>
        <pt x="268" y="1454" on="1"/>
        <pt x="268" y="0" on="1"/>
      </contour>
    </TTGlyph>
    <TTGlyph name="Idotbelow" xMin="197" yMin="-285" xMax="268" yMax="1454">
      <contour>
        <pt x="197" y="0" on="1"/>
        <pt x="197" y="1454" on="1"/>
        <pt x="268" y="1454" on="1"/>
        <pt x="268" y="0" on="1"/>
      </contour>
      <contour>
        <pt x="201" y="-285" on="1"/>
        <pt x="201" y="-115" on="1"/>
        <pt x="266" y="-115" on="1"/>
        <pt x="266" y="-285" on="1"/>
      </contour>
    </TTGlyph>
    <TTGlyph name="Iebrevecyrillic" xMin="197" yMin="0" xMax="1157" yMax="1788">
      <contour>
        <pt x="700" y="1647" on="1"/>
        <pt x="584" y="1647" on="0"/>
        <pt x="467" y="1727" on="0"/>
        <pt x="467" y="1788" on="1"/>
        <pt x="516" y="1788" on="1"/>
        <pt x="516" y="1746" on="0"/>
        <pt x="605" y="1690" on="0"/>
        <pt x="700" y="1690" on="1"/>
        <pt x="793" y="1690" on="0"/>
        <pt x="871" y="1740" on="0"/>
        <pt x="885" y="1788" on="1"/>
        <pt x="932" y="1788" on="1"/>
        <pt x="932" y="1727" on="0"/>
        <pt x="815" y="1647" on="0"/>
      </contour>
      <contour>
        <pt x="1157" y="66" on="1"/>
        <pt x="1157" y="0" on="1"/>
        <pt x="197" y="0" on="1"/>
        <pt x="197" y="1454" on="1"/>
        <pt x="1139" y="1454" on="1"/>
        <pt x="1139" y="1389" on="1"/>
        <pt x="268" y="1389" on="1"/>
        <pt x="268" y="776" on="1"/>
        <pt x="1030" y="776" on="1"/>
        <pt x="1030" y="711" on="1"/>
        <pt x="268" y="711" on="1"/>
        <pt x="268" y="66" on="1"/>
      </contour>
    </TTGlyph>
    <TTGlyph name="Igrave" xMin="78" yMin="0" xMax="297" yMax="1880">
      <contour>
        <pt x="78" y="1880" on="1"/>
        <pt x="168" y="1880" on="1"/>
        <pt x="297" y="1718" on="1"/>
        <pt x="248" y="1692" on="1"/>
      </contour>
      <contour>
        <pt x="197" y="0" on="1"/>
        <pt x="197" y="1454" on="1"/>
        <pt x="268" y="1454" on="1"/>
        <pt x="268" y="0" on="1"/>
      </contour>
    </TTGlyph>
    <TTGlyph name="Ihookabove" xMin="100" yMin="0" xMax="360" yMax="1884">
      <contour>
        <pt x="135" y="1786" on="1"/>
        <pt x="100" y="1821" on="1"/>
        <pt x="169" y="1884" on="0"/>
        <pt x="238" y="1884" on="1"/>
        <pt x="294" y="1884" on="0"/>
        <pt x="360" y="1818" on="0"/>
        <pt x="360" y="1763" on="1"/>
        <pt x="360" y="1727" on="0"/>
        <pt x="320" y="1668" on="0"/>
        <pt x="272" y="1618" on="1"/>
        <pt x="242" y="1649" on="1"/>
        <pt x="309" y="1719" on="0"/>
        <pt x="309" y="1761" on="1"/>
        <pt x="309" y="1794" on="0"/>
        <pt x="270" y="1835" on="0"/>
        <pt x="231" y="1835" on="1"/>
        <pt x="205" y="1835" on="0"/>
        <pt x="166" y="1814" on="0"/>
      </contour>
      <contour>
        <pt x="197" y="0" on="1"/>
        <pt x="197" y="1454" on="1"/>
        <pt x="268" y="1454" on="1"/>
        <pt x="268" y="0" on="1"/>
      </contour>
    </TTGlyph>
    <TTGlyph name="Iinvertedbreve" xMin="66" yMin="0" xMax="397" yMax="1878">
      <contour>
        <pt x="119" y="1706" on="1"/>
        <pt x="66" y="1706" on="1"/>
        <pt x="66" y="1776" on="0"/>
        <pt x="163" y="1878" on="0"/>
        <pt x="231" y="1878" on="1"/>
        <pt x="297" y="1878" on="0"/>
        <pt x="397" y="1776" on="0"/>
        <pt x="397" y="1706" on="1"/>
        <pt x="346" y="1706" on="1"/>
        <pt x="340" y="1758" on="0"/>
        <pt x="272" y="1833" on="0"/>
        <pt x="231" y="1833" on="1"/>
        <pt x="188" y="1833" on="0"/>
        <pt x="119" y="1754" on="0"/>
      </contour>
      <contour>
        <pt x="197" y="0" on="1"/>
        <pt x="197" y="1454" on="1"/>
        <pt x="268" y="1454" on="1"/>
        <pt x="268" y="0" on="1"/>
      </contour>
    </TTGlyph>
    <TTGlyph name="Imacron" xMin="-57" yMin="0" xMax="522" yMax="1831">
      <contour>
        <pt x="-57" y="1774" on="1"/>
        <pt x="-57" y="1831" on="1"/>
        <pt x="522" y="1831" on="1"/>
        <pt x="522" y="1774" on="1"/>
      </contour>
      <contour>
        <pt x="197" y="0" on="1"/>
        <pt x="197" y="1454" on="1"/>
        <pt x="268" y="1454" on="1"/>
        <pt x="268" y="0" on="1"/>
      </contour>
    </TTGlyph>
    <TTGlyph name="Imacroncyrillic" xMin="199" yMin="0" xMax="1339" yMax="1837">
      <contour>
        <pt x="481" y="1780" on="1"/>
        <pt x="481" y="1837" on="1"/>
        <pt x="1061" y="1837" on="1"/>
        <pt x="1061" y="1780" on="1"/>
      </contour>
      <contour>
        <pt x="199" y="0" on="1"/>
        <pt x="199" y="1454" on="1"/>
        <pt x="270" y="1454" on="1"/>
        <pt x="270" y="94" on="1"/>
        <pt x="1272" y="1454" on="1"/>
        <pt x="1339" y="1454" on="1"/>
        <pt x="1339" y="0" on="1"/>
        <pt x="1268" y="0" on="1"/>
        <pt x="1268" y="1337" on="1"/>
        <pt x="276" y="0" on="1"/>
      </contour>
    </TTGlyph>
    <TTGlyph name="Iogonek" xMin="51" yMin="-346" xMax="268" yMax="1454">
      <contour>
        <pt x="268" y="0" on="1"/>
        <pt x="183" y="-64" on="0"/>
        <pt x="111" y="-156" on="0"/>
        <pt x="111" y="-199" on="1"/>
        <pt x="111" y="-237" on="0"/>
        <pt x="179" y="-280" on="0"/>
        <pt x="260" y="-295" on="1"/>
        <pt x="233" y="-346" on="1"/>
        <pt x="135" y="-332" on="0"/>
        <pt x="51" y="-261" on="0"/>
        <pt x="51" y="-207" on="1"/>
        <pt x="51" y="-156" on="0"/>
        <pt x="123" y="-55" on="0"/>
        <pt x="197" y="4" on="1"/>
        <pt x="197" y="1454" on="1"/>
        <pt x="268" y="1454" on="1"/>
      </contour>
    </TTGlyph>
    <TTGlyph name="Itilde" xMin="-66" yMin="0" xMax="526" yMax="1878">
      <contour>
        <pt x="92" y="1804" on="1"/>
        <pt x="62" y="1804" on="0"/>
        <pt x="17" y="1778" on="0"/>
        <pt x="-3" y="1740" on="0"/>
        <pt x="-12" y="1713" on="0"/>
        <pt x="-12" y="1706" on="1"/>
        <pt x="-66" y="1706" on="1"/>
        <pt x="-66" y="1714" on="0"/>
        <pt x="-60" y="1744" on="0"/>
        <pt x="-40" y="1791" on="0"/>
        <pt x="-7" y="1831" on="0"/>
        <pt x="54" y="1860" on="0"/>
        <pt x="94" y="1860" on="1"/>
        <pt x="149" y="1860" on="0"/>
        <pt x="301" y="1780" on="0"/>
        <pt x="352" y="1780" on="1"/>
        <pt x="383" y="1780" on="0"/>
        <pt x="430" y="1799" on="0"/>
        <pt x="454" y="1825" on="0"/>
        <pt x="468" y="1856" on="0"/>
        <pt x="471" y="1873" on="0"/>
        <pt x="471" y="1878" on="1"/>
        <pt x="526" y="1878" on="1"/>
        <pt x="526" y="1869" on="0"/>
        <pt x="520" y="1839" on="0"/>
        <pt x="497" y="1793" on="0"/>
        <pt x="461" y="1754" on="0"/>
        <pt x="393" y="1726" on="0"/>
        <pt x="350" y="1726" on="1"/>
        <pt x="298" y="1726" on="0"/>
        <pt x="204" y="1765" on="0"/>
        <pt x="126" y="1804" on="0"/>
      </contour>
      <contour>
        <pt x="197" y="0" on="1"/>
        <pt x="197" y="1454" on="1"/>
        <pt x="268" y="1454" on="1"/>
        <pt x="268" y="0" on="1"/>
      </contour>
    </TTGlyph>
    <TTGlyph name="J" xMin="37" yMin="-23" xMax="795" yMax="1454">
      <contour>
        <pt x="63" y="125" on="1"/>
        <pt x="181" y="45" on="0"/>
        <pt x="352" y="45" on="1"/>
        <pt x="422" y="45" on="0"/>
        <pt x="531" y="76" on="0"/>
        <pt x="610" y="129" on="0"/>
        <pt x="665" y="219" on="0"/>
        <pt x="699" y="320" on="0"/>
        <pt x="718" y="466" on="0"/>
        <pt x="725" y="609" on="0"/>
        <pt x="725" y="707" on="1"/>
        <pt x="725" y="1454" on="1"/>
        <pt x="795" y="1454" on="1"/>
        <pt x="795" y="715" on="1"/>
        <pt x="795" y="612" on="0"/>
        <pt x="787" y="458" on="0"/>
        <pt x="764" y="296" on="0"/>
        <pt x="725" y="182" on="0"/>
        <pt x="658" y="77" on="0"/>
        <pt x="565" y="14" on="0"/>
        <pt x="435" y="-23" on="0"/>
        <pt x="352" y="-23" on="1"/>
        <pt x="170" y="-23" on="0"/>
        <pt x="37" y="68" on="1"/>
      </contour>
    </TTGlyph>
    <TTGlyph name="Jcircumflex" xMin="37" yMin="-23" xMax="981" yMax="1878">
      <contour>
        <pt x="541" y="1720" on="1"/>
        <pt x="733" y="1878" on="1"/>
        <pt x="786" y="1878" on="1"/>
        <pt x="981" y="1720" on="1"/>
        <pt x="934" y="1690" on="1"/>
        <pt x="760" y="1819" on="1"/>
        <pt x="586" y="1690" on="1"/>
      </contour>
      <contour>
        <pt x="63" y="125" on="1"/>
        <pt x="181" y="45" on="0"/>
        <pt x="352" y="45" on="1"/>
        <pt x="422" y="45" on="0"/>
        <pt x="531" y="76" on="0"/>
        <pt x="610" y="129" on="0"/>
        <pt x="665" y="219" on="0"/>
        <pt x="699" y="320" on="0"/>
        <pt x="718" y="466" on="0"/>
        <pt x="725" y="609" on="0"/>
        <pt x="725" y="707" on="1"/>
        <pt x="725" y="1454" on="1"/>
        <pt x="795" y="1454" on="1"/>
        <pt x="795" y="715" on="1"/>
        <pt x="795" y="612" on="0"/>
        <pt x="787" y="458" on="0"/>
        <pt x="764" y="296" on="0"/>
        <pt x="725" y="182" on="0"/>
        <pt x="658" y="77" on="0"/>
        <pt x="565" y="14" on="0"/>
        <pt x="435" y="-23" on="0"/>
        <pt x="352" y="-23" on="1"/>
        <pt x="170" y="-23" on="0"/>
        <pt x="37" y="68" on="1"/>
      </contour>
    </TTGlyph>
    <TTGlyph name="K" xMin="197" yMin="0" xMax="1274" yMax="1454">
      <contour>
        <pt x="197" y="0" on="1"/>
        <pt x="197" y="1454" on="1"/>
        <pt x="268" y="1454" on="1"/>
        <pt x="268" y="539" on="1"/>
        <pt x="1157" y="1454" on="1"/>
        <pt x="1245" y="1454" on="1"/>
        <pt x="633" y="817" on="1"/>
        <pt x="1274" y="0" on="1"/>
        <pt x="1190" y="0" on="1"/>
        <pt x="584" y="772" on="1"/>
        <pt x="268" y="451" on="1"/>
        <pt x="268" y="0" on="1"/>
      </contour>
    </TTGlyph>
    <TTGlyph name="Kabashkircyrillic" xMin="2" yMin="0" xMax="1407" yMax="1454">
      <contour>
        <pt x="819" y="748" on="1"/>
        <pt x="1407" y="0" on="1"/>
        <pt x="1317" y="0" on="1"/>
        <pt x="762" y="709" on="1"/>
        <pt x="494" y="709" on="1"/>
        <pt x="494" y="0" on="1"/>
        <pt x="422" y="0" on="1"/>
        <pt x="422" y="1389" on="1"/>
        <pt x="2" y="1389" on="1"/>
        <pt x="2" y="1454" on="1"/>
        <pt x="494" y="1454" on="1"/>
        <pt x="494" y="776" on="1"/>
        <pt x="758" y="776" on="1"/>
        <pt x="1292" y="1454" on="1"/>
        <pt x="1376" y="1454" on="1"/>
      </contour>
    </TTGlyph>
    <TTGlyph name="Kadescendercyrillic" xMin="197" yMin="-276" xMax="1264" yMax="1454">
      <contour>
        <pt x="1130" y="66" on="1"/>
        <pt x="1264" y="66" on="1"/>
        <pt x="1264" y="-276" on="1"/>
        <pt x="1198" y="-276" on="1"/>
        <pt x="1198" y="0" on="1"/>
        <pt x="1092" y="0" on="1"/>
        <pt x="537" y="709" on="1"/>
        <pt x="268" y="709" on="1"/>
        <pt x="268" y="0" on="1"/>
        <pt x="197" y="0" on="1"/>
        <pt x="197" y="1454" on="1"/>
        <pt x="268" y="1454" on="1"/>
        <pt x="268" y="776" on="1"/>
        <pt x="532" y="776" on="1"/>
        <pt x="1067" y="1454" on="1"/>
        <pt x="1151" y="1454" on="1"/>
        <pt x="594" y="748" on="1"/>
      </contour>
    </TTGlyph>
    <TTGlyph name="Kaverticalstrokecyrillic" xMin="197" yMin="0" xMax="1188" yMax="1454">
      <contour>
        <pt x="651" y="748" on="1"/>
        <pt x="1188" y="0" on="1"/>
        <pt x="1104" y="0" on="1"/>
        <pt x="596" y="711" on="1"/>
        <pt x="530" y="711" on="1"/>
        <pt x="530" y="406" on="1"/>
        <pt x="479" y="406" on="1"/>
        <pt x="479" y="711" on="1"/>
        <pt x="266" y="711" on="1"/>
        <pt x="266" y="0" on="1"/>
        <pt x="197" y="0" on="1"/>
        <pt x="197" y="1454" on="1"/>
        <pt x="266" y="1454" on="1"/>
        <pt x="266" y="774" on="1"/>
        <pt x="479" y="774" on="1"/>
        <pt x="479" y="1057" on="1"/>
        <pt x="530" y="1057" on="1"/>
        <pt x="530" y="774" on="1"/>
        <pt x="592" y="774" on="1"/>
        <pt x="1077" y="1454" on="1"/>
        <pt x="1157" y="1454" on="1"/>
      </contour>
    </TTGlyph>
    <TTGlyph name="Kcedilla" xMin="197" yMin="-360" xMax="1274" yMax="1454">
      <contour>
        <pt x="197" y="0" on="1"/>
        <pt x="197" y="1454" on="1"/>
        <pt x="268" y="1454" on="1"/>
        <pt x="268" y="539" on="1"/>
        <pt x="1157" y="1454" on="1"/>
        <pt x="1245" y="1454" on="1"/>
        <pt x="633" y="817" on="1"/>
        <pt x="1274" y="0" on="1"/>
        <pt x="1190" y="0" on="1"/>
        <pt x="584" y="772" on="1"/>
        <pt x="268" y="451" on="1"/>
        <pt x="268" y="0" on="1"/>
      </contour>
      <contour>
        <pt x="610" y="-360" on="1"/>
        <pt x="635" y="-233" on="1"/>
        <pt x="610" y="-233" on="1"/>
        <pt x="610" y="-102" on="1"/>
        <pt x="686" y="-102" on="1"/>
        <pt x="686" y="-233" on="1"/>
        <pt x="651" y="-360" on="1"/>
      </contour>
    </TTGlyph>
    <TTGlyph name="L" xMin="197" yMin="0" xMax="1159" yMax="1454">
      <contour>
        <pt x="197" y="0" on="1"/>
        <pt x="197" y="1454" on="1"/>
        <pt x="268" y="1454" on="1"/>
        <pt x="268" y="66" on="1"/>
        <pt x="1159" y="66" on="1"/>
        <pt x="1159" y="0" on="1"/>
      </contour>
    </TTGlyph>
    <TTGlyph name="Lacute" xMin="197" yMin="0" xMax="1159" yMax="1884">
      <contour>
        <pt x="254" y="1696" on="1"/>
        <pt x="205" y="1722" on="1"/>
        <pt x="332" y="1884" on="1"/>
        <pt x="424" y="1884" on="1"/>
      </contour>
      <contour>
        <pt x="197" y="0" on="1"/>
        <pt x="197" y="1454" on="1"/>
        <pt x="268" y="1454" on="1"/>
        <pt x="268" y="66" on="1"/>
        <pt x="1159" y="66" on="1"/>
        <pt x="1159" y="0" on="1"/>
      </contour>
    </TTGlyph>
    <TTGlyph name="Lcaron" xMin="197" yMin="0" xMax="1159" yMax="1507">
      <contour>
        <pt x="836" y="1319" on="1"/>
        <pt x="786" y="1346" on="1"/>
        <pt x="913" y="1507" on="1"/>
        <pt x="1006" y="1507" on="1"/>
      </contour>
      <contour>
        <pt x="197" y="0" on="1"/>
        <pt x="197" y="1454" on="1"/>
        <pt x="268" y="1454" on="1"/>
        <pt x="268" y="66" on="1"/>
        <pt x="1159" y="66" on="1"/>
        <pt x="1159" y="0" on="1"/>
      </contour>
    </TTGlyph>
    <TTGlyph name="Lcedilla" xMin="197" yMin="-360" xMax="1159" yMax="1454">
      <contour>
        <pt x="197" y="0" on="1"/>
        <pt x="197" y="1454" on="1"/>
        <pt x="268" y="1454" on="1"/>
        <pt x="268" y="66" on="1"/>
        <pt x="1159" y="66" on="1"/>
        <pt x="1159" y="0" on="1"/>
      </contour>
      <contour>
        <pt x="637" y="-360" on="1"/>
        <pt x="662" y="-233" on="1"/>
        <pt x="637" y="-233" on="1"/>
        <pt x="637" y="-102" on="1"/>
        <pt x="713" y="-102" on="1"/>
        <pt x="713" y="-233" on="1"/>
        <pt x="678" y="-360" on="1"/>
      </contour>
    </TTGlyph>
    <TTGlyph name="Ldot" xMin="197" yMin="0" xMax="1159" yMax="1454">
      <contour>
        <pt x="197" y="0" on="1"/>
        <pt x="197" y="1454" on="1"/>
        <pt x="268" y="1454" on="1"/>
        <pt x="268" y="66" on="1"/>
        <pt x="1159" y="66" on="1"/>
        <pt x="1159" y="0" on="1"/>
      </contour>
      <contour>
        <pt x="750" y="731" on="1"/>
        <pt x="750" y="918" on="1"/>
        <pt x="813" y="918" on="1"/>
        <pt x="813" y="731" on="1"/>
      </contour>
    </TTGlyph>
    <TTGlyph name="Ldotbelow" xMin="197" yMin="-285" xMax="1159" yMax="1454">
      <contour>
        <pt x="197" y="0" on="1"/>
        <pt x="197" y="1454" on="1"/>
        <pt x="268" y="1454" on="1"/>
        <pt x="268" y="66" on="1"/>
        <pt x="1159" y="66" on="1"/>
        <pt x="1159" y="0" on="1"/>
      </contour>
      <contour>
        <pt x="647" y="-285" on="1"/>
        <pt x="647" y="-115" on="1"/>
        <pt x="713" y="-115" on="1"/>
        <pt x="713" y="-285" on="1"/>
      </contour>
    </TTGlyph>
    <TTGlyph name="Llinebelow" xMin="197" yMin="-215" xMax="1159" yMax="1454">
      <contour>
        <pt x="197" y="0" on="1"/>
        <pt x="197" y="1454" on="1"/>
        <pt x="268" y="1454" on="1"/>
        <pt x="268" y="66" on="1"/>
        <pt x="1159" y="66" on="1"/>
        <pt x="1159" y="0" on="1"/>
      </contour>
      <contour>
        <pt x="391" y="-215" on="1"/>
        <pt x="391" y="-158" on="1"/>
        <pt x="971" y="-158" on="1"/>
        <pt x="971" y="-215" on="1"/>
      </contour>
    </TTGlyph>
    <TTGlyph name="Lslash" xMin="51" yMin="0" xMax="1174" yMax="1454">
      <contour>
        <pt x="283" y="66" on="1"/>
        <pt x="1174" y="66" on="1"/>
        <pt x="1174" y="0" on="1"/>
        <pt x="211" y="0" on="1"/>
        <pt x="211" y="575" on="1"/>
        <pt x="86" y="457" on="1"/>
        <pt x="51" y="504" on="1"/>
        <pt x="211" y="655" on="1"/>
        <pt x="211" y="1454" on="1"/>
        <pt x="283" y="1454" on="1"/>
        <pt x="283" y="723" on="1"/>
        <pt x="647" y="1067" on="1"/>
        <pt x="680" y="1022" on="1"/>
        <pt x="283" y="643" on="1"/>
      </contour>
    </TTGlyph>
    <TTGlyph name="M" xMin="197" yMin="0" xMax="1610" yMax="1454">
      <contour>
        <pt x="1538" y="0" on="1"/>
        <pt x="1538" y="1311" on="1"/>
        <pt x="928" y="281" on="1"/>
        <pt x="879" y="281" on="1"/>
        <pt x="268" y="1311" on="1"/>
        <pt x="268" y="0" on="1"/>
        <pt x="197" y="0" on="1"/>
        <pt x="197" y="1454" on="1"/>
        <pt x="262" y="1454" on="1"/>
        <pt x="903" y="373" on="1"/>
        <pt x="1544" y="1454" on="1"/>
        <pt x="1610" y="1454" on="1"/>
        <pt x="1610" y="0" on="1"/>
      </contour>
    </TTGlyph>
    <TTGlyph name="Mdotbelow" xMin="197" yMin="-285" xMax="1610" yMax="1454">
      <contour>
        <pt x="1538" y="0" on="1"/>
        <pt x="1538" y="1311" on="1"/>
        <pt x="928" y="281" on="1"/>
        <pt x="879" y="281" on="1"/>
        <pt x="268" y="1311" on="1"/>
        <pt x="268" y="0" on="1"/>
        <pt x="197" y="0" on="1"/>
        <pt x="197" y="1454" on="1"/>
        <pt x="262" y="1454" on="1"/>
        <pt x="903" y="373" on="1"/>
        <pt x="1544" y="1454" on="1"/>
        <pt x="1610" y="1454" on="1"/>
        <pt x="1610" y="0" on="1"/>
      </contour>
      <contour>
        <pt x="870" y="-285" on="1"/>
        <pt x="870" y="-115" on="1"/>
        <pt x="936" y="-115" on="1"/>
        <pt x="936" y="-285" on="1"/>
      </contour>
    </TTGlyph>
    <TTGlyph name="N" xMin="197" yMin="0" xMax="1391" yMax="1454">
      <contour>
        <pt x="268" y="1321" on="1"/>
        <pt x="268" y="0" on="1"/>
        <pt x="197" y="0" on="1"/>
        <pt x="197" y="1454" on="1"/>
        <pt x="254" y="1454" on="1"/>
        <pt x="1319" y="113" on="1"/>
        <pt x="1319" y="1454" on="1"/>
        <pt x="1391" y="1454" on="1"/>
        <pt x="1391" y="0" on="1"/>
        <pt x="1317" y="0" on="1"/>
      </contour>
    </TTGlyph>
    <TTGlyph name="Nacute" xMin="197" yMin="0" xMax="1391" yMax="1878">
      <contour>
        <pt x="825" y="1690" on="1"/>
        <pt x="776" y="1716" on="1"/>
        <pt x="903" y="1878" on="1"/>
        <pt x="995" y="1878" on="1"/>
      </contour>
      <contour>
        <pt x="268" y="1321" on="1"/>
        <pt x="268" y="0" on="1"/>
        <pt x="197" y="0" on="1"/>
        <pt x="197" y="1454" on="1"/>
        <pt x="254" y="1454" on="1"/>
        <pt x="1319" y="113" on="1"/>
        <pt x="1319" y="1454" on="1"/>
        <pt x="1391" y="1454" on="1"/>
        <pt x="1391" y="0" on="1"/>
        <pt x="1317" y="0" on="1"/>
      </contour>
    </TTGlyph>
    <TTGlyph name="Ncaron" xMin="197" yMin="0" xMax="1391" yMax="1878">
      <contour>
        <pt x="629" y="1878" on="1"/>
        <pt x="803" y="1749" on="1"/>
        <pt x="977" y="1878" on="1"/>
        <pt x="1024" y="1849" on="1"/>
        <pt x="829" y="1690" on="1"/>
        <pt x="776" y="1690" on="1"/>
        <pt x="584" y="1849" on="1"/>
      </contour>
      <contour>
        <pt x="268" y="1321" on="1"/>
        <pt x="268" y="0" on="1"/>
        <pt x="197" y="0" on="1"/>
        <pt x="197" y="1454" on="1"/>
        <pt x="254" y="1454" on="1"/>
        <pt x="1319" y="113" on="1"/>
        <pt x="1319" y="1454" on="1"/>
        <pt x="1391" y="1454" on="1"/>
        <pt x="1391" y="0" on="1"/>
        <pt x="1317" y="0" on="1"/>
      </contour>
    </TTGlyph>
    <TTGlyph name="Ncedilla" xMin="197" yMin="-360" xMax="1391" yMax="1454">
      <contour>
        <pt x="268" y="1321" on="1"/>
        <pt x="268" y="0" on="1"/>
        <pt x="197" y="0" on="1"/>
        <pt x="197" y="1454" on="1"/>
        <pt x="254" y="1454" on="1"/>
        <pt x="1319" y="113" on="1"/>
        <pt x="1319" y="1454" on="1"/>
        <pt x="1391" y="1454" on="1"/>
        <pt x="1391" y="0" on="1"/>
        <pt x="1317" y="0" on="1"/>
      </contour>
      <contour>
        <pt x="762" y="-360" on="1"/>
        <pt x="786" y="-233" on="1"/>
        <pt x="762" y="-233" on="1"/>
        <pt x="762" y="-102" on="1"/>
        <pt x="838" y="-102" on="1"/>
        <pt x="838" y="-233" on="1"/>
        <pt x="803" y="-360" on="1"/>
      </contour>
    </TTGlyph>
    <TTGlyph name="Ndotaccent" xMin="197" yMin="0" xMax="1391" yMax="1878">
      <contour>
        <pt x="770" y="1708" on="1"/>
        <pt x="770" y="1878" on="1"/>
        <pt x="836" y="1878" on="1"/>
        <pt x="836" y="1708" on="1"/>
      </contour>
      <contour>
        <pt x="268" y="1321" on="1"/>
        <pt x="268" y="0" on="1"/>
        <pt x="197" y="0" on="1"/>
        <pt x="197" y="1454" on="1"/>
        <pt x="254" y="1454" on="1"/>
        <pt x="1319" y="113" on="1"/>
        <pt x="1319" y="1454" on="1"/>
        <pt x="1391" y="1454" on="1"/>
        <pt x="1391" y="0" on="1"/>
        <pt x="1317" y="0" on="1"/>
      </contour>
    </TTGlyph>
    <TTGlyph name="Ndotbelow" xMin="197" yMin="-285" xMax="1391" yMax="1454">
      <contour>
        <pt x="268" y="1321" on="1"/>
        <pt x="268" y="0" on="1"/>
        <pt x="197" y="0" on="1"/>
        <pt x="197" y="1454" on="1"/>
        <pt x="254" y="1454" on="1"/>
        <pt x="1319" y="113" on="1"/>
        <pt x="1319" y="1454" on="1"/>
        <pt x="1391" y="1454" on="1"/>
        <pt x="1391" y="0" on="1"/>
        <pt x="1317" y="0" on="1"/>
      </contour>
      <contour>
        <pt x="772" y="-285" on="1"/>
        <pt x="772" y="-115" on="1"/>
        <pt x="838" y="-115" on="1"/>
        <pt x="838" y="-285" on="1"/>
      </contour>
    </TTGlyph>
    <TTGlyph name="Nlinebelow" xMin="197" yMin="-215" xMax="1391" yMax="1454">
      <contour>
        <pt x="268" y="1321" on="1"/>
        <pt x="268" y="0" on="1"/>
        <pt x="197" y="0" on="1"/>
        <pt x="197" y="1454" on="1"/>
        <pt x="254" y="1454" on="1"/>
        <pt x="1319" y="113" on="1"/>
        <pt x="1319" y="1454" on="1"/>
        <pt x="1391" y="1454" on="1"/>
        <pt x="1391" y="0" on="1"/>
        <pt x="1317" y="0" on="1"/>
      </contour>
      <contour>
        <pt x="516" y="-215" on="1"/>
        <pt x="516" y="-158" on="1"/>
        <pt x="1096" y="-158" on="1"/>
        <pt x="1096" y="-215" on="1"/>
      </contour>
    </TTGlyph>
    <TTGlyph name="Ntilde" xMin="197" yMin="0" xMax="1391" yMax="1878">
      <contour>
        <pt x="664" y="1804" on="1"/>
        <pt x="634" y="1804" on="0"/>
        <pt x="588" y="1778" on="0"/>
        <pt x="568" y="1740" on="0"/>
        <pt x="559" y="1713" on="0"/>
        <pt x="559" y="1706" on="1"/>
        <pt x="506" y="1706" on="1"/>
        <pt x="506" y="1714" on="0"/>
        <pt x="512" y="1744" on="0"/>
        <pt x="532" y="1791" on="0"/>
        <pt x="565" y="1831" on="0"/>
        <pt x="626" y="1860" on="0"/>
        <pt x="666" y="1860" on="1"/>
        <pt x="721" y="1860" on="0"/>
        <pt x="873" y="1780" on="0"/>
        <pt x="924" y="1780" on="1"/>
        <pt x="955" y="1780" on="0"/>
        <pt x="1002" y="1799" on="0"/>
        <pt x="1025" y="1825" on="0"/>
        <pt x="1039" y="1856" on="0"/>
        <pt x="1042" y="1873" on="0"/>
        <pt x="1042" y="1878" on="1"/>
        <pt x="1098" y="1878" on="1"/>
        <pt x="1098" y="1869" on="0"/>
        <pt x="1092" y="1839" on="0"/>
        <pt x="1069" y="1793" on="0"/>
        <pt x="1033" y="1754" on="0"/>
        <pt x="965" y="1726" on="0"/>
        <pt x="922" y="1726" on="1"/>
        <pt x="870" y="1726" on="0"/>
        <pt x="776" y="1765" on="0"/>
        <pt x="698" y="1804" on="0"/>
      </contour>
      <contour>
        <pt x="268" y="1321" on="1"/>
        <pt x="268" y="0" on="1"/>
        <pt x="197" y="0" on="1"/>
        <pt x="197" y="1454" on="1"/>
        <pt x="254" y="1454" on="1"/>
        <pt x="1319" y="113" on="1"/>
        <pt x="1319" y="1454" on="1"/>
        <pt x="1391" y="1454" on="1"/>
        <pt x="1391" y="0" on="1"/>
        <pt x="1317" y="0" on="1"/>
      </contour>
    </TTGlyph>
    <TTGlyph name="O" xMin="94" yMin="-10" xMax="1452" yMax="1464">
      <contour>
        <pt x="94" y="727" on="1"/>
        <pt x="94" y="919" on="0"/>
        <pt x="271" y="1257" on="0"/>
        <pt x="587" y="1464" on="0"/>
        <pt x="774" y="1464" on="1"/>
        <pt x="920" y="1464" on="0"/>
        <pt x="1178" y="1335" on="0"/>
        <pt x="1352" y="1127" on="0"/>
        <pt x="1452" y="863" on="0"/>
        <pt x="1452" y="727" on="1"/>
        <pt x="1452" y="582" on="0"/>
        <pt x="1347" y="312" on="0"/>
        <pt x="1168" y="111" on="0"/>
        <pt x="914" y="-10" on="0"/>
        <pt x="774" y="-10" on="1"/>
        <pt x="627" y="-9" on="0"/>
        <pt x="370" y="117" on="0"/>
        <pt x="195" y="322" on="0"/>
        <pt x="94" y="588" on="0"/>
      </contour>
      <contour>
        <pt x="774" y="57" on="1"/>
        <pt x="906" y="57" on="0"/>
        <pt x="1137" y="173" on="0"/>
        <pt x="1292" y="363" on="0"/>
        <pt x="1380" y="603" on="0"/>
        <pt x="1380" y="727" on="1"/>
        <pt x="1380" y="856" on="0"/>
        <pt x="1287" y="1100" on="0"/>
        <pt x="1128" y="1285" on="0"/>
        <pt x="900" y="1397" on="0"/>
        <pt x="774" y="1397" on="1"/>
        <pt x="642" y="1397" on="0"/>
        <pt x="410" y="1281" on="0"/>
        <pt x="255" y="1092" on="0"/>
        <pt x="166" y="852" on="0"/>
        <pt x="166" y="727" on="1"/>
        <pt x="166" y="597" on="0"/>
        <pt x="258" y="354" on="0"/>
        <pt x="416" y="169" on="0"/>
        <pt x="645" y="57" on="0"/>
      </contour>
    </TTGlyph>
    <TTGlyph name="OE" xMin="94" yMin="-10" xMax="2339" yMax="1464">
      <contour>
        <pt x="2339" y="66" on="1"/>
        <pt x="2339" y="0" on="1"/>
        <pt x="1382" y="0" on="1"/>
        <pt x="1382" y="446" on="1"/>
        <pt x="1309" y="247" on="0"/>
        <pt x="981" y="-10" on="0"/>
        <pt x="778" y="-10" on="1"/>
        <pt x="630" y="-10" on="0"/>
        <pt x="371" y="116" on="0"/>
        <pt x="195" y="322" on="0"/>
        <pt x="94" y="587" on="0"/>
        <pt x="94" y="727" on="1"/>
        <pt x="94" y="919" on="0"/>
        <pt x="271" y="1257" on="0"/>
        <pt x="587" y="1464" on="0"/>
        <pt x="774" y="1464" on="1"/>
        <pt x="985" y="1464" on="0"/>
        <pt x="1311" y="1204" on="0"/>
        <pt x="1382" y="1006" on="1"/>
        <pt x="1382" y="1454" on="1"/>
        <pt x="2320" y="1454" on="1"/>
        <pt x="2320" y="1389" on="1"/>
        <pt x="1452" y="1389" on="1"/>
        <pt x="1452" y="776" on="1"/>
        <pt x="2210" y="776" on="1"/>
        <pt x="2210" y="711" on="1"/>
        <pt x="1452" y="711" on="1"/>
        <pt x="1452" y="66" on="1"/>
      </contour>
      <contour>
        <pt x="1380" y="729" on="1"/>
        <pt x="1380" y="857" on="0"/>
        <pt x="1287" y="1101" on="0"/>
        <pt x="1128" y="1285" on="0"/>
        <pt x="900" y="1397" on="0"/>
        <pt x="774" y="1397" on="1"/>
        <pt x="642" y="1397" on="0"/>
        <pt x="410" y="1281" on="0"/>
        <pt x="255" y="1092" on="0"/>
        <pt x="166" y="852" on="0"/>
        <pt x="166" y="727" on="1"/>
        <pt x="166" y="597" on="0"/>
        <pt x="258" y="354" on="0"/>
        <pt x="416" y="169" on="0"/>
        <pt x="645" y="57" on="0"/>
        <pt x="774" y="57" on="1"/>
        <pt x="906" y="57" on="0"/>
        <pt x="1137" y="173" on="0"/>
        <pt x="1292" y="363" on="0"/>
        <pt x="1380" y="604" on="0"/>
      </contour>
    </TTGlyph>
    <TTGlyph name="Oacute" xMin="94" yMin="-10" xMax="1452" yMax="1878">
      <contour>
        <pt x="797" y="1690" on="1"/>
        <pt x="748" y="1716" on="1"/>
        <pt x="874" y="1878" on="1"/>
        <pt x="967" y="1878" on="1"/>
      </contour>
      <contour>
        <pt x="94" y="727" on="1"/>
        <pt x="94" y="919" on="0"/>
        <pt x="271" y="1257" on="0"/>
        <pt x="587" y="1464" on="0"/>
        <pt x="774" y="1464" on="1"/>
        <pt x="920" y="1464" on="0"/>
        <pt x="1178" y="1335" on="0"/>
        <pt x="1352" y="1127" on="0"/>
        <pt x="1452" y="863" on="0"/>
        <pt x="1452" y="727" on="1"/>
        <pt x="1452" y="582" on="0"/>
        <pt x="1347" y="312" on="0"/>
        <pt x="1168" y="111" on="0"/>
        <pt x="914" y="-10" on="0"/>
        <pt x="774" y="-10" on="1"/>
        <pt x="627" y="-9" on="0"/>
        <pt x="370" y="117" on="0"/>
        <pt x="195" y="322" on="0"/>
        <pt x="94" y="588" on="0"/>
      </contour>
      <contour>
        <pt x="774" y="57" on="1"/>
        <pt x="906" y="57" on="0"/>
        <pt x="1137" y="173" on="0"/>
        <pt x="1292" y="363" on="0"/>
        <pt x="1380" y="603" on="0"/>
        <pt x="1380" y="727" on="1"/>
        <pt x="1380" y="856" on="0"/>
        <pt x="1287" y="1100" on="0"/>
        <pt x="1128" y="1285" on="0"/>
        <pt x="900" y="1397" on="0"/>
        <pt x="774" y="1397" on="1"/>
        <pt x="642" y="1397" on="0"/>
        <pt x="410" y="1281" on="0"/>
        <pt x="255" y="1092" on="0"/>
        <pt x="166" y="852" on="0"/>
        <pt x="166" y="727" on="1"/>
        <pt x="166" y="597" on="0"/>
        <pt x="258" y="354" on="0"/>
        <pt x="416" y="169" on="0"/>
        <pt x="645" y="57" on="0"/>
      </contour>
    </TTGlyph>
    <TTGlyph name="Obarredcyrillic" xMin="94" yMin="-10" xMax="1452" yMax="1464">
      <contour>
        <pt x="774" y="1464" on="1"/>
        <pt x="920" y="1464" on="0"/>
        <pt x="1178" y="1335" on="0"/>
        <pt x="1352" y="1127" on="0"/>
        <pt x="1452" y="863" on="0"/>
        <pt x="1452" y="727" on="1"/>
        <pt x="1452" y="582" on="0"/>
        <pt x="1347" y="312" on="0"/>
        <pt x="1168" y="111" on="0"/>
        <pt x="914" y="-10" on="0"/>
        <pt x="774" y="-10" on="1"/>
        <pt x="627" y="-9" on="0"/>
        <pt x="370" y="117" on="0"/>
        <pt x="195" y="322" on="0"/>
        <pt x="94" y="588" on="0"/>
        <pt x="94" y="727" on="1"/>
        <pt x="94" y="919" on="0"/>
        <pt x="271" y="1257" on="0"/>
        <pt x="587" y="1464" on="0"/>
      </contour>
      <contour>
        <pt x="774" y="1397" on="1"/>
        <pt x="648" y="1397" on="0"/>
        <pt x="424" y="1290" on="0"/>
        <pt x="269" y="1114" on="0"/>
        <pt x="175" y="889" on="0"/>
        <pt x="168" y="770" on="1"/>
        <pt x="1378" y="770" on="1"/>
        <pt x="1368" y="936" on="0"/>
        <pt x="1208" y="1222" on="0"/>
        <pt x="935" y="1397" on="0"/>
      </contour>
      <contour>
        <pt x="774" y="57" on="1"/>
        <pt x="905" y="57" on="0"/>
        <pt x="1134" y="172" on="0"/>
        <pt x="1289" y="358" on="0"/>
        <pt x="1378" y="595" on="0"/>
        <pt x="1380" y="717" on="1"/>
        <pt x="166" y="717" on="1"/>
        <pt x="167" y="589" on="0"/>
        <pt x="261" y="349" on="0"/>
        <pt x="419" y="167" on="0"/>
        <pt x="646" y="57" on="0"/>
      </contour>
    </TTGlyph>
    <TTGlyph name="Obreve" xMin="94" yMin="-10" xMax="1452" yMax="1878">
      <contour>
        <pt x="889" y="1878" on="1"/>
        <pt x="940" y="1878" on="1"/>
        <pt x="940" y="1808" on="0"/>
        <pt x="840" y="1706" on="0"/>
        <pt x="774" y="1706" on="1"/>
        <pt x="706" y="1706" on="0"/>
        <pt x="608" y="1808" on="0"/>
        <pt x="608" y="1878" on="1"/>
        <pt x="662" y="1878" on="1"/>
        <pt x="662" y="1830" on="0"/>
        <pt x="731" y="1751" on="0"/>
        <pt x="774" y="1751" on="1"/>
        <pt x="815" y="1751" on="0"/>
        <pt x="883" y="1826" on="0"/>
      </contour>
      <contour>
        <pt x="94" y="727" on="1"/>
        <pt x="94" y="919" on="0"/>
        <pt x="271" y="1257" on="0"/>
        <pt x="587" y="1464" on="0"/>
        <pt x="774" y="1464" on="1"/>
        <pt x="920" y="1464" on="0"/>
        <pt x="1178" y="1335" on="0"/>
        <pt x="1352" y="1127" on="0"/>
        <pt x="1452" y="863" on="0"/>
        <pt x="1452" y="727" on="1"/>
        <pt x="1452" y="582" on="0"/>
        <pt x="1347" y="312" on="0"/>
        <pt x="1168" y="111" on="0"/>
        <pt x="914" y="-10" on="0"/>
        <pt x="774" y="-10" on="1"/>
        <pt x="627" y="-9" on="0"/>
        <pt x="370" y="117" on="0"/>
        <pt x="195" y="322" on="0"/>
        <pt x="94" y="588" on="0"/>
      </contour>
      <contour>
        <pt x="774" y="57" on="1"/>
        <pt x="906" y="57" on="0"/>
        <pt x="1137" y="173" on="0"/>
        <pt x="1292" y="363" on="0"/>
        <pt x="1380" y="603" on="0"/>
        <pt x="1380" y="727" on="1"/>
        <pt x="1380" y="856" on="0"/>
        <pt x="1287" y="1100" on="0"/>
        <pt x="1128" y="1285" on="0"/>
        <pt x="900" y="1397" on="0"/>
        <pt x="774" y="1397" on="1"/>
        <pt x="642" y="1397" on="0"/>
        <pt x="410" y="1281" on="0"/>
        <pt x="255" y="1092" on="0"/>
        <pt x="166" y="852" on="0"/>
        <pt x="166" y="727" on="1"/>
        <pt x="166" y="597" on="0"/>
        <pt x="258" y="354" on="0"/>
        <pt x="416" y="169" on="0"/>
        <pt x="645" y="57" on="0"/>
      </contour>
    </TTGlyph>
    <TTGlyph name="Ocircumflex" xMin="94" yMin="-10" xMax="1452" yMax="1878">
      <contour>
        <pt x="555" y="1720" on="1"/>
        <pt x="748" y="1878" on="1"/>
        <pt x="801" y="1878" on="1"/>
        <pt x="995" y="1720" on="1"/>
        <pt x="948" y="1690" on="1"/>
        <pt x="774" y="1819" on="1"/>
        <pt x="600" y="1690" on="1"/>
      </contour>
      <contour>
        <pt x="94" y="727" on="1"/>
        <pt x="94" y="919" on="0"/>
        <pt x="271" y="1257" on="0"/>
        <pt x="587" y="1464" on="0"/>
        <pt x="774" y="1464" on="1"/>
        <pt x="920" y="1464" on="0"/>
        <pt x="1178" y="1335" on="0"/>
        <pt x="1352" y="1127" on="0"/>
        <pt x="1452" y="863" on="0"/>
        <pt x="1452" y="727" on="1"/>
        <pt x="1452" y="582" on="0"/>
        <pt x="1347" y="312" on="0"/>
        <pt x="1168" y="111" on="0"/>
        <pt x="914" y="-10" on="0"/>
        <pt x="774" y="-10" on="1"/>
        <pt x="627" y="-9" on="0"/>
        <pt x="370" y="117" on="0"/>
        <pt x="195" y="322" on="0"/>
        <pt x="94" y="588" on="0"/>
      </contour>
      <contour>
        <pt x="774" y="57" on="1"/>
        <pt x="906" y="57" on="0"/>
        <pt x="1137" y="173" on="0"/>
        <pt x="1292" y="363" on="0"/>
        <pt x="1380" y="603" on="0"/>
        <pt x="1380" y="727" on="1"/>
        <pt x="1380" y="856" on="0"/>
        <pt x="1287" y="1100" on="0"/>
        <pt x="1128" y="1285" on="0"/>
        <pt x="900" y="1397" on="0"/>
        <pt x="774" y="1397" on="1"/>
        <pt x="642" y="1397" on="0"/>
        <pt x="410" y="1281" on="0"/>
        <pt x="255" y="1092" on="0"/>
        <pt x="166" y="852" on="0"/>
        <pt x="166" y="727" on="1"/>
        <pt x="166" y="597" on="0"/>
        <pt x="258" y="354" on="0"/>
        <pt x="416" y="169" on="0"/>
        <pt x="645" y="57" on="0"/>
      </contour>
    </TTGlyph>
    <TTGlyph name="Ocircumflexacute" xMin="94" yMin="-10" xMax="1452" yMax="1905">
      <contour>
        <pt x="987" y="1716" on="1"/>
        <pt x="938" y="1743" on="1"/>
        <pt x="1065" y="1905" on="1"/>
        <pt x="1157" y="1905" on="1"/>
      </contour>
      <contour>
        <pt x="545" y="1634" on="1"/>
        <pt x="737" y="1792" on="1"/>
        <pt x="791" y="1792" on="1"/>
        <pt x="985" y="1634" on="1"/>
        <pt x="938" y="1604" on="1"/>
        <pt x="764" y="1733" on="1"/>
        <pt x="590" y="1604" on="1"/>
      </contour>
      <contour>
        <pt x="94" y="727" on="1"/>
        <pt x="94" y="919" on="0"/>
        <pt x="271" y="1257" on="0"/>
        <pt x="587" y="1464" on="0"/>
        <pt x="774" y="1464" on="1"/>
        <pt x="920" y="1464" on="0"/>
        <pt x="1178" y="1335" on="0"/>
        <pt x="1352" y="1127" on="0"/>
        <pt x="1452" y="863" on="0"/>
        <pt x="1452" y="727" on="1"/>
        <pt x="1452" y="582" on="0"/>
        <pt x="1347" y="312" on="0"/>
        <pt x="1168" y="111" on="0"/>
        <pt x="914" y="-10" on="0"/>
        <pt x="774" y="-10" on="1"/>
        <pt x="627" y="-9" on="0"/>
        <pt x="370" y="117" on="0"/>
        <pt x="195" y="322" on="0"/>
        <pt x="94" y="588" on="0"/>
      </contour>
      <contour>
        <pt x="774" y="57" on="1"/>
        <pt x="906" y="57" on="0"/>
        <pt x="1137" y="173" on="0"/>
        <pt x="1292" y="363" on="0"/>
        <pt x="1380" y="603" on="0"/>
        <pt x="1380" y="727" on="1"/>
        <pt x="1380" y="856" on="0"/>
        <pt x="1287" y="1100" on="0"/>
        <pt x="1128" y="1285" on="0"/>
        <pt x="900" y="1397" on="0"/>
        <pt x="774" y="1397" on="1"/>
        <pt x="642" y="1397" on="0"/>
        <pt x="410" y="1281" on="0"/>
        <pt x="255" y="1092" on="0"/>
        <pt x="166" y="852" on="0"/>
        <pt x="166" y="727" on="1"/>
        <pt x="166" y="597" on="0"/>
        <pt x="258" y="354" on="0"/>
        <pt x="416" y="169" on="0"/>
        <pt x="645" y="57" on="0"/>
      </contour>
    </TTGlyph>
    <TTGlyph name="Ocircumflexdotbelow" xMin="94" yMin="-285" xMax="1452" yMax="1878">
      <contour>
        <pt x="555" y="1720" on="1"/>
        <pt x="748" y="1878" on="1"/>
        <pt x="801" y="1878" on="1"/>
        <pt x="995" y="1720" on="1"/>
        <pt x="948" y="1690" on="1"/>
        <pt x="774" y="1819" on="1"/>
        <pt x="600" y="1690" on="1"/>
      </contour>
      <contour>
        <pt x="94" y="727" on="1"/>
        <pt x="94" y="919" on="0"/>
        <pt x="271" y="1257" on="0"/>
        <pt x="587" y="1464" on="0"/>
        <pt x="774" y="1464" on="1"/>
        <pt x="920" y="1464" on="0"/>
        <pt x="1178" y="1335" on="0"/>
        <pt x="1352" y="1127" on="0"/>
        <pt x="1452" y="863" on="0"/>
        <pt x="1452" y="727" on="1"/>
        <pt x="1452" y="582" on="0"/>
        <pt x="1347" y="312" on="0"/>
        <pt x="1168" y="111" on="0"/>
        <pt x="914" y="-10" on="0"/>
        <pt x="774" y="-10" on="1"/>
        <pt x="627" y="-9" on="0"/>
        <pt x="370" y="117" on="0"/>
        <pt x="195" y="322" on="0"/>
        <pt x="94" y="588" on="0"/>
      </contour>
      <contour>
        <pt x="774" y="57" on="1"/>
        <pt x="906" y="57" on="0"/>
        <pt x="1137" y="173" on="0"/>
        <pt x="1292" y="363" on="0"/>
        <pt x="1380" y="603" on="0"/>
        <pt x="1380" y="727" on="1"/>
        <pt x="1380" y="856" on="0"/>
        <pt x="1287" y="1100" on="0"/>
        <pt x="1128" y="1285" on="0"/>
        <pt x="900" y="1397" on="0"/>
        <pt x="774" y="1397" on="1"/>
        <pt x="642" y="1397" on="0"/>
        <pt x="410" y="1281" on="0"/>
        <pt x="255" y="1092" on="0"/>
        <pt x="166" y="852" on="0"/>
        <pt x="166" y="727" on="1"/>
        <pt x="166" y="597" on="0"/>
        <pt x="258" y="354" on="0"/>
        <pt x="416" y="169" on="0"/>
        <pt x="645" y="57" on="0"/>
      </contour>
      <contour>
        <pt x="741" y="-285" on="1"/>
        <pt x="741" y="-115" on="1"/>
        <pt x="807" y="-115" on="1"/>
        <pt x="807" y="-285" on="1"/>
      </contour>
    </TTGlyph>
    <TTGlyph name="Ocircumflexgrave" xMin="94" yMin="-10" xMax="1452" yMax="1923">
      <contour>
        <pt x="379" y="1923" on="1"/>
        <pt x="469" y="1923" on="1"/>
        <pt x="598" y="1761" on="1"/>
        <pt x="549" y="1735" on="1"/>
      </contour>
      <contour>
        <pt x="551" y="1634" on="1"/>
        <pt x="743" y="1792" on="1"/>
        <pt x="797" y="1792" on="1"/>
        <pt x="991" y="1634" on="1"/>
        <pt x="944" y="1604" on="1"/>
        <pt x="770" y="1733" on="1"/>
        <pt x="596" y="1604" on="1"/>
      </contour>
      <contour>
        <pt x="94" y="727" on="1"/>
        <pt x="94" y="919" on="0"/>
        <pt x="271" y="1257" on="0"/>
        <pt x="587" y="1464" on="0"/>
        <pt x="774" y="1464" on="1"/>
        <pt x="920" y="1464" on="0"/>
        <pt x="1178" y="1335" on="0"/>
        <pt x="1352" y="1127" on="0"/>
        <pt x="1452" y="863" on="0"/>
        <pt x="1452" y="727" on="1"/>
        <pt x="1452" y="582" on="0"/>
        <pt x="1347" y="312" on="0"/>
        <pt x="1168" y="111" on="0"/>
        <pt x="914" y="-10" on="0"/>
        <pt x="774" y="-10" on="1"/>
        <pt x="627" y="-9" on="0"/>
        <pt x="370" y="117" on="0"/>
        <pt x="195" y="322" on="0"/>
        <pt x="94" y="588" on="0"/>
      </contour>
      <contour>
        <pt x="774" y="57" on="1"/>
        <pt x="906" y="57" on="0"/>
        <pt x="1137" y="173" on="0"/>
        <pt x="1292" y="363" on="0"/>
        <pt x="1380" y="603" on="0"/>
        <pt x="1380" y="727" on="1"/>
        <pt x="1380" y="856" on="0"/>
        <pt x="1287" y="1100" on="0"/>
        <pt x="1128" y="1285" on="0"/>
        <pt x="900" y="1397" on="0"/>
        <pt x="774" y="1397" on="1"/>
        <pt x="642" y="1397" on="0"/>
        <pt x="410" y="1281" on="0"/>
        <pt x="255" y="1092" on="0"/>
        <pt x="166" y="852" on="0"/>
        <pt x="166" y="727" on="1"/>
        <pt x="166" y="597" on="0"/>
        <pt x="258" y="354" on="0"/>
        <pt x="416" y="169" on="0"/>
        <pt x="645" y="57" on="0"/>
      </contour>
    </TTGlyph>
    <TTGlyph name="Ocircumflexhookabove" xMin="94" yMin="-10" xMax="1452" yMax="1997">
      <contour>
        <pt x="844" y="1898" on="1"/>
        <pt x="809" y="1933" on="1"/>
        <pt x="845" y="1966" on="0"/>
        <pt x="907" y="1997" on="0"/>
        <pt x="946" y="1997" on="1"/>
        <pt x="1002" y="1997" on="0"/>
        <pt x="1069" y="1931" on="0"/>
        <pt x="1069" y="1876" on="1"/>
        <pt x="1069" y="1840" on="0"/>
        <pt x="1029" y="1781" on="0"/>
        <pt x="981" y="1731" on="1"/>
        <pt x="950" y="1761" on="1"/>
        <pt x="1018" y="1832" on="0"/>
        <pt x="1018" y="1874" on="1"/>
        <pt x="1018" y="1907" on="0"/>
        <pt x="979" y="1948" on="0"/>
        <pt x="940" y="1948" on="1"/>
        <pt x="914" y="1948" on="0"/>
        <pt x="876" y="1927" on="0"/>
      </contour>
      <contour>
        <pt x="543" y="1634" on="1"/>
        <pt x="735" y="1792" on="1"/>
        <pt x="788" y="1792" on="1"/>
        <pt x="983" y="1634" on="1"/>
        <pt x="936" y="1604" on="1"/>
        <pt x="762" y="1733" on="1"/>
        <pt x="588" y="1604" on="1"/>
      </contour>
      <contour>
        <pt x="94" y="727" on="1"/>
        <pt x="94" y="919" on="0"/>
        <pt x="271" y="1257" on="0"/>
        <pt x="587" y="1464" on="0"/>
        <pt x="774" y="1464" on="1"/>
        <pt x="920" y="1464" on="0"/>
        <pt x="1178" y="1335" on="0"/>
        <pt x="1352" y="1127" on="0"/>
        <pt x="1452" y="863" on="0"/>
        <pt x="1452" y="727" on="1"/>
        <pt x="1452" y="582" on="0"/>
        <pt x="1347" y="312" on="0"/>
        <pt x="1168" y="111" on="0"/>
        <pt x="914" y="-10" on="0"/>
        <pt x="774" y="-10" on="1"/>
        <pt x="627" y="-9" on="0"/>
        <pt x="370" y="117" on="0"/>
        <pt x="195" y="322" on="0"/>
        <pt x="94" y="588" on="0"/>
      </contour>
      <contour>
        <pt x="774" y="57" on="1"/>
        <pt x="906" y="57" on="0"/>
        <pt x="1137" y="173" on="0"/>
        <pt x="1292" y="363" on="0"/>
        <pt x="1380" y="603" on="0"/>
        <pt x="1380" y="727" on="1"/>
        <pt x="1380" y="856" on="0"/>
        <pt x="1287" y="1100" on="0"/>
        <pt x="1128" y="1285" on="0"/>
        <pt x="900" y="1397" on="0"/>
        <pt x="774" y="1397" on="1"/>
        <pt x="642" y="1397" on="0"/>
        <pt x="410" y="1281" on="0"/>
        <pt x="255" y="1092" on="0"/>
        <pt x="166" y="852" on="0"/>
        <pt x="166" y="727" on="1"/>
        <pt x="166" y="597" on="0"/>
        <pt x="258" y="354" on="0"/>
        <pt x="416" y="169" on="0"/>
        <pt x="645" y="57" on="0"/>
      </contour>
    </TTGlyph>
    <TTGlyph name="Ocircumflextilde" xMin="94" yMin="-10" xMax="1452" yMax="1993">
      <contour>
        <pt x="645" y="1919" on="1"/>
        <pt x="615" y="1919" on="0"/>
        <pt x="570" y="1893" on="0"/>
        <pt x="550" y="1855" on="0"/>
        <pt x="541" y="1828" on="0"/>
        <pt x="541" y="1821" on="1"/>
        <pt x="487" y="1821" on="1"/>
        <pt x="487" y="1829" on="0"/>
        <pt x="493" y="1859" on="0"/>
        <pt x="513" y="1906" on="0"/>
        <pt x="546" y="1945" on="0"/>
        <pt x="607" y="1974" on="0"/>
        <pt x="647" y="1974" on="1"/>
        <pt x="702" y="1974" on="0"/>
        <pt x="854" y="1894" on="0"/>
        <pt x="905" y="1894" on="1"/>
        <pt x="936" y="1894" on="0"/>
        <pt x="983" y="1914" on="0"/>
        <pt x="1007" y="1939" on="0"/>
        <pt x="1021" y="1971" on="0"/>
        <pt x="1024" y="1988" on="0"/>
        <pt x="1024" y="1993" on="1"/>
        <pt x="1079" y="1993" on="1"/>
        <pt x="1079" y="1984" on="0"/>
        <pt x="1073" y="1954" on="0"/>
        <pt x="1050" y="1908" on="0"/>
        <pt x="1014" y="1869" on="0"/>
        <pt x="946" y="1841" on="0"/>
        <pt x="903" y="1841" on="1"/>
        <pt x="851" y="1841" on="0"/>
        <pt x="757" y="1880" on="0"/>
        <pt x="679" y="1919" on="0"/>
      </contour>
      <contour>
        <pt x="543" y="1634" on="1"/>
        <pt x="735" y="1792" on="1"/>
        <pt x="788" y="1792" on="1"/>
        <pt x="983" y="1634" on="1"/>
        <pt x="936" y="1604" on="1"/>
        <pt x="762" y="1733" on="1"/>
        <pt x="588" y="1604" on="1"/>
      </contour>
      <contour>
        <pt x="94" y="727" on="1"/>
        <pt x="94" y="919" on="0"/>
        <pt x="271" y="1257" on="0"/>
        <pt x="587" y="1464" on="0"/>
        <pt x="774" y="1464" on="1"/>
        <pt x="920" y="1464" on="0"/>
        <pt x="1178" y="1335" on="0"/>
        <pt x="1352" y="1127" on="0"/>
        <pt x="1452" y="863" on="0"/>
        <pt x="1452" y="727" on="1"/>
        <pt x="1452" y="582" on="0"/>
        <pt x="1347" y="312" on="0"/>
        <pt x="1168" y="111" on="0"/>
        <pt x="914" y="-10" on="0"/>
        <pt x="774" y="-10" on="1"/>
        <pt x="627" y="-9" on="0"/>
        <pt x="370" y="117" on="0"/>
        <pt x="195" y="322" on="0"/>
        <pt x="94" y="588" on="0"/>
      </contour>
      <contour>
        <pt x="774" y="57" on="1"/>
        <pt x="906" y="57" on="0"/>
        <pt x="1137" y="173" on="0"/>
        <pt x="1292" y="363" on="0"/>
        <pt x="1380" y="603" on="0"/>
        <pt x="1380" y="727" on="1"/>
        <pt x="1380" y="856" on="0"/>
        <pt x="1287" y="1100" on="0"/>
        <pt x="1128" y="1285" on="0"/>
        <pt x="900" y="1397" on="0"/>
        <pt x="774" y="1397" on="1"/>
        <pt x="642" y="1397" on="0"/>
        <pt x="410" y="1281" on="0"/>
        <pt x="255" y="1092" on="0"/>
        <pt x="166" y="852" on="0"/>
        <pt x="166" y="727" on="1"/>
        <pt x="166" y="597" on="0"/>
        <pt x="258" y="354" on="0"/>
        <pt x="416" y="169" on="0"/>
        <pt x="645" y="57" on="0"/>
      </contour>
    </TTGlyph>
    <TTGlyph name="Odblacute" xMin="94" yMin="-10" xMax="1452" yMax="1880">
      <contour>
        <pt x="643" y="1692" on="1"/>
        <pt x="598" y="1718" on="1"/>
        <pt x="725" y="1880" on="1"/>
        <pt x="813" y="1880" on="1"/>
      </contour>
      <contour>
        <pt x="864" y="1692" on="1"/>
        <pt x="817" y="1718" on="1"/>
        <pt x="944" y="1880" on="1"/>
        <pt x="1032" y="1880" on="1"/>
      </contour>
      <contour>
        <pt x="94" y="727" on="1"/>
        <pt x="94" y="919" on="0"/>
        <pt x="271" y="1257" on="0"/>
        <pt x="587" y="1464" on="0"/>
        <pt x="774" y="1464" on="1"/>
        <pt x="920" y="1464" on="0"/>
        <pt x="1178" y="1335" on="0"/>
        <pt x="1352" y="1127" on="0"/>
        <pt x="1452" y="863" on="0"/>
        <pt x="1452" y="727" on="1"/>
        <pt x="1452" y="582" on="0"/>
        <pt x="1347" y="312" on="0"/>
        <pt x="1168" y="111" on="0"/>
        <pt x="914" y="-10" on="0"/>
        <pt x="774" y="-10" on="1"/>
        <pt x="627" y="-9" on="0"/>
        <pt x="370" y="117" on="0"/>
        <pt x="195" y="322" on="0"/>
        <pt x="94" y="588" on="0"/>
      </contour>
      <contour>
        <pt x="774" y="57" on="1"/>
        <pt x="906" y="57" on="0"/>
        <pt x="1137" y="173" on="0"/>
        <pt x="1292" y="363" on="0"/>
        <pt x="1380" y="603" on="0"/>
        <pt x="1380" y="727" on="1"/>
        <pt x="1380" y="856" on="0"/>
        <pt x="1287" y="1100" on="0"/>
        <pt x="1128" y="1285" on="0"/>
        <pt x="900" y="1397" on="0"/>
        <pt x="774" y="1397" on="1"/>
        <pt x="642" y="1397" on="0"/>
        <pt x="410" y="1281" on="0"/>
        <pt x="255" y="1092" on="0"/>
        <pt x="166" y="852" on="0"/>
        <pt x="166" y="727" on="1"/>
        <pt x="166" y="597" on="0"/>
        <pt x="258" y="354" on="0"/>
        <pt x="416" y="169" on="0"/>
        <pt x="645" y="57" on="0"/>
      </contour>
    </TTGlyph>
    <TTGlyph name="Odblgrave" xMin="94" yMin="-10" xMax="1452" yMax="1880">
      <contour>
        <pt x="494" y="1880" on="1"/>
        <pt x="582" y="1880" on="1"/>
        <pt x="709" y="1718" on="1"/>
        <pt x="664" y="1692" on="1"/>
      </contour>
      <contour>
        <pt x="715" y="1880" on="1"/>
        <pt x="801" y="1880" on="1"/>
        <pt x="928" y="1718" on="1"/>
        <pt x="883" y="1692" on="1"/>
      </contour>
      <contour>
        <pt x="94" y="727" on="1"/>
        <pt x="94" y="919" on="0"/>
        <pt x="271" y="1257" on="0"/>
        <pt x="587" y="1464" on="0"/>
        <pt x="774" y="1464" on="1"/>
        <pt x="920" y="1464" on="0"/>
        <pt x="1178" y="1335" on="0"/>
        <pt x="1352" y="1127" on="0"/>
        <pt x="1452" y="863" on="0"/>
        <pt x="1452" y="727" on="1"/>
        <pt x="1452" y="582" on="0"/>
        <pt x="1347" y="312" on="0"/>
        <pt x="1168" y="111" on="0"/>
        <pt x="914" y="-10" on="0"/>
        <pt x="774" y="-10" on="1"/>
        <pt x="627" y="-9" on="0"/>
        <pt x="370" y="117" on="0"/>
        <pt x="195" y="322" on="0"/>
        <pt x="94" y="588" on="0"/>
      </contour>
      <contour>
        <pt x="774" y="57" on="1"/>
        <pt x="906" y="57" on="0"/>
        <pt x="1137" y="173" on="0"/>
        <pt x="1292" y="363" on="0"/>
        <pt x="1380" y="603" on="0"/>
        <pt x="1380" y="727" on="1"/>
        <pt x="1380" y="856" on="0"/>
        <pt x="1287" y="1100" on="0"/>
        <pt x="1128" y="1285" on="0"/>
        <pt x="900" y="1397" on="0"/>
        <pt x="774" y="1397" on="1"/>
        <pt x="642" y="1397" on="0"/>
        <pt x="410" y="1281" on="0"/>
        <pt x="255" y="1092" on="0"/>
        <pt x="166" y="852" on="0"/>
        <pt x="166" y="727" on="1"/>
        <pt x="166" y="597" on="0"/>
        <pt x="258" y="354" on="0"/>
        <pt x="416" y="169" on="0"/>
        <pt x="645" y="57" on="0"/>
      </contour>
    </TTGlyph>
    <TTGlyph name="Odieresis" xMin="94" yMin="-10" xMax="1452" yMax="1878">
      <contour>
        <pt x="612" y="1710" on="1"/>
        <pt x="612" y="1878" on="1"/>
        <pt x="676" y="1878" on="1"/>
        <pt x="676" y="1710" on="1"/>
      </contour>
      <contour>
        <pt x="870" y="1710" on="1"/>
        <pt x="870" y="1878" on="1"/>
        <pt x="934" y="1878" on="1"/>
        <pt x="934" y="1710" on="1"/>
      </contour>
      <contour>
        <pt x="94" y="727" on="1"/>
        <pt x="94" y="919" on="0"/>
        <pt x="271" y="1257" on="0"/>
        <pt x="587" y="1464" on="0"/>
        <pt x="774" y="1464" on="1"/>
        <pt x="920" y="1464" on="0"/>
        <pt x="1178" y="1335" on="0"/>
        <pt x="1352" y="1127" on="0"/>
        <pt x="1452" y="863" on="0"/>
        <pt x="1452" y="727" on="1"/>
        <pt x="1452" y="582" on="0"/>
        <pt x="1347" y="312" on="0"/>
        <pt x="1168" y="111" on="0"/>
        <pt x="914" y="-10" on="0"/>
        <pt x="774" y="-10" on="1"/>
        <pt x="627" y="-9" on="0"/>
        <pt x="370" y="117" on="0"/>
        <pt x="195" y="322" on="0"/>
        <pt x="94" y="588" on="0"/>
      </contour>
      <contour>
        <pt x="774" y="57" on="1"/>
        <pt x="906" y="57" on="0"/>
        <pt x="1137" y="173" on="0"/>
        <pt x="1292" y="363" on="0"/>
        <pt x="1380" y="603" on="0"/>
        <pt x="1380" y="727" on="1"/>
        <pt x="1380" y="856" on="0"/>
        <pt x="1287" y="1100" on="0"/>
        <pt x="1128" y="1285" on="0"/>
        <pt x="900" y="1397" on="0"/>
        <pt x="774" y="1397" on="1"/>
        <pt x="642" y="1397" on="0"/>
        <pt x="410" y="1281" on="0"/>
        <pt x="255" y="1092" on="0"/>
        <pt x="166" y="852" on="0"/>
        <pt x="166" y="727" on="1"/>
        <pt x="166" y="597" on="0"/>
        <pt x="258" y="354" on="0"/>
        <pt x="416" y="169" on="0"/>
        <pt x="645" y="57" on="0"/>
      </contour>
    </TTGlyph>
    <TTGlyph name="Odieresiscyrillic" xMin="94" yMin="-10" xMax="1452" yMax="1878">
      <contour>
        <pt x="612" y="1710" on="1"/>
        <pt x="612" y="1878" on="1"/>
        <pt x="676" y="1878" on="1"/>
        <pt x="676" y="1710" on="1"/>
      </contour>
      <contour>
        <pt x="870" y="1710" on="1"/>
        <pt x="870" y="1878" on="1"/>
        <pt x="934" y="1878" on="1"/>
        <pt x="934" y="1710" on="1"/>
      </contour>
      <contour>
        <pt x="94" y="727" on="1"/>
        <pt x="94" y="919" on="0"/>
        <pt x="271" y="1257" on="0"/>
        <pt x="587" y="1464" on="0"/>
        <pt x="774" y="1464" on="1"/>
        <pt x="920" y="1464" on="0"/>
        <pt x="1178" y="1335" on="0"/>
        <pt x="1352" y="1127" on="0"/>
        <pt x="1452" y="863" on="0"/>
        <pt x="1452" y="727" on="1"/>
        <pt x="1452" y="582" on="0"/>
        <pt x="1347" y="312" on="0"/>
        <pt x="1168" y="111" on="0"/>
        <pt x="914" y="-10" on="0"/>
        <pt x="774" y="-10" on="1"/>
        <pt x="627" y="-9" on="0"/>
        <pt x="370" y="117" on="0"/>
        <pt x="195" y="322" on="0"/>
        <pt x="94" y="588" on="0"/>
      </contour>
      <contour>
        <pt x="774" y="57" on="1"/>
        <pt x="906" y="57" on="0"/>
        <pt x="1137" y="173" on="0"/>
        <pt x="1292" y="363" on="0"/>
        <pt x="1380" y="603" on="0"/>
        <pt x="1380" y="727" on="1"/>
        <pt x="1380" y="856" on="0"/>
        <pt x="1287" y="1100" on="0"/>
        <pt x="1128" y="1285" on="0"/>
        <pt x="900" y="1397" on="0"/>
        <pt x="774" y="1397" on="1"/>
        <pt x="642" y="1397" on="0"/>
        <pt x="410" y="1281" on="0"/>
        <pt x="255" y="1092" on="0"/>
        <pt x="166" y="852" on="0"/>
        <pt x="166" y="727" on="1"/>
        <pt x="166" y="597" on="0"/>
        <pt x="258" y="354" on="0"/>
        <pt x="416" y="169" on="0"/>
        <pt x="645" y="57" on="0"/>
      </contour>
    </TTGlyph>
    <TTGlyph name="Odieresismacron" xMin="94" yMin="-10" xMax="1452" yMax="2243">
      <contour>
        <pt x="485" y="2185" on="1"/>
        <pt x="485" y="2243" on="1"/>
        <pt x="1065" y="2243" on="1"/>
        <pt x="1065" y="2185" on="1"/>
      </contour>
      <contour>
        <pt x="612" y="1710" on="1"/>
        <pt x="612" y="1878" on="1"/>
        <pt x="676" y="1878" on="1"/>
        <pt x="676" y="1710" on="1"/>
      </contour>
      <contour>
        <pt x="870" y="1710" on="1"/>
        <pt x="870" y="1878" on="1"/>
        <pt x="934" y="1878" on="1"/>
        <pt x="934" y="1710" on="1"/>
      </contour>
      <contour>
        <pt x="94" y="727" on="1"/>
        <pt x="94" y="919" on="0"/>
        <pt x="271" y="1257" on="0"/>
        <pt x="587" y="1464" on="0"/>
        <pt x="774" y="1464" on="1"/>
        <pt x="920" y="1464" on="0"/>
        <pt x="1178" y="1335" on="0"/>
        <pt x="1352" y="1127" on="0"/>
        <pt x="1452" y="863" on="0"/>
        <pt x="1452" y="727" on="1"/>
        <pt x="1452" y="582" on="0"/>
        <pt x="1347" y="312" on="0"/>
        <pt x="1168" y="111" on="0"/>
        <pt x="914" y="-10" on="0"/>
        <pt x="774" y="-10" on="1"/>
        <pt x="627" y="-9" on="0"/>
        <pt x="370" y="117" on="0"/>
        <pt x="195" y="322" on="0"/>
        <pt x="94" y="588" on="0"/>
      </contour>
      <contour>
        <pt x="774" y="57" on="1"/>
        <pt x="906" y="57" on="0"/>
        <pt x="1137" y="173" on="0"/>
        <pt x="1292" y="363" on="0"/>
        <pt x="1380" y="603" on="0"/>
        <pt x="1380" y="727" on="1"/>
        <pt x="1380" y="856" on="0"/>
        <pt x="1287" y="1100" on="0"/>
        <pt x="1128" y="1285" on="0"/>
        <pt x="900" y="1397" on="0"/>
        <pt x="774" y="1397" on="1"/>
        <pt x="642" y="1397" on="0"/>
        <pt x="410" y="1281" on="0"/>
        <pt x="255" y="1092" on="0"/>
        <pt x="166" y="852" on="0"/>
        <pt x="166" y="727" on="1"/>
        <pt x="166" y="597" on="0"/>
        <pt x="258" y="354" on="0"/>
        <pt x="416" y="169" on="0"/>
        <pt x="645" y="57" on="0"/>
      </contour>
    </TTGlyph>
    <TTGlyph name="Odotabovemacron" xMin="94" yMin="-10" xMax="1452" yMax="2261">
      <contour>
        <pt x="485" y="2204" on="1"/>
        <pt x="485" y="2261" on="1"/>
        <pt x="1065" y="2261" on="1"/>
        <pt x="1065" y="2204" on="1"/>
      </contour>
      <contour>
        <pt x="741" y="1708" on="1"/>
        <pt x="741" y="1878" on="1"/>
        <pt x="807" y="1878" on="1"/>
        <pt x="807" y="1708" on="1"/>
      </contour>
      <contour>
        <pt x="94" y="727" on="1"/>
        <pt x="94" y="919" on="0"/>
        <pt x="271" y="1257" on="0"/>
        <pt x="587" y="1464" on="0"/>
        <pt x="774" y="1464" on="1"/>
        <pt x="920" y="1464" on="0"/>
        <pt x="1178" y="1335" on="0"/>
        <pt x="1352" y="1127" on="0"/>
        <pt x="1452" y="863" on="0"/>
        <pt x="1452" y="727" on="1"/>
        <pt x="1452" y="582" on="0"/>
        <pt x="1347" y="312" on="0"/>
        <pt x="1168" y="111" on="0"/>
        <pt x="914" y="-10" on="0"/>
        <pt x="774" y="-10" on="1"/>
        <pt x="627" y="-9" on="0"/>
        <pt x="370" y="117" on="0"/>
        <pt x="195" y="322" on="0"/>
        <pt x="94" y="588" on="0"/>
      </contour>
      <contour>
        <pt x="774" y="57" on="1"/>
        <pt x="906" y="57" on="0"/>
        <pt x="1137" y="173" on="0"/>
        <pt x="1292" y="363" on="0"/>
        <pt x="1380" y="603" on="0"/>
        <pt x="1380" y="727" on="1"/>
        <pt x="1380" y="856" on="0"/>
        <pt x="1287" y="1100" on="0"/>
        <pt x="1128" y="1285" on="0"/>
        <pt x="900" y="1397" on="0"/>
        <pt x="774" y="1397" on="1"/>
        <pt x="642" y="1397" on="0"/>
        <pt x="410" y="1281" on="0"/>
        <pt x="255" y="1092" on="0"/>
        <pt x="166" y="852" on="0"/>
        <pt x="166" y="727" on="1"/>
        <pt x="166" y="597" on="0"/>
        <pt x="258" y="354" on="0"/>
        <pt x="416" y="169" on="0"/>
        <pt x="645" y="57" on="0"/>
      </contour>
    </TTGlyph>
    <TTGlyph name="Odotbelow" xMin="94" yMin="-285" xMax="1452" yMax="1464">
      <contour>
        <pt x="94" y="727" on="1"/>
        <pt x="94" y="919" on="0"/>
        <pt x="271" y="1257" on="0"/>
        <pt x="587" y="1464" on="0"/>
        <pt x="774" y="1464" on="1"/>
        <pt x="920" y="1464" on="0"/>
        <pt x="1178" y="1335" on="0"/>
        <pt x="1352" y="1127" on="0"/>
        <pt x="1452" y="863" on="0"/>
        <pt x="1452" y="727" on="1"/>
        <pt x="1452" y="582" on="0"/>
        <pt x="1347" y="312" on="0"/>
        <pt x="1168" y="111" on="0"/>
        <pt x="914" y="-10" on="0"/>
        <pt x="774" y="-10" on="1"/>
        <pt x="627" y="-9" on="0"/>
        <pt x="370" y="117" on="0"/>
        <pt x="195" y="322" on="0"/>
        <pt x="94" y="588" on="0"/>
      </contour>
      <contour>
        <pt x="774" y="57" on="1"/>
        <pt x="906" y="57" on="0"/>
        <pt x="1137" y="173" on="0"/>
        <pt x="1292" y="363" on="0"/>
        <pt x="1380" y="603" on="0"/>
        <pt x="1380" y="727" on="1"/>
        <pt x="1380" y="856" on="0"/>
        <pt x="1287" y="1100" on="0"/>
        <pt x="1128" y="1285" on="0"/>
        <pt x="900" y="1397" on="0"/>
        <pt x="774" y="1397" on="1"/>
        <pt x="642" y="1397" on="0"/>
        <pt x="410" y="1281" on="0"/>
        <pt x="255" y="1092" on="0"/>
        <pt x="166" y="852" on="0"/>
        <pt x="166" y="727" on="1"/>
        <pt x="166" y="597" on="0"/>
        <pt x="258" y="354" on="0"/>
        <pt x="416" y="169" on="0"/>
        <pt x="645" y="57" on="0"/>
      </contour>
      <contour>
        <pt x="741" y="-285" on="1"/>
        <pt x="741" y="-115" on="1"/>
        <pt x="807" y="-115" on="1"/>
        <pt x="807" y="-285" on="1"/>
      </contour>
    </TTGlyph>
    <TTGlyph name="Ograve" xMin="94" yMin="-10" xMax="1452" yMax="1880">
      <contour>
        <pt x="621" y="1880" on="1"/>
        <pt x="711" y="1880" on="1"/>
        <pt x="840" y="1718" on="1"/>
        <pt x="791" y="1692" on="1"/>
      </contour>
      <contour>
        <pt x="94" y="727" on="1"/>
        <pt x="94" y="919" on="0"/>
        <pt x="271" y="1257" on="0"/>
        <pt x="587" y="1464" on="0"/>
        <pt x="774" y="1464" on="1"/>
        <pt x="920" y="1464" on="0"/>
        <pt x="1178" y="1335" on="0"/>
        <pt x="1352" y="1127" on="0"/>
        <pt x="1452" y="863" on="0"/>
        <pt x="1452" y="727" on="1"/>
        <pt x="1452" y="582" on="0"/>
        <pt x="1347" y="312" on="0"/>
        <pt x="1168" y="111" on="0"/>
        <pt x="914" y="-10" on="0"/>
        <pt x="774" y="-10" on="1"/>
        <pt x="627" y="-9" on="0"/>
        <pt x="370" y="117" on="0"/>
        <pt x="195" y="322" on="0"/>
        <pt x="94" y="588" on="0"/>
      </contour>
      <contour>
        <pt x="774" y="57" on="1"/>
        <pt x="906" y="57" on="0"/>
        <pt x="1137" y="173" on="0"/>
        <pt x="1292" y="363" on="0"/>
        <pt x="1380" y="603" on="0"/>
        <pt x="1380" y="727" on="1"/>
        <pt x="1380" y="856" on="0"/>
        <pt x="1287" y="1100" on="0"/>
        <pt x="1128" y="1285" on="0"/>
        <pt x="900" y="1397" on="0"/>
        <pt x="774" y="1397" on="1"/>
        <pt x="642" y="1397" on="0"/>
        <pt x="410" y="1281" on="0"/>
        <pt x="255" y="1092" on="0"/>
        <pt x="166" y="852" on="0"/>
        <pt x="166" y="727" on="1"/>
        <pt x="166" y="597" on="0"/>
        <pt x="258" y="354" on="0"/>
        <pt x="416" y="169" on="0"/>
        <pt x="645" y="57" on="0"/>
      </contour>
    </TTGlyph>
    <TTGlyph name="Ohm" xMin="98" yMin="0" xMax="1475" yMax="1464">
      <contour>
        <pt x="98" y="68" on="1"/>
        <pt x="530" y="68" on="1"/>
        <pt x="335" y="159" on="0"/>
        <pt x="111" y="528" on="0"/>
        <pt x="111" y="748" on="1"/>
        <pt x="111" y="936" on="0"/>
        <pt x="284" y="1263" on="0"/>
        <pt x="597" y="1464" on="0"/>
        <pt x="786" y="1464" on="1"/>
        <pt x="928" y="1464" on="0"/>
        <pt x="1182" y="1346" on="0"/>
        <pt x="1359" y="1149" on="0"/>
        <pt x="1462" y="888" on="0"/>
        <pt x="1462" y="748" on="1"/>
        <pt x="1462" y="528" on="0"/>
        <pt x="1237" y="160" on="0"/>
        <pt x="1042" y="68" on="1"/>
        <pt x="1475" y="68" on="1"/>
        <pt x="1475" y="0" on="1"/>
        <pt x="883" y="0" on="1"/>
        <pt x="883" y="68" on="1"/>
        <pt x="1002" y="94" on="0"/>
        <pt x="1198" y="234" on="0"/>
        <pt x="1323" y="423" on="0"/>
        <pt x="1391" y="640" on="0"/>
        <pt x="1391" y="748" on="1"/>
        <pt x="1391" y="845" on="0"/>
        <pt x="1338" y="1033" on="0"/>
        <pt x="1232" y="1197" on="0"/>
        <pt x="1089" y="1323" on="0"/>
        <pt x="895" y="1395" on="0"/>
        <pt x="677" y="1395" on="0"/>
        <pt x="484" y="1323" on="0"/>
        <pt x="340" y="1197" on="0"/>
        <pt x="235" y="1033" on="0"/>
        <pt x="182" y="845" on="0"/>
        <pt x="182" y="748" on="1"/>
        <pt x="182" y="640" on="0"/>
        <pt x="250" y="423" on="0"/>
        <pt x="375" y="234" on="0"/>
        <pt x="571" y="94" on="0"/>
        <pt x="690" y="68" on="1"/>
        <pt x="690" y="0" on="1"/>
        <pt x="98" y="0" on="1"/>
      </contour>
    </TTGlyph>
    <TTGlyph name="Ohookabove" xMin="94" yMin="-10" xMax="1452" yMax="1884">
      <contour>
        <pt x="678" y="1786" on="1"/>
        <pt x="643" y="1821" on="1"/>
        <pt x="679" y="1854" on="0"/>
        <pt x="741" y="1884" on="0"/>
        <pt x="780" y="1884" on="1"/>
        <pt x="836" y="1884" on="0"/>
        <pt x="903" y="1818" on="0"/>
        <pt x="903" y="1763" on="1"/>
        <pt x="903" y="1727" on="0"/>
        <pt x="863" y="1668" on="0"/>
        <pt x="815" y="1618" on="1"/>
        <pt x="784" y="1649" on="1"/>
        <pt x="852" y="1720" on="0"/>
        <pt x="852" y="1761" on="1"/>
        <pt x="852" y="1794" on="0"/>
        <pt x="813" y="1835" on="0"/>
        <pt x="774" y="1835" on="1"/>
        <pt x="748" y="1835" on="0"/>
        <pt x="709" y="1814" on="0"/>
      </contour>
      <contour>
        <pt x="94" y="727" on="1"/>
        <pt x="94" y="919" on="0"/>
        <pt x="271" y="1257" on="0"/>
        <pt x="587" y="1464" on="0"/>
        <pt x="774" y="1464" on="1"/>
        <pt x="920" y="1464" on="0"/>
        <pt x="1178" y="1335" on="0"/>
        <pt x="1352" y="1127" on="0"/>
        <pt x="1452" y="863" on="0"/>
        <pt x="1452" y="727" on="1"/>
        <pt x="1452" y="582" on="0"/>
        <pt x="1347" y="312" on="0"/>
        <pt x="1168" y="111" on="0"/>
        <pt x="914" y="-10" on="0"/>
        <pt x="774" y="-10" on="1"/>
        <pt x="627" y="-9" on="0"/>
        <pt x="370" y="117" on="0"/>
        <pt x="195" y="322" on="0"/>
        <pt x="94" y="588" on="0"/>
      </contour>
      <contour>
        <pt x="774" y="57" on="1"/>
        <pt x="906" y="57" on="0"/>
        <pt x="1137" y="173" on="0"/>
        <pt x="1292" y="363" on="0"/>
        <pt x="1380" y="603" on="0"/>
        <pt x="1380" y="727" on="1"/>
        <pt x="1380" y="856" on="0"/>
        <pt x="1287" y="1100" on="0"/>
        <pt x="1128" y="1285" on="0"/>
        <pt x="900" y="1397" on="0"/>
        <pt x="774" y="1397" on="1"/>
        <pt x="642" y="1397" on="0"/>
        <pt x="410" y="1281" on="0"/>
        <pt x="255" y="1092" on="0"/>
        <pt x="166" y="852" on="0"/>
        <pt x="166" y="727" on="1"/>
        <pt x="166" y="597" on="0"/>
        <pt x="258" y="354" on="0"/>
        <pt x="416" y="169" on="0"/>
        <pt x="645" y="57" on="0"/>
      </contour>
    </TTGlyph>
    <TTGlyph name="Ohorn" xMin="94" yMin="-10" xMax="1452" yMax="1626">
      <contour>
        <pt x="1020" y="1413" on="1"/>
        <pt x="1150" y="1358" on="0"/>
        <pt x="1348" y="1140" on="0"/>
        <pt x="1452" y="869" on="0"/>
        <pt x="1452" y="727" on="1"/>
        <pt x="1452" y="582" on="0"/>
        <pt x="1347" y="312" on="0"/>
        <pt x="1168" y="111" on="0"/>
        <pt x="914" y="-10" on="0"/>
        <pt x="774" y="-10" on="1"/>
        <pt x="627" y="-9" on="0"/>
        <pt x="370" y="117" on="0"/>
        <pt x="195" y="322" on="0"/>
        <pt x="94" y="588" on="0"/>
        <pt x="94" y="727" on="1"/>
        <pt x="94" y="919" on="0"/>
        <pt x="271" y="1257" on="0"/>
        <pt x="587" y="1464" on="0"/>
        <pt x="774" y="1464" on="1"/>
        <pt x="829" y="1464" on="0"/>
        <pt x="891" y="1454" on="1"/>
        <pt x="1016" y="1454" on="0"/>
        <pt x="1057" y="1501" on="1"/>
        <pt x="1087" y="1536" on="0"/>
        <pt x="1090" y="1626" on="1"/>
        <pt x="1157" y="1626" on="1"/>
        <pt x="1152" y="1560" on="0"/>
        <pt x="1134" y="1494" on="0"/>
        <pt x="1106" y="1462" on="1"/>
        <pt x="1079" y="1432" on="0"/>
      </contour>
      <contour>
        <pt x="774" y="57" on="1"/>
        <pt x="906" y="57" on="0"/>
        <pt x="1137" y="173" on="0"/>
        <pt x="1292" y="363" on="0"/>
        <pt x="1380" y="603" on="0"/>
        <pt x="1380" y="727" on="1"/>
        <pt x="1380" y="856" on="0"/>
        <pt x="1287" y="1100" on="0"/>
        <pt x="1128" y="1285" on="0"/>
        <pt x="900" y="1397" on="0"/>
        <pt x="774" y="1397" on="1"/>
        <pt x="642" y="1397" on="0"/>
        <pt x="410" y="1281" on="0"/>
        <pt x="255" y="1092" on="0"/>
        <pt x="166" y="852" on="0"/>
        <pt x="166" y="727" on="1"/>
        <pt x="166" y="597" on="0"/>
        <pt x="258" y="354" on="0"/>
        <pt x="416" y="169" on="0"/>
        <pt x="645" y="57" on="0"/>
      </contour>
    </TTGlyph>
    <TTGlyph name="Ohornacute" xMin="94" yMin="-10" xMax="1452" yMax="1878">
      <contour>
        <pt x="967" y="1878" on="1"/>
        <pt x="797" y="1690" on="1"/>
        <pt x="748" y="1716" on="1"/>
        <pt x="874" y="1878" on="1"/>
      </contour>
      <contour>
        <pt x="1020" y="1413" on="1"/>
        <pt x="1150" y="1358" on="0"/>
        <pt x="1348" y="1140" on="0"/>
        <pt x="1452" y="869" on="0"/>
        <pt x="1452" y="727" on="1"/>
        <pt x="1452" y="582" on="0"/>
        <pt x="1347" y="312" on="0"/>
        <pt x="1168" y="111" on="0"/>
        <pt x="914" y="-10" on="0"/>
        <pt x="774" y="-10" on="1"/>
        <pt x="627" y="-9" on="0"/>
        <pt x="370" y="117" on="0"/>
        <pt x="195" y="322" on="0"/>
        <pt x="94" y="588" on="0"/>
        <pt x="94" y="727" on="1"/>
        <pt x="94" y="919" on="0"/>
        <pt x="271" y="1257" on="0"/>
        <pt x="587" y="1464" on="0"/>
        <pt x="774" y="1464" on="1"/>
        <pt x="829" y="1464" on="0"/>
        <pt x="891" y="1454" on="1"/>
        <pt x="1016" y="1454" on="0"/>
        <pt x="1057" y="1501" on="1"/>
        <pt x="1087" y="1536" on="0"/>
        <pt x="1090" y="1626" on="1"/>
        <pt x="1157" y="1626" on="1"/>
        <pt x="1152" y="1560" on="0"/>
        <pt x="1134" y="1494" on="0"/>
        <pt x="1106" y="1462" on="1"/>
        <pt x="1079" y="1432" on="0"/>
      </contour>
      <contour>
        <pt x="774" y="57" on="1"/>
        <pt x="906" y="57" on="0"/>
        <pt x="1137" y="173" on="0"/>
        <pt x="1292" y="363" on="0"/>
        <pt x="1380" y="603" on="0"/>
        <pt x="1380" y="727" on="1"/>
        <pt x="1380" y="856" on="0"/>
        <pt x="1287" y="1100" on="0"/>
        <pt x="1128" y="1285" on="0"/>
        <pt x="900" y="1397" on="0"/>
        <pt x="774" y="1397" on="1"/>
        <pt x="642" y="1397" on="0"/>
        <pt x="410" y="1281" on="0"/>
        <pt x="255" y="1092" on="0"/>
        <pt x="166" y="852" on="0"/>
        <pt x="166" y="727" on="1"/>
        <pt x="166" y="597" on="0"/>
        <pt x="258" y="354" on="0"/>
        <pt x="416" y="169" on="0"/>
        <pt x="645" y="57" on="0"/>
      </contour>
    </TTGlyph>
    <TTGlyph name="Ohorndotbelow" xMin="94" yMin="-285" xMax="1452" yMax="1626">
      <contour>
        <pt x="1020" y="1413" on="1"/>
        <pt x="1150" y="1358" on="0"/>
        <pt x="1348" y="1140" on="0"/>
        <pt x="1452" y="869" on="0"/>
        <pt x="1452" y="727" on="1"/>
        <pt x="1452" y="582" on="0"/>
        <pt x="1347" y="312" on="0"/>
        <pt x="1168" y="111" on="0"/>
        <pt x="914" y="-10" on="0"/>
        <pt x="774" y="-10" on="1"/>
        <pt x="627" y="-9" on="0"/>
        <pt x="370" y="117" on="0"/>
        <pt x="195" y="322" on="0"/>
        <pt x="94" y="588" on="0"/>
        <pt x="94" y="727" on="1"/>
        <pt x="94" y="919" on="0"/>
        <pt x="271" y="1257" on="0"/>
        <pt x="587" y="1464" on="0"/>
        <pt x="774" y="1464" on="1"/>
        <pt x="829" y="1464" on="0"/>
        <pt x="891" y="1454" on="1"/>
        <pt x="1016" y="1454" on="0"/>
        <pt x="1057" y="1501" on="1"/>
        <pt x="1087" y="1536" on="0"/>
        <pt x="1090" y="1626" on="1"/>
        <pt x="1157" y="1626" on="1"/>
        <pt x="1152" y="1560" on="0"/>
        <pt x="1134" y="1494" on="0"/>
        <pt x="1106" y="1462" on="1"/>
        <pt x="1079" y="1432" on="0"/>
      </contour>
      <contour>
        <pt x="774" y="57" on="1"/>
        <pt x="906" y="57" on="0"/>
        <pt x="1137" y="173" on="0"/>
        <pt x="1292" y="363" on="0"/>
        <pt x="1380" y="603" on="0"/>
        <pt x="1380" y="727" on="1"/>
        <pt x="1380" y="856" on="0"/>
        <pt x="1287" y="1100" on="0"/>
        <pt x="1128" y="1285" on="0"/>
        <pt x="900" y="1397" on="0"/>
        <pt x="774" y="1397" on="1"/>
        <pt x="642" y="1397" on="0"/>
        <pt x="410" y="1281" on="0"/>
        <pt x="255" y="1092" on="0"/>
        <pt x="166" y="852" on="0"/>
        <pt x="166" y="727" on="1"/>
        <pt x="166" y="597" on="0"/>
        <pt x="258" y="354" on="0"/>
        <pt x="416" y="169" on="0"/>
        <pt x="645" y="57" on="0"/>
      </contour>
      <contour>
        <pt x="741" y="-285" on="1"/>
        <pt x="741" y="-115" on="1"/>
        <pt x="807" y="-115" on="1"/>
        <pt x="807" y="-285" on="1"/>
      </contour>
    </TTGlyph>
    <TTGlyph name="Ohorngrave" xMin="94" yMin="-10" xMax="1452" yMax="1880">
      <contour>
        <pt x="840" y="1718" on="1"/>
        <pt x="791" y="1692" on="1"/>
        <pt x="621" y="1880" on="1"/>
        <pt x="711" y="1880" on="1"/>
      </contour>
      <contour>
        <pt x="1020" y="1413" on="1"/>
        <pt x="1150" y="1358" on="0"/>
        <pt x="1348" y="1140" on="0"/>
        <pt x="1452" y="869" on="0"/>
        <pt x="1452" y="727" on="1"/>
        <pt x="1452" y="582" on="0"/>
        <pt x="1347" y="312" on="0"/>
        <pt x="1168" y="111" on="0"/>
        <pt x="914" y="-10" on="0"/>
        <pt x="774" y="-10" on="1"/>
        <pt x="627" y="-9" on="0"/>
        <pt x="370" y="117" on="0"/>
        <pt x="195" y="322" on="0"/>
        <pt x="94" y="588" on="0"/>
        <pt x="94" y="727" on="1"/>
        <pt x="94" y="919" on="0"/>
        <pt x="271" y="1257" on="0"/>
        <pt x="587" y="1464" on="0"/>
        <pt x="774" y="1464" on="1"/>
        <pt x="829" y="1464" on="0"/>
        <pt x="891" y="1454" on="1"/>
        <pt x="1016" y="1454" on="0"/>
        <pt x="1057" y="1501" on="1"/>
        <pt x="1087" y="1536" on="0"/>
        <pt x="1090" y="1626" on="1"/>
        <pt x="1157" y="1626" on="1"/>
        <pt x="1152" y="1560" on="0"/>
        <pt x="1134" y="1494" on="0"/>
        <pt x="1106" y="1462" on="1"/>
        <pt x="1079" y="1432" on="0"/>
      </contour>
      <contour>
        <pt x="774" y="57" on="1"/>
        <pt x="906" y="57" on="0"/>
        <pt x="1137" y="173" on="0"/>
        <pt x="1292" y="363" on="0"/>
        <pt x="1380" y="603" on="0"/>
        <pt x="1380" y="727" on="1"/>
        <pt x="1380" y="856" on="0"/>
        <pt x="1287" y="1100" on="0"/>
        <pt x="1128" y="1285" on="0"/>
        <pt x="900" y="1397" on="0"/>
        <pt x="774" y="1397" on="1"/>
        <pt x="642" y="1397" on="0"/>
        <pt x="410" y="1281" on="0"/>
        <pt x="255" y="1092" on="0"/>
        <pt x="166" y="852" on="0"/>
        <pt x="166" y="727" on="1"/>
        <pt x="166" y="597" on="0"/>
        <pt x="258" y="354" on="0"/>
        <pt x="416" y="169" on="0"/>
        <pt x="645" y="57" on="0"/>
      </contour>
    </TTGlyph>
</ttFont>
